<svg width="75" height="76" viewBox="0 0 75 76" fill="none" xmlns="http://www.w3.org/2000/svg">
<path fill-rule="evenodd" clip-rule="evenodd" d="M59.0325 51.5622C62.8778 46.5568 65.1029 40.1269 64.2611 33.8714C63.6649 29.441 61.5904 25.317 58.9574 21.7044C56.0988 17.7821 52.5506 14.364 48.5243 11.6539C47.0086 10.6336 45.3991 9.7017 43.6289 9.24924C40.7153 8.5046 37.6383 9.11686 34.7308 9.88443C28.545 11.5174 22.268 14.0436 18.1747 18.9604C15.3855 22.3108 13.837 26.506 12.5642 30.6755C11.5645 33.9501 10.6972 37.3007 10.578 40.7224C10.3147 48.2834 13.9833 55.8745 20.0713 60.3661C26.1593 64.8577 30.845 66.7666 44.1372 62.966C49.8366 60.2537 55.1871 56.5675 59.0325 51.5622ZM33.0739 48.6787C33.8773 47.9767 34.8912 47.407 35.281 46.4138C36.0773 44.3846 33.7639 42.5219 31.7001 41.8202C25.7924 39.8116 18.9911 40.6315 13.73 43.9865C12.427 41.7041 14.0393 38.7392 16.2258 37.2811C18.4123 35.823 21.0847 35.2713 23.363 33.9613C24.4968 33.3093 25.5847 32.3805 25.9016 31.1116C26.4229 29.0237 24.5356 26.9527 22.4405 26.4611C20.3453 25.9695 18.1689 26.6066 16.1116 27.2382C19.3289 22.362 23.8351 18.3446 29.0472 15.7059C33.1274 13.6402 38.4167 12.5472 42.026 15.3558C38.1409 16.7515 34.5608 18.9893 31.604 21.8703C30.9769 22.4813 30.329 23.3333 30.6467 24.1493C30.8873 24.7674 31.5949 25.0642 32.2508 25.1628C35.5048 25.6519 38.3321 22.9732 41.5288 22.1929C41.9486 22.0904 42.402 22.0232 42.8039 22.1818C43.5916 22.4926 43.8265 23.5676 43.5101 24.353C43.1937 25.1384 42.4973 25.6956 41.8293 26.2159C40.442 27.2967 39.0548 28.3775 37.6675 29.4582C36.6632 30.2406 35.5601 31.2239 35.6108 32.496C35.6632 33.8119 37.0275 34.766 38.3422 34.8432C39.657 34.9204 40.9147 34.3564 42.1106 33.8048C44.9932 32.4753 47.8759 31.1458 50.7585 29.8163C53.172 28.7032 56.1636 27.6318 58.3156 29.1918C60.3411 30.6601 60.3578 33.8849 58.92 35.9323C57.4821 37.9796 55.0341 39.0591 52.6296 39.7498C50.2251 40.4406 47.7092 40.853 45.4878 42.0038C44.0382 42.7547 42.5991 44.2102 43.01 45.7902C43.3275 47.0108 44.6162 47.6987 45.8268 48.0526C49.3159 49.0725 53.2443 48.4683 56.2657 46.447C55.3952 49.0611 54.0359 51.5114 52.2789 53.6337C51.2769 54.8441 50.0697 55.9934 48.547 56.3813C47.0242 56.7692 45.1491 56.1344 44.6062 54.6598C43.7964 52.4603 41.4716 51.1086 39.1508 50.7807C36.83 50.4529 34.4818 50.9648 32.1939 51.4738C31.6172 50.5761 32.2705 49.3808 33.0739 48.6787ZM30.1553 61.4595C26.5094 60.9462 23.2199 58.9999 20.2864 56.7748C17.042 54.314 13.8243 50.6942 14.6017 46.6971C19.4978 43.1335 26.1673 42.1489 31.8842 44.1456C32.3646 44.3133 32.8648 44.5205 33.1637 44.9323C33.4626 45.3441 33.4518 46.019 33.0154 46.2806C31.5181 47.1781 30.1347 48.5616 29.9633 50.2989C29.792 52.0361 31.4153 53.9243 33.0983 53.4605C34.9577 52.9481 36.8824 52.431 38.7912 52.7075C40.7 52.984 42.6022 54.2738 42.9638 56.1683C43.2355 57.592 44.866 58.5909 46.2578 58.1862C43.9124 60.3208 40.5482 60.8081 37.4011 61.1993C34.9953 61.4984 32.5559 61.7975 30.1553 61.4595ZM33.5041 22.4437C36.2753 20.4255 39.1891 18.6033 42.2166 16.995C42.9366 16.6126 43.6812 16.2363 44.4893 16.1287C45.5805 15.9833 46.6707 16.3406 47.7039 16.7206C51.0418 17.9485 54.4333 19.6017 56.4357 22.5411C57.0749 23.4793 57.5492 24.5179 58.0204 25.5508C58.1594 25.8557 58.3016 26.1922 58.2136 26.5155C58.1257 26.8388 57.6828 27.0663 57.4436 26.8317C56.7065 26.1086 55.5016 26.2657 54.5057 26.5385C48.6729 28.1366 43.5504 31.96 37.5855 32.9577C37.2912 32.074 38.1706 31.2759 38.9291 30.7354C40.7357 29.4482 42.4484 28.0292 44.0492 26.4936C44.8749 25.7015 45.7201 24.7727 45.7869 23.6304C45.8847 21.9585 44.1704 20.6298 42.4989 20.5239C40.8275 20.4179 39.2379 21.186 37.7497 21.9541C36.2615 22.7222 34.7041 23.5305 33.0294 23.514C32.7616 23.1674 33.15 22.7016 33.5041 22.4437ZM51.5551 46.1641C49.8661 46.7725 47.9464 47.3718 46.3403 46.5699C45.5005 46.1506 44.8369 45.0426 45.4001 44.2916C45.5731 44.0608 45.8312 43.9111 46.0866 43.7768C50.2821 41.5706 55.735 41.7623 59.136 38.4602C58.9556 39.8699 58.6406 41.2624 58.1967 42.6126C58.0646 43.0147 57.9137 43.4252 57.6246 43.7342C57.2881 44.0937 56.8064 44.2724 56.3432 44.4393C54.7471 45.0143 53.1511 45.5892 51.5551 46.1641ZM16.4145 29.1407C17.7412 28.8898 19.0679 28.6389 20.3946 28.388C21.4455 28.1892 22.7399 28.078 23.3787 28.9359C23.8492 29.5679 23.7118 30.5017 23.2504 31.1404C22.789 31.7791 22.0731 32.1803 21.3609 32.5173C18.8228 33.7181 15.9306 34.4287 13.9776 36.4461C14.3767 34.4642 14.7759 32.4822 15.175 30.5003C15.2582 30.0876 15.3651 29.6361 15.705 29.3876C15.9089 29.2385 16.1663 29.1877 16.4145 29.1407Z" fill="#00160A" fill-opacity="0.33"/>
</svg>
