<svg width="123" height="30" viewBox="0 0 123 30" fill="none" xmlns="http://www.w3.org/2000/svg">
<path d="M3.99969 29.12C2.85302 29.12 1.94635 28.7867 1.27969 28.12C0.613021 27.4533 0.279688 26.5467 0.279688 25.4V8.48C0.279688 7.33333 0.613021 6.42666 1.27969 5.76C1.94635 5.09333 2.85302 4.76 3.99969 4.76H17.1997C17.3864 5.05333 17.5464 5.42667 17.6797 5.88C17.8397 6.33333 17.9197 6.84 17.9197 7.4C17.9197 8.38667 17.7064 9.10667 17.2797 9.56C16.853 10.0133 16.2664 10.24 15.5197 10.24H7.07969V13.96H16.0797C16.2664 14.2533 16.4264 14.6267 16.5597 15.08C16.7197 15.5333 16.7997 16.04 16.7997 16.6C16.7997 17.5867 16.5864 18.3067 16.1597 18.76C15.733 19.1867 15.1464 19.4 14.3997 19.4H7.07969V23.6H17.3597C17.5464 23.8933 17.7064 24.28 17.8397 24.76C17.9997 25.24 18.0797 25.76 18.0797 26.32C18.0797 27.3067 17.8664 28.0267 17.4397 28.48C17.013 28.9067 16.4264 29.12 15.6797 29.12H3.99969ZM30.5278 8.96C31.6745 8.96 32.6611 9.10667 33.4878 9.4V2.92C33.7811 2.84 34.1945 2.76 34.7278 2.68C35.2878 2.6 35.8878 2.56 36.5278 2.56C37.8611 2.56 38.8211 2.78667 39.4078 3.24C39.9945 3.66667 40.2878 4.50667 40.2878 5.76V24.72C40.2878 25.9733 39.7011 26.9733 38.5278 27.72C37.7545 28.2267 36.7545 28.6667 35.5278 29.04C34.3278 29.44 32.9278 29.64 31.3278 29.64C27.8345 29.64 25.1145 28.7867 23.1678 27.08C21.2211 25.3467 20.2478 22.7733 20.2478 19.36C20.2478 17.6 20.5145 16.0667 21.0478 14.76C21.5811 13.4533 22.3011 12.3733 23.2078 11.52C24.1411 10.6667 25.2345 10.0267 26.4878 9.6C27.7411 9.17333 29.0878 8.96 30.5278 8.96ZM33.5278 14.72C33.2345 14.5867 32.9145 14.48 32.5678 14.4C32.2211 14.32 31.8611 14.28 31.4878 14.28C30.1011 14.28 29.0211 14.7067 28.2478 15.56C27.5011 16.3867 27.1278 17.6533 27.1278 19.36C27.1278 21.04 27.4878 22.28 28.2078 23.08C28.9278 23.88 29.9545 24.28 31.2878 24.28C31.7678 24.28 32.2078 24.2267 32.6078 24.12C33.0078 24.0133 33.3145 23.8933 33.5278 23.76V14.72ZM44.5253 9.64C44.8186 9.56 45.232 9.48 45.7653 9.4C46.3253 9.32 46.9253 9.28 47.5653 9.28C48.8986 9.28 49.8586 9.50667 50.4453 9.96C51.032 10.3867 51.3253 11.2267 51.3253 12.48V21.28C51.3253 22.3733 51.592 23.16 52.1253 23.64C52.6586 24.0933 53.432 24.32 54.4453 24.32C55.0586 24.32 55.552 24.2667 55.9253 24.16C56.3253 24.0533 56.632 23.9467 56.8453 23.84V9.64C57.1386 9.56 57.552 9.48 58.0853 9.4C58.6453 9.32 59.2453 9.28 59.8853 9.28C61.2186 9.28 62.1786 9.50667 62.7653 9.96C63.352 10.3867 63.6453 11.2267 63.6453 12.48V24.84C63.6453 26.1733 63.0853 27.1733 61.9653 27.84C61.032 28.4267 59.912 28.8667 58.6053 29.16C57.3253 29.48 55.9253 29.64 54.4053 29.64C52.9653 29.64 51.632 29.48 50.4053 29.16C49.2053 28.84 48.1653 28.3467 47.2853 27.68C46.4053 27.0133 45.7253 26.16 45.2453 25.12C44.7653 24.0533 44.5253 22.7733 44.5253 21.28V9.64ZM81.8309 28.2C81.4576 28.52 80.8709 28.8 80.0709 29.04C79.2976 29.28 78.4443 29.4 77.5109 29.4C76.3909 29.4 75.4309 29.24 74.6309 28.92C73.8309 28.5733 73.2843 28.1067 72.9909 27.52C72.6976 26.9067 72.3376 26.12 71.9109 25.16C71.4843 24.1733 71.0309 23.08 70.5509 21.88C70.0976 20.68 69.6176 19.4133 69.1109 18.08C68.6309 16.72 68.1643 15.3467 67.7109 13.96C67.2576 12.5733 66.8309 11.2133 66.4309 9.88C66.0309 8.54667 65.6843 7.29333 65.3909 6.12C65.7643 5.74667 66.2976 5.41333 66.9909 5.12C67.7109 4.8 68.4709 4.64 69.2709 4.64C70.2576 4.64 71.0576 4.85333 71.6709 5.28C72.3109 5.68 72.7776 6.44 73.0709 7.56C73.7909 10.1733 74.5109 12.68 75.2309 15.08C75.9776 17.4533 76.7509 19.9333 77.5509 22.52H77.7909C78.5109 20.0133 79.2443 17.28 79.9909 14.32C80.7643 11.36 81.4976 8.41333 82.1909 5.48C82.6709 5.24 83.1776 5.04 83.7109 4.88C84.2709 4.72 84.8976 4.64 85.5909 4.64C86.5776 4.64 87.4176 4.86667 88.1109 5.32C88.8043 5.74667 89.1509 6.46667 89.1509 7.48C89.1509 8.06667 89.0043 8.92 88.7109 10.04C88.4443 11.16 88.0843 12.4267 87.6309 13.84C87.2043 15.2267 86.7109 16.68 86.1509 18.2C85.6176 19.72 85.0709 21.16 84.5109 22.52C83.9776 23.8533 83.4709 25.04 82.9909 26.08C82.5109 27.0933 82.1243 27.8 81.8309 28.2ZM91.8338 9.84C92.1271 9.76 92.5404 9.68 93.0738 9.6C93.6338 9.52 94.2338 9.48 94.8737 9.48C96.2071 9.48 97.1671 9.70667 97.7538 10.16C98.3404 10.5867 98.6338 11.4267 98.6338 12.68V28.96C98.3404 29.04 97.9138 29.12 97.3538 29.2C96.8204 29.28 96.2338 29.32 95.5938 29.32C94.2604 29.32 93.3004 29.1067 92.7138 28.68C92.1271 28.2267 91.8338 27.3733 91.8338 26.12V9.84ZM91.5138 4.16C91.5138 3.14666 91.8471 2.29333 92.5138 1.6C93.2071 0.906665 94.1138 0.559999 95.2338 0.559999C96.3538 0.559999 97.2471 0.906665 97.9138 1.6C98.6071 2.29333 98.9538 3.14666 98.9538 4.16C98.9538 5.17333 98.6071 6.02667 97.9138 6.72C97.2471 7.41333 96.3538 7.76 95.2338 7.76C94.1138 7.76 93.2071 7.41333 92.5138 6.72C91.8471 6.02667 91.5138 5.17333 91.5138 4.16ZM112.403 8.96C113.549 8.96 114.536 9.10667 115.363 9.4V2.92C115.656 2.84 116.069 2.76 116.603 2.68C117.163 2.6 117.763 2.56 118.403 2.56C119.736 2.56 120.696 2.78667 121.283 3.24C121.869 3.66667 122.163 4.50667 122.163 5.76V24.72C122.163 25.9733 121.576 26.9733 120.403 27.72C119.629 28.2267 118.629 28.6667 117.403 29.04C116.203 29.44 114.803 29.64 113.203 29.64C109.709 29.64 106.989 28.7867 105.043 27.08C103.096 25.3467 102.123 22.7733 102.123 19.36C102.123 17.6 102.389 16.0667 102.923 14.76C103.456 13.4533 104.176 12.3733 105.083 11.52C106.016 10.6667 107.109 10.0267 108.363 9.6C109.616 9.17333 110.963 8.96 112.403 8.96ZM115.403 14.72C115.109 14.5867 114.789 14.48 114.443 14.4C114.096 14.32 113.736 14.28 113.363 14.28C111.976 14.28 110.896 14.7067 110.123 15.56C109.376 16.3867 109.003 17.6533 109.003 19.36C109.003 21.04 109.363 22.28 110.083 23.08C110.803 23.88 111.829 24.28 113.163 24.28C113.643 24.28 114.083 24.2267 114.483 24.12C114.883 24.0133 115.189 23.8933 115.403 23.76V14.72Z" fill="white"/>
</svg>
