<svg width="46" height="46" viewBox="0 0 46 46" fill="none" xmlns="http://www.w3.org/2000/svg">
<circle cx="23" cy="23" r="23" fill="#454248" fill-opacity="0.32"/>
<path d="M30.5 15C30.7761 15 31 15.2239 31 15.5V26.5C31 26.7761 30.7761 27 30.5 27H19.5C19.2239 27 19 26.7761 19 26.5V15.5C19 15.2239 19.2239 15 19.5 15H30.5ZM31 13H19C17.9 13 17 13.9 17 15V27C17 28.1 17.9 29 19 29H31C32.1 29 33 28.1 33 27V15C33 13.9 32.1 13 31 13ZM22.0994 23.2037C22.2996 22.9369 22.6999 22.9373 22.8996 23.2044L23.8029 24.4124C23.9988 24.6744 24.3894 24.6807 24.5938 24.4253L26.2792 22.3185C26.4795 22.0681 26.8603 22.0683 27.0604 22.3188L29.3516 25.188C29.6131 25.5154 29.3799 26 28.9609 26H21.0006C20.5885 26 20.3533 25.5294 20.6007 25.1998L22.0994 23.2037ZM13.5 17C13.2239 17 13 17.2239 13 17.5V31C13 32.1 13.9 33 15 33H28.5C28.7761 33 29 32.7761 29 32.5V31.5C29 31.2239 28.7761 31 28.5 31H15.5C15.2239 31 15 30.7761 15 30.5V17.5C15 17.2239 14.7761 17 14.5 17H13.5Z" fill="#F2F2F2"/>
</svg>
