<svg width="44" height="76" viewBox="0 0 44 76" fill="none" xmlns="http://www.w3.org/2000/svg">
<path fill-rule="evenodd" clip-rule="evenodd" d="M60.0139 51.9738C63.8592 46.9684 66.0843 40.5385 65.2425 34.283C64.6463 29.8526 62.5718 25.7287 59.9389 22.116C57.0803 18.1938 53.532 14.7756 49.5058 12.0655C47.99 11.0452 46.3806 10.1133 44.6103 9.66086C41.6968 8.91622 38.6198 9.52848 35.7122 10.2961C29.5265 11.929 23.2495 14.4552 19.1562 19.372C16.3669 22.7224 14.8185 26.9176 13.5456 31.0871C12.5459 34.3617 11.6787 37.7123 11.5595 41.134C11.2962 48.695 14.9647 56.2862 21.0527 60.7777C27.1407 65.2693 31.8264 67.1782 45.1186 63.3776C50.818 60.6653 56.1686 56.9791 60.0139 51.9738ZM34.0553 49.0903C34.8588 48.3883 35.8727 47.8186 36.2624 46.8254C37.0587 44.7962 34.7453 42.9335 32.6815 42.2318C26.7739 40.2233 19.9725 41.0432 14.7115 44.3981C13.4085 42.1157 15.0207 39.1508 17.2072 37.6927C19.3937 36.2346 22.0662 35.683 24.3445 34.3729C25.4783 33.7209 26.5661 32.7922 26.883 31.5232C27.4044 29.4353 25.5171 27.3643 23.4219 26.8727C21.3268 26.3811 19.1503 27.0183 17.0931 27.6499C20.3103 22.7736 24.8166 18.7562 30.0286 16.1175C34.1089 14.0518 39.3981 12.9588 43.0075 15.7675C39.1224 17.1631 35.5422 19.401 32.5855 22.2819C31.9583 22.893 31.3105 23.745 31.6281 24.5609C31.8688 25.179 32.5763 25.4758 33.2322 25.5744C36.4862 26.0635 39.3136 23.3848 42.5103 22.6045C42.93 22.502 43.3834 22.4348 43.7854 22.5934C44.573 22.9042 44.808 23.9792 44.4916 24.7646C44.1752 25.55 43.4787 26.1072 42.8108 26.6276C41.4235 27.7083 40.0362 28.7891 38.6489 29.8698C37.6447 30.6522 36.5415 31.6356 36.5922 32.9076C36.6447 34.2236 38.0089 35.1776 39.3237 35.2548C40.6384 35.332 41.8961 34.768 43.0921 34.2164C45.9747 32.8869 48.8573 31.5574 51.7399 30.228C54.1534 29.1148 57.1451 28.0435 59.297 29.6034C61.3226 31.0717 61.3392 34.2966 59.9014 36.3439C58.4636 38.3912 56.0156 39.4707 53.6111 40.1615C51.2065 40.8522 48.6907 41.2647 46.4693 42.4154C45.0197 43.1663 43.5806 44.6219 43.9915 46.2018C44.3089 47.4225 45.5977 48.1104 46.8082 48.4642C50.2974 49.4841 54.2258 48.8799 57.2472 46.8587C56.3767 49.4727 55.0173 51.923 53.2604 54.0453C52.2583 55.2557 51.0512 56.405 49.5284 56.7929C48.0057 57.1808 46.1305 56.5461 45.5876 55.0715C44.7778 52.8719 42.4531 51.5202 40.1323 51.1924C37.8114 50.8645 35.4633 51.3764 33.1753 51.8854C32.5987 50.9877 33.2519 49.7924 34.0553 49.0903ZM31.1368 61.8711C27.4908 61.3578 24.2014 59.4115 21.2678 57.1864C18.0235 54.7256 14.8057 51.1058 15.5832 47.1087C20.4793 43.5451 27.1487 42.5605 32.8657 44.5572C33.3461 44.725 33.8463 44.9321 34.1452 45.3439C34.444 45.7557 34.4333 46.4306 33.9969 46.6922C32.4996 47.5897 31.1161 48.9732 30.9448 50.7105C30.7735 52.4478 32.3967 54.336 34.0797 53.8722C35.9391 53.3597 37.8638 52.8426 39.7726 53.1191C41.6815 53.3957 43.5837 54.6854 43.9453 56.58C44.217 58.0036 45.8475 59.0025 47.2392 58.5979C44.8938 60.7325 41.5296 61.2197 38.3825 61.611C35.9768 61.9101 33.5374 62.2091 31.1368 61.8711ZM34.4855 22.8553C37.2567 20.8372 40.1706 19.0149 43.1981 17.4067C43.9181 17.0242 44.6626 16.648 45.4707 16.5403C46.5619 16.3949 47.6521 16.7522 48.6853 17.1323C52.0233 18.3602 55.4148 20.0133 57.4172 22.9527C58.0564 23.8909 58.5307 24.9295 59.0018 25.9624C59.1409 26.2673 59.2831 26.6038 59.1951 26.9271C59.1071 27.2504 58.6642 27.4779 58.425 27.2433C57.6879 26.5203 56.483 26.6773 55.4872 26.9501C49.6544 28.5483 44.5319 32.3716 38.567 33.3693C38.2726 32.4857 39.1521 31.6876 39.9106 31.1471C41.7171 29.8598 43.4298 28.4408 45.0306 26.9052C45.8564 26.1131 46.7015 25.1843 46.7683 24.042C46.8661 22.3701 45.1518 21.0414 43.4804 20.9355C41.809 20.8295 40.2194 21.5976 38.7311 22.3657C37.2429 23.1339 35.6856 23.9421 34.0109 23.9256C33.7431 23.5791 34.1315 23.1132 34.4855 22.8553ZM52.5365 46.5758C50.8476 47.1842 48.9279 47.7835 47.3217 46.9816C46.4819 46.5622 45.8184 45.4542 46.3815 44.7032C46.5546 44.4724 46.8127 44.3227 47.068 44.1884C51.2636 41.9822 56.7165 42.1739 60.1174 38.8718C59.937 40.2816 59.622 41.6741 59.1782 43.0242C59.046 43.4263 58.8952 43.8369 58.606 44.1459C58.2696 44.5054 57.7879 44.6841 57.3246 44.8509C55.7286 45.4259 54.1326 46.0008 52.5365 46.5758ZM17.396 29.5523C18.7227 29.3014 20.0494 29.0505 21.3761 28.7996C22.427 28.6009 23.7214 28.4897 24.3601 29.3475C24.8306 29.9795 24.6933 30.9134 24.2319 31.552C23.7704 32.1907 23.0546 32.592 22.3424 32.9289C19.8043 34.1298 16.912 34.8403 14.959 36.8577C15.3582 34.8758 15.7573 32.8939 16.1565 30.9119C16.2396 30.4992 16.3466 30.0477 16.6864 29.7992C16.8903 29.6501 17.1477 29.5993 17.396 29.5523Z" fill="#00160A" fill-opacity="0.33"/>
</svg>
