<svg width="123" height="30" viewBox="0 0 123 30" fill="none" xmlns="http://www.w3.org/2000/svg">
<path d="M4.49969 29.12C3.35302 29.12 2.44635 28.7867 1.77969 28.12C1.11302 27.4533 0.779688 26.5467 0.779688 25.4V8.48C0.779688 7.33333 1.11302 6.42666 1.77969 5.76C2.44635 5.09333 3.35302 4.76 4.49969 4.76H17.6997C17.8864 5.05333 18.0464 5.42667 18.1797 5.88C18.3397 6.33333 18.4197 6.84 18.4197 7.4C18.4197 8.38667 18.2064 9.10667 17.7797 9.56C17.353 10.0133 16.7664 10.24 16.0197 10.24H7.57969V13.96H16.5797C16.7664 14.2533 16.9264 14.6267 17.0597 15.08C17.2197 15.5333 17.2997 16.04 17.2997 16.6C17.2997 17.5867 17.0864 18.3067 16.6597 18.76C16.233 19.1867 15.6464 19.4 14.8997 19.4H7.57969V23.6H17.8597C18.0464 23.8933 18.2064 24.28 18.3397 24.76C18.4997 25.24 18.5797 25.76 18.5797 26.32C18.5797 27.3067 18.3664 28.0267 17.9397 28.48C17.513 28.9067 16.9264 29.12 16.1797 29.12H4.49969ZM31.0278 8.96C32.1745 8.96 33.1611 9.10667 33.9878 9.4V2.92C34.2811 2.84 34.6945 2.76 35.2278 2.68C35.7878 2.6 36.3878 2.56 37.0278 2.56C38.3611 2.56 39.3211 2.78667 39.9078 3.24C40.4945 3.66667 40.7878 4.50667 40.7878 5.76V24.72C40.7878 25.9733 40.2011 26.9733 39.0278 27.72C38.2545 28.2267 37.2545 28.6667 36.0278 29.04C34.8278 29.44 33.4278 29.64 31.8278 29.64C28.3345 29.64 25.6145 28.7867 23.6678 27.08C21.7211 25.3467 20.7478 22.7733 20.7478 19.36C20.7478 17.6 21.0145 16.0667 21.5478 14.76C22.0811 13.4533 22.8011 12.3733 23.7078 11.52C24.6411 10.6667 25.7345 10.0267 26.9878 9.6C28.2411 9.17333 29.5878 8.96 31.0278 8.96ZM34.0278 14.72C33.7345 14.5867 33.4145 14.48 33.0678 14.4C32.7211 14.32 32.3611 14.28 31.9878 14.28C30.6011 14.28 29.5211 14.7067 28.7478 15.56C28.0011 16.3867 27.6278 17.6533 27.6278 19.36C27.6278 21.04 27.9878 22.28 28.7078 23.08C29.4278 23.88 30.4545 24.28 31.7878 24.28C32.2678 24.28 32.7078 24.2267 33.1078 24.12C33.5078 24.0133 33.8145 23.8933 34.0278 23.76V14.72ZM45.0253 9.64C45.3186 9.56 45.732 9.48 46.2653 9.4C46.8253 9.32 47.4253 9.28 48.0653 9.28C49.3986 9.28 50.3586 9.50667 50.9453 9.96C51.532 10.3867 51.8253 11.2267 51.8253 12.48V21.28C51.8253 22.3733 52.092 23.16 52.6253 23.64C53.1586 24.0933 53.932 24.32 54.9453 24.32C55.5586 24.32 56.052 24.2667 56.4253 24.16C56.8253 24.0533 57.132 23.9467 57.3453 23.84V9.64C57.6386 9.56 58.052 9.48 58.5853 9.4C59.1453 9.32 59.7453 9.28 60.3853 9.28C61.7186 9.28 62.6786 9.50667 63.2653 9.96C63.852 10.3867 64.1453 11.2267 64.1453 12.48V24.84C64.1453 26.1733 63.5853 27.1733 62.4653 27.84C61.532 28.4267 60.412 28.8667 59.1053 29.16C57.8253 29.48 56.4253 29.64 54.9053 29.64C53.4653 29.64 52.132 29.48 50.9053 29.16C49.7053 28.84 48.6653 28.3467 47.7853 27.68C46.9053 27.0133 46.2253 26.16 45.7453 25.12C45.2653 24.0533 45.0253 22.7733 45.0253 21.28V9.64ZM82.3309 28.2C81.9576 28.52 81.3709 28.8 80.5709 29.04C79.7976 29.28 78.9443 29.4 78.0109 29.4C76.8909 29.4 75.9309 29.24 75.1309 28.92C74.3309 28.5733 73.7843 28.1067 73.4909 27.52C73.1976 26.9067 72.8376 26.12 72.4109 25.16C71.9843 24.1733 71.5309 23.08 71.0509 21.88C70.5976 20.68 70.1176 19.4133 69.6109 18.08C69.1309 16.72 68.6643 15.3467 68.2109 13.96C67.7576 12.5733 67.3309 11.2133 66.9309 9.88C66.5309 8.54667 66.1843 7.29333 65.8909 6.12C66.2643 5.74667 66.7976 5.41333 67.4909 5.12C68.2109 4.8 68.9709 4.64 69.7709 4.64C70.7576 4.64 71.5576 4.85333 72.1709 5.28C72.8109 5.68 73.2776 6.44 73.5709 7.56C74.2909 10.1733 75.0109 12.68 75.7309 15.08C76.4776 17.4533 77.2509 19.9333 78.0509 22.52H78.2909C79.0109 20.0133 79.7443 17.28 80.4909 14.32C81.2643 11.36 81.9976 8.41333 82.6909 5.48C83.1709 5.24 83.6776 5.04 84.2109 4.88C84.7709 4.72 85.3976 4.64 86.0909 4.64C87.0776 4.64 87.9176 4.86667 88.6109 5.32C89.3043 5.74667 89.6509 6.46667 89.6509 7.48C89.6509 8.06667 89.5043 8.92 89.2109 10.04C88.9443 11.16 88.5843 12.4267 88.1309 13.84C87.7043 15.2267 87.2109 16.68 86.6509 18.2C86.1176 19.72 85.5709 21.16 85.0109 22.52C84.4776 23.8533 83.9709 25.04 83.4909 26.08C83.0109 27.0933 82.6243 27.8 82.3309 28.2ZM92.3338 9.84C92.6271 9.76 93.0404 9.68 93.5738 9.6C94.1338 9.52 94.7338 9.48 95.3737 9.48C96.7071 9.48 97.6671 9.70667 98.2538 10.16C98.8404 10.5867 99.1338 11.4267 99.1338 12.68V28.96C98.8404 29.04 98.4138 29.12 97.8538 29.2C97.3204 29.28 96.7338 29.32 96.0938 29.32C94.7604 29.32 93.8004 29.1067 93.2138 28.68C92.6271 28.2267 92.3338 27.3733 92.3338 26.12V9.84ZM92.0138 4.16C92.0138 3.14666 92.3471 2.29333 93.0138 1.6C93.7071 0.906665 94.6138 0.559999 95.7338 0.559999C96.8538 0.559999 97.7471 0.906665 98.4138 1.6C99.1071 2.29333 99.4538 3.14666 99.4538 4.16C99.4538 5.17333 99.1071 6.02667 98.4138 6.72C97.7471 7.41333 96.8538 7.76 95.7338 7.76C94.6138 7.76 93.7071 7.41333 93.0138 6.72C92.3471 6.02667 92.0138 5.17333 92.0138 4.16ZM112.903 8.96C114.049 8.96 115.036 9.10667 115.863 9.4V2.92C116.156 2.84 116.569 2.76 117.103 2.68C117.663 2.6 118.263 2.56 118.903 2.56C120.236 2.56 121.196 2.78667 121.783 3.24C122.369 3.66667 122.663 4.50667 122.663 5.76V24.72C122.663 25.9733 122.076 26.9733 120.903 27.72C120.129 28.2267 119.129 28.6667 117.903 29.04C116.703 29.44 115.303 29.64 113.703 29.64C110.209 29.64 107.489 28.7867 105.543 27.08C103.596 25.3467 102.623 22.7733 102.623 19.36C102.623 17.6 102.889 16.0667 103.423 14.76C103.956 13.4533 104.676 12.3733 105.583 11.52C106.516 10.6667 107.609 10.0267 108.863 9.6C110.116 9.17333 111.463 8.96 112.903 8.96ZM115.903 14.72C115.609 14.5867 115.289 14.48 114.943 14.4C114.596 14.32 114.236 14.28 113.863 14.28C112.476 14.28 111.396 14.7067 110.623 15.56C109.876 16.3867 109.503 17.6533 109.503 19.36C109.503 21.04 109.863 22.28 110.583 23.08C111.303 23.88 112.329 24.28 113.663 24.28C114.143 24.28 114.583 24.2267 114.983 24.12C115.383 24.0133 115.689 23.8933 115.903 23.76V14.72Z" fill="#575066"/>
</svg>
