<svg width="269" height="237" viewBox="0 0 269 237" fill="none" xmlns="http://www.w3.org/2000/svg">
<path fill-rule="evenodd" clip-rule="evenodd" d="M157.798 236.758C219.69 236.758 228.464 209.223 237.848 204.164C247.232 199.104 241.398 188.95 247.553 181.291C257.384 169.058 263.342 175.362 266.596 159.492C269.85 143.622 263.935 139.132 263.935 124.963C263.935 96.5745 277.534 83.1364 260.167 68.2833C242.801 53.4303 213.801 55.1828 185.118 55.1828C131.881 55.1828 99.9876 -17.7972 28.982 4.09764C4.51192 11.6431 7.21637 21.9257 12.5931 58.2642C14.928 74.0441 -2.70101 94.1068 0.357704 112.039C5.94407 144.79 20.698 140.348 48.5353 162.46C53.2053 166.17 60.0167 166.132 65.1079 169.937C73.6434 176.315 74.1923 186.234 90.1495 192.924C115.88 203.711 113.698 236.758 157.798 236.758Z" fill="#672DE3"/>
<ellipse cx="39.4775" cy="152.217" rx="15.6479" ry="14.7145" fill="white"/>
<path fill-rule="evenodd" clip-rule="evenodd" d="M33.3413 99.7532C30.6738 93.0911 33.0039 89.0996 34.4975 83.889C35.7452 79.5364 45.502 72.4663 49.9924 79.8384C51.3135 82.0072 50.7835 84.0573 53.6707 85.9634C60.66 90.5776 56.8471 81.0047 57.107 78.5847C57.2338 77.4042 56.2364 74.682 56.6078 73.5427C56.9974 72.3474 59.074 70.6491 59.074 68.1712C59.074 65.6933 54.8499 64.739 53.6707 64.1302C43.1922 58.72 36.5282 49.6836 39.8491 45.0975C44.4761 38.7079 62.6099 48.7613 68.0586 49.6836C68.1291 49.6956 69.1023 44.6156 69.897 43.4525C71.4872 41.1252 73.2446 38.8661 75.3413 36.9823C76.2804 36.1384 77.5534 35.6175 78.8047 35.4486C82.5493 34.9434 86.3801 34.5291 90.1309 34.9867C91.4562 35.1484 99.3491 26.0135 102.427 23.0669C126.039 0.459474 173.373 28.0089 147.571 65.4445C142.829 72.3251 136.765 74.5132 135.982 76.945C134.242 82.3466 145.194 81.6363 149.832 82.2132C157.757 83.1989 161.663 87.2699 156.744 94.2475C153.679 98.5943 135.7 98.3726 127.824 95.2292C124.901 94.0625 121.288 88.9614 118.526 93.146C116.622 96.0291 109.2 102.146 101.239 105.606C97.6448 107.168 93.5517 106.227 90.485 107.622C86.1685 109.585 73.4255 117.828 68.0586 117.826C62.6535 117.824 55.659 111.32 54.8499 110.893C53.6165 110.243 44.0753 108.379 39.3618 101.105C37.9365 98.9054 34.3178 102.192 33.3413 99.7532Z" fill="white"/>
<circle cx="230.235" cy="56.3426" r="21.8419" fill="white"/>
<ellipse cx="161.939" cy="180.253" rx="63.4679" ry="54.2464" fill="white"/>
<path fill-rule="evenodd" clip-rule="evenodd" d="M108.132 209.831L108.845 210.347C107.237 211.79 104.818 209.996 103.463 208.315C101.282 205.611 99.0693 202.738 98.4057 199.329C98.0282 197.389 98.1793 195.39 98.3318 193.419L98.9469 185.474C99.2195 181.954 99.4929 178.427 100.102 174.948C101.752 165.535 105.904 156.572 112.017 149.227L112.079 149.153C113.158 147.856 114.337 146.441 114.316 144.76C114.272 141.203 116.321 137.879 119.01 135.551C121.699 133.223 124.992 131.729 128.234 130.267C129.703 129.604 131.621 129.011 132.759 130.151C135.101 132.497 139.008 131.003 142.101 129.811C145.898 128.349 149.954 127.561 154.023 127.495C154.141 127.493 154.261 127.491 154.381 127.489C156.824 127.455 159.573 127.415 161.064 125.523C162.013 124.318 163.827 124.388 165.35 124.57L175.824 125.823C176.625 125.918 177.584 126.137 177.837 126.902C178.513 128.955 180.9 129.793 182.97 130.417C190.327 132.635 197.518 135.647 203.764 140.123C210.01 144.599 215.289 150.62 218.09 157.776C213.535 151.551 208.863 145.208 202.543 140.788C200.734 139.523 198.81 138.43 196.857 137.401C192.248 134.971 187.452 132.877 182.469 131.356C159.337 124.296 132.578 130.844 115.321 147.789C112.819 150.246 110.473 152.952 109.053 156.159L110.928 156.74C107.957 158.069 105.75 160.978 105.272 164.197C106.468 162.149 108.172 160.401 110.189 159.153C109.612 161.081 108.111 162.63 106.639 164.149C104.763 166.085 102.936 167.971 103.13 170.528C104.02 168.192 106.263 166.428 108.744 166.113C104.809 169.958 100.587 174.471 100.712 179.971C102.147 176.795 104.585 174.08 107.589 172.313L103.264 178.124C101.629 180.322 99.9063 182.833 100.28 185.547C101.703 182.994 103.737 180.784 106.164 179.155C104.995 181.813 103.327 184.25 101.271 186.301C103.226 186.065 105.108 185.255 106.623 183.998C105.988 184.885 105.416 185.886 105.394 186.977C105.373 188.068 106.08 189.238 107.159 189.395C107.486 188.664 108.511 188.356 109.187 188.785C107.138 190.778 107.117 194.472 109.143 196.489C109.323 195.541 110.123 194.742 111.071 194.563C109.559 197.205 109.288 200.523 110.349 203.376C110.67 201.759 111.567 200.263 112.841 199.219C112.107 203.053 110.482 206.714 108.132 209.831ZM107.237 208.61C108.517 208.597 109.313 207.165 109.446 205.893C109.606 204.371 109.227 202.849 108.852 201.365L106.627 192.563C106.208 192.696 106.159 193.151 106.108 193.629C106.065 194.036 106.02 194.459 105.741 194.71C105.178 194.01 105.114 192.949 105.589 192.186C106.068 191.416 105.755 190.337 105.074 189.736C104.394 189.135 103.447 188.932 102.54 188.902C102.05 188.885 101.529 188.923 101.128 189.205C100.726 189.488 100.515 190.088 100.8 190.487C101.648 191.675 102.287 193.013 102.676 194.42C102.705 194.526 102.734 194.632 102.762 194.739L102.762 194.739C102.956 195.47 103.155 196.221 103.689 196.742C104.102 197.144 104.208 197.758 104.292 198.329L104.972 202.954C105.095 203.796 105.219 204.655 105.077 205.494C104.936 206.333 104.482 207.165 103.721 207.546L106.152 208.372C106.504 208.492 106.865 208.614 107.237 208.61ZM133.726 132.799C133.247 132.9 132.845 132.479 132.502 132.12L132.463 132.079C132.112 131.711 131.507 131.391 131.137 131.739C126.824 135.797 121.916 139.221 116.619 141.868C115.657 142.348 115.528 143.643 115.528 144.718C115.527 145.077 115.871 145.581 116.095 145.3C117.187 143.932 118.608 142.869 120.012 141.823C123.962 138.878 127.959 135.905 132.488 133.963C133.037 133.728 133.68 133.395 133.726 132.799ZM177.075 128.235C176.831 127.662 176.136 127.455 175.523 127.339C173.854 127.025 172.154 126.882 170.457 126.74C168.126 126.544 165.798 126.349 163.554 125.709C162.835 125.504 162.221 126.232 161.827 126.867C163.009 126.744 164.199 126.693 165.387 126.715C167.456 126.753 169.513 127.011 171.566 127.268C172.609 127.399 173.66 127.531 174.66 127.855C174.777 127.893 174.894 127.933 175.012 127.973C175.695 128.208 176.401 128.45 177.075 128.235ZM154.993 137.052C155.466 137.16 155.917 137.513 155.987 137.993C156.057 138.471 155.731 138.938 155.313 139.181C154.895 139.425 154.401 139.493 153.921 139.557L152.478 139.748C152.333 139.767 152.184 139.788 152.059 139.862C151.696 140.077 151.721 140.659 152.018 140.959C152.314 141.258 152.769 141.333 153.191 141.332C155.154 141.328 157.013 139.915 157.613 138.045C157.755 137.601 157.831 137.108 157.654 136.676C157.565 136.457 157.415 136.267 157.249 136.099C156.477 135.316 155.326 134.971 154.23 135.049C153.133 135.126 152.09 135.593 151.197 136.236C150.769 136.543 150.362 136.904 150.119 137.371C149.876 137.839 149.824 138.433 150.096 138.884C150.199 139.056 150.359 139.209 150.558 139.241C150.756 139.274 150.985 139.146 151.01 138.946C151.078 138.392 151.483 137.923 151.965 137.641C152.448 137.359 153.004 137.235 153.552 137.126C154.027 137.031 154.521 136.944 154.993 137.052ZM116.297 164.48C116.836 161.288 119.414 158.694 122.419 157.492C124.075 156.829 125.97 156.539 127.635 157.177C128.046 157.334 128.444 157.552 128.74 157.878C129.019 158.183 129.194 158.569 129.326 158.961C130.172 161.471 129.313 164.373 127.495 166.299C125.678 168.225 123.031 169.235 120.39 169.425C119.544 169.485 118.635 169.451 117.936 168.97C117.237 168.489 116.89 167.421 117.428 166.765C117.683 166.777 117.82 167.004 117.96 167.236C118.03 167.352 118.1 167.468 118.186 167.56C118.479 167.876 118.964 167.899 119.395 167.881C121.268 167.802 123.169 167.338 124.694 166.247C126.218 165.156 127.314 163.374 127.282 161.5C127.271 160.896 127.14 160.278 126.798 159.78C126.236 158.963 125.174 158.594 124.185 158.659C123.196 158.725 122.268 159.163 121.426 159.686C120.317 160.374 119.293 161.239 118.598 162.343C117.903 163.448 117.563 164.813 117.857 166.084C117.598 166.552 116.826 166.459 116.507 166.028C116.188 165.598 116.208 165.008 116.297 164.48ZM133.546 190.782C132.176 191.664 131.04 193.044 130.829 194.66C130.658 195.967 131.096 197.269 131.527 198.514C131.864 199.487 132.213 200.48 132.854 201.284C134.014 202.736 135.933 203.337 137.768 203.632C138.268 203.713 139.026 203.487 138.847 203.013C136.91 202.978 135.005 202.08 133.744 200.609C132.484 199.138 131.888 197.117 132.15 195.198C132.205 194.794 132.297 194.392 132.467 194.021C132.81 193.271 133.45 192.695 134.142 192.247C135.633 191.284 137.448 190.833 139.216 190.985C140.921 191.133 142.624 191.88 143.665 193.238C144.706 194.597 144.954 196.601 144.035 198.045C143.886 198.279 143.777 198.694 144.051 198.743C145.529 197.947 146.35 196.19 146.267 194.513C146.184 192.836 145.298 191.266 144.081 190.108C143.408 189.468 142.611 188.927 141.708 188.71C140.517 188.423 139.272 188.719 138.088 189.03C136.512 189.445 134.917 189.901 133.546 190.782ZM200.846 192.866C195.891 191.016 190.507 190.326 185.245 190.868C183.039 191.095 180.825 191.545 178.842 192.538C175.1 194.411 172.424 198.266 171.979 202.428C171.533 206.589 173.333 210.924 176.594 213.546C177.831 214.54 179.235 215.285 180.641 216.031C181.6 216.539 182.561 217.049 183.47 217.639C183.729 217.887 183.145 218.134 182.804 218.024C179.625 216.998 176.539 215.438 174.272 212.985C171.514 210.002 170.168 205.765 170.7 201.737C171.232 197.709 173.631 193.966 177.069 191.801C179.789 190.089 183.04 189.367 186.252 189.251C189.463 189.136 192.666 189.594 195.842 190.087C197.825 190.394 200.151 190.983 200.846 192.866ZM148.706 199.075C148.481 198.559 147.577 198.425 147.411 198.962C146.36 202.383 143.022 204.97 139.447 205.133C138.639 205.171 137.831 205.095 137.026 205.018C135.292 204.85 133.503 204.652 131.985 203.798C129.801 202.57 128.487 200.049 128.472 197.544C128.456 195.039 129.644 192.604 131.449 190.866C131.198 190.165 130.123 190.504 129.589 191.023C126.63 193.899 126.122 198.864 128.199 202.43C130.275 205.996 134.626 207.995 138.728 207.542C142.83 207.088 146.533 204.342 148.439 200.682C148.699 200.183 148.931 199.59 148.706 199.075ZM123.021 216.396C122.353 218.959 122.289 221.677 122.837 224.267C123.083 225.429 123.11 226.07 123.115 226.189L123.116 226.207C123.116 226.209 123.116 226.21 123.116 226.21C123.116 226.21 123.117 226.203 123.117 226.189C123.123 226.069 123.152 225.427 123.403 224.263C123.963 221.667 123.83 218.925 123.021 216.396ZM126.571 217.946C125.621 219.936 125.739 222.398 126.874 224.288C127.128 224.712 127.322 225.057 127.464 225.312L127.465 225.312L127.465 225.312C127.657 225.655 127.757 225.834 127.792 225.822C127.829 225.809 127.789 225.569 127.705 225.066C127.671 224.865 127.63 224.621 127.584 224.333L126.571 217.946ZM129.244 220.487C128.841 221.757 129.137 223.226 130.001 224.241C130.883 225.277 131.171 225.609 130.903 224.275C130.628 222.913 130.058 221.612 129.244 220.487ZM206.59 206.037C205.378 210.902 201.507 214.589 197.753 217.913C197.925 218.283 198.479 218.15 198.835 217.95C202.637 215.811 205.713 212.323 207.117 208.192C208.52 204.062 208.171 199.315 205.956 195.557C205.77 195.242 205.533 194.906 205.173 194.836C204.814 194.765 204.4 195.182 204.611 195.481C206.741 198.497 207.483 202.454 206.59 206.037ZM151.928 162.107C151.919 161.337 151.93 160.504 152.395 159.891C153.035 159.046 154.249 158.957 155.309 158.943C155.782 158.936 156.26 158.93 156.72 159.039C157.7 159.272 158.481 159.996 159.176 160.724C159.33 160.885 159.494 161.084 159.456 161.304C159.409 161.577 159.067 161.702 158.796 161.646C158.616 161.609 158.455 161.52 158.293 161.43L158.293 161.43L158.293 161.43L158.293 161.43L158.293 161.43L158.293 161.43L158.293 161.43L158.293 161.43L158.293 161.43L158.293 161.43L158.293 161.43L158.293 161.43L158.292 161.43L158.292 161.43L158.292 161.43C158.211 161.384 158.129 161.339 158.045 161.3C157.071 160.853 155.925 161.343 155.05 161.963C154.913 162.06 154.764 162.185 154.761 162.353C154.758 162.523 154.903 162.654 155.039 162.754C156.222 163.62 157.736 164.021 159.192 163.854C159.54 163.814 159.95 163.686 160.04 163.348C160.075 163.215 160.061 163.06 160.048 162.909C160.026 162.658 160.005 162.421 160.217 162.334C160.327 162.288 160.452 162.321 160.566 162.354C161.354 162.583 162.276 162.952 162.429 163.759C162.473 163.992 162.442 164.235 162.367 164.46C162.15 165.119 161.545 165.634 160.86 165.743C160.555 165.792 160.244 165.765 159.937 165.739C159.135 165.67 158.332 165.601 157.537 165.473C156.077 165.238 154.65 164.803 153.307 164.184C152.841 163.969 152.357 163.705 152.121 163.25C151.941 162.904 151.933 162.497 151.928 162.107ZM181.909 143.128C181.44 141.859 180.306 140.859 178.99 140.551C178.582 140.455 178.122 140.432 177.777 140.668C177.431 140.904 177.313 141.479 177.642 141.737C177.961 141.987 177.768 142.576 177.378 142.687C176.988 142.798 176.568 142.533 176.373 142.178C176.178 141.822 176.158 141.399 176.155 140.993C176.152 140.452 176.202 139.848 176.602 139.483C176.754 139.344 176.944 139.254 177.132 139.17C177.911 138.822 178.773 138.527 179.606 138.714C180.399 138.892 181.032 139.478 181.585 140.073C182.039 140.562 182.468 141.074 182.87 141.605C183.225 142.074 183.566 142.574 183.699 143.146C183.832 143.719 183.717 144.383 183.275 144.77C182.842 145.148 182.176 145.181 181.651 144.947C181.187 144.74 180.791 144.285 180.825 143.778C180.86 143.271 181.482 142.851 181.909 143.128ZM186.096 178.778C187.259 178.744 188.343 177.848 188.595 176.712C188.748 176.02 188.559 175.198 187.957 174.826C187.517 174.555 186.963 174.575 186.447 174.608C185.733 174.654 184.991 174.716 184.37 175.073C183.749 175.43 183.288 176.169 183.482 176.858C183.798 177.978 184.932 178.811 186.096 178.778ZM186.245 177.099C186.02 177.159 185.699 177.101 185.679 176.869C185.67 176.773 185.722 176.682 185.782 176.605C186.112 176.177 186.742 176.01 187.241 176.219C187.068 176.644 186.688 176.979 186.245 177.099ZM186.846 159.88C186.657 159.442 187.024 158.933 187.47 158.765C187.827 158.631 188.215 158.645 188.6 158.659C188.696 158.662 188.792 158.666 188.887 158.667C189.363 158.673 189.89 158.593 190.199 158.231C190.308 158.103 190.382 157.915 190.299 157.769C190.212 157.616 190.007 157.589 189.832 157.58C188.617 157.517 187.182 157.555 186.482 158.549C186.332 158.763 185.963 158.691 185.822 158.471C185.682 158.25 185.714 157.961 185.794 157.712C186.081 156.821 186.904 156.172 187.804 155.912C188.703 155.653 189.669 155.735 190.582 155.941C190.89 156.011 191.21 156.103 191.435 156.324C191.613 156.5 191.713 156.741 191.778 156.983C192.089 158.139 191.63 159.464 190.67 160.179C189.71 160.895 188.309 160.957 187.29 160.328C187.108 160.216 186.931 160.076 186.846 159.88ZM182.682 180.314C183.246 180.99 183.914 181.605 184.725 181.949C186.363 182.645 188.457 182.002 189.424 180.507C189.776 179.963 189.933 179.133 189.413 178.747C188.579 180.498 186.161 181.272 184.465 180.33C184.141 180.149 183.845 179.918 183.577 179.661C182.357 178.493 181.721 176.586 182.437 175.057C182.67 174.559 183.028 174.128 183.42 173.741C184.274 172.898 185.496 172.208 186.637 172.583C186.667 172.593 186.697 172.604 186.728 172.615L186.778 172.633C186.938 172.692 187.099 172.751 187.266 172.741C187.484 172.728 187.711 172.534 187.655 172.323C187.639 172.261 187.6 172.207 187.56 172.156C186.855 171.258 185.472 170.981 184.476 171.537C183.289 172.2 182.084 172.98 181.453 174.184C180.427 176.142 181.265 178.616 182.682 180.314ZM201.573 150.103C201.521 150.178 201.534 150.282 201.547 150.382C201.562 150.5 201.575 150.612 201.478 150.66C201.124 150.835 200.699 150.817 200.32 150.701C199.287 150.384 198.595 149.436 198.01 148.527C197.668 147.995 197.328 147.431 197.273 146.801C197.218 146.172 197.539 145.463 198.146 145.285C198.822 145.087 199.485 145.589 200.011 146.058C200.605 146.586 201.211 147.131 201.579 147.836C201.946 148.541 202.028 149.451 201.573 150.103ZM199.327 147.745C199.473 147.886 199.553 148.077 199.632 148.267C199.711 148.454 199.79 148.642 199.931 148.783C200.111 148.962 200.383 149.042 200.631 148.989C200.167 148.27 199.629 147.599 199.028 146.99C198.867 147.038 198.854 147.276 198.951 147.414C199.009 147.497 199.091 147.558 199.174 147.619C199.227 147.659 199.28 147.699 199.327 147.745ZM110.897 212.688C110.84 213.631 110.912 214.724 111.667 215.293C111.919 215.152 111.902 214.793 111.87 214.506C111.675 212.743 112.222 211.043 112.773 209.333C113.167 208.108 113.563 206.878 113.69 205.614C113.727 205.247 113.629 204.746 113.261 204.732C112.985 204.721 112.807 205.012 112.696 205.265C111.665 207.607 111.053 210.133 110.897 212.688ZM184.133 178.666C184.985 179.043 185.93 179.427 186.821 179.157C187.175 179.049 187.491 178.844 187.802 178.642C187.8 179.163 187.352 179.6 186.853 179.749C186.353 179.898 185.816 179.818 185.307 179.708C184.742 179.586 184.05 179.239 184.133 178.666ZM116.751 222.15C116.968 221.763 117.005 221.304 117.037 220.861L117.294 217.334C117.421 215.604 117.547 213.866 117.434 212.134C117.419 211.916 117.397 211.686 117.27 211.508C117.143 211.33 116.873 211.235 116.699 211.367C116.57 211.464 116.538 211.64 116.516 211.8C116.236 213.802 116.087 215.823 116.069 217.845C116.056 219.311 116.123 220.825 116.751 222.15ZM112.896 219.119C112.67 219.31 112.294 219.142 112.169 218.874C112.045 218.606 112.095 218.293 112.148 218.002C112.706 214.958 113.34 211.928 114.047 208.915C114.065 208.84 114.084 208.761 114.133 208.701C114.319 208.471 114.695 208.703 114.827 208.968C115.152 209.617 114.996 210.393 114.834 211.101L113.091 218.705C113.056 218.856 113.015 219.019 112.896 219.119ZM118.934 219.255C118.837 220.396 119.008 221.542 119.179 222.675C119.239 223.078 119.53 223.614 119.894 223.431L120.605 215.835C120.634 215.526 120.653 215.183 120.461 214.939C120.27 214.695 119.785 214.705 119.723 215.009L119.2 217.614C119.09 218.157 118.981 218.702 118.934 219.255ZM192.284 195.974C190.262 194.933 187.801 194.523 185.7 195.395C184.131 196.046 179.696 198.86 179.106 202.467C178.711 204.882 178.715 207.349 179.56 209.681L179.696 210.046C179.948 210.707 180.75 211.465 181.198 210.919C179.889 208.553 179.644 205.623 180.543 203.072C181.442 200.521 183.469 198.391 185.972 197.368C186.499 197.152 187.049 196.983 187.615 196.929C188.761 196.821 189.905 197.192 190.929 197.717C193.134 198.847 195.866 200.726 196.916 202.97C197.928 205.134 198.673 207.714 197.757 209.921C196.841 212.127 190.826 213.723 190.826 213.723L191.491 214.938C191.491 214.938 194.859 214.274 196.916 212.776C205.55 206.487 194.219 196.97 192.284 195.974Z" fill="#00160A"/>
<path fill-rule="evenodd" clip-rule="evenodd" d="M39.6588 164.925C36.6052 165.253 33.371 164.546 30.9868 162.61C29.2983 161.239 28.1118 159.332 27.2793 157.323C26.3754 155.141 25.8557 152.801 25.7512 150.442C25.7119 149.554 25.733 148.649 25.994 147.8C26.4236 146.401 27.458 145.278 28.514 144.266C30.7606 142.111 33.4013 140.145 36.4809 139.692C38.5794 139.383 40.7141 139.804 42.7683 140.333C44.3816 140.748 45.9928 141.237 47.4439 142.056C50.6504 143.863 52.8724 147.312 53.1938 150.979C53.5153 154.646 53.1198 157.075 48.1712 161.631C45.5997 163.31 42.7123 164.597 39.6588 164.925ZM45.0437 153.414C44.5484 153.57 44.0548 153.847 43.5435 153.757C42.499 153.573 42.3121 152.14 42.544 151.105C43.2079 148.142 45.273 145.526 48.0001 144.192C47.3828 143.072 45.7428 142.99 44.5829 143.528C43.423 144.066 42.5162 145.036 41.3945 145.65C40.8363 145.956 40.1748 146.172 39.5675 145.982C38.5683 145.669 38.1869 144.36 38.514 143.365C38.8411 142.37 39.6576 141.628 40.4415 140.934C37.6008 141.034 34.79 141.886 32.3727 143.381C30.4802 144.552 28.6852 146.471 28.9363 148.682C30.501 147.423 32.338 146.504 34.2841 146.006C34.6969 145.901 35.2149 145.848 35.4732 146.187C35.6689 146.443 35.6127 146.812 35.4873 147.11C34.8653 148.585 33.0361 149.08 31.9015 150.209C31.7525 150.358 31.6096 150.529 31.5735 150.736C31.5029 151.142 31.8897 151.512 32.2961 151.58C32.7024 151.648 33.1104 151.5 33.4959 151.354C34.2964 151.052 35.097 150.75 35.8975 150.448C36.4771 150.23 37.1651 150.021 37.6805 150.364C38.2136 150.72 38.2639 151.528 37.9626 152.094C37.6612 152.659 37.1081 153.039 36.5758 153.395C35.2928 154.255 34.0098 155.115 32.7268 155.975C31.6526 156.695 30.4491 157.666 30.5512 158.955C30.6474 160.168 31.9823 160.993 33.197 160.915C34.4117 160.837 35.4807 160.094 36.3773 159.271C37.2738 158.447 38.083 157.507 39.1241 156.877C39.8035 156.465 40.7729 156.237 41.3248 156.808C41.7511 157.249 41.71 157.959 41.55 158.551C41.0888 160.259 39.8418 161.737 38.2363 162.479C39.5425 162.78 40.9047 162.837 42.2315 162.646C42.9882 162.536 43.7716 162.327 44.3188 161.793C44.8659 161.259 45.0778 160.319 44.6032 159.72C43.8951 158.826 43.9233 157.518 44.3756 156.471C44.828 155.424 45.636 154.579 46.4275 153.758C46.2009 153.291 45.5389 153.259 45.0437 153.414ZM51.091 155.443C51.8023 153.799 51.8282 151.94 51.6481 150.157C51.4489 148.186 50.7616 145.932 48.9047 145.242C46.1834 146.371 44.0834 148.891 43.4629 151.771C43.4108 152.013 43.37 152.273 43.4652 152.502C43.5604 152.73 43.8434 152.897 44.0627 152.782C44.815 152.388 45.7403 152.164 46.5052 152.534C47.27 152.903 47.6425 154.056 47.0232 154.637C46.3389 155.279 45.6361 155.948 45.2669 156.81C44.8978 157.673 44.951 158.79 45.646 159.421C46.1683 159.894 46.1697 160.825 45.6487 161.3C47.1298 160.867 48.1852 159.594 49.1457 158.386C49.8799 157.463 50.6226 156.526 51.091 155.443ZM34.0403 146.941C32.4996 147.58 31.0041 148.328 29.5686 149.177C29.2272 149.379 28.8822 149.593 28.6325 149.901C28.2955 150.317 28.1674 150.861 28.0632 151.386C27.7267 153.084 27.5532 154.911 28.2661 156.488C28.4936 156.991 28.8046 157.452 29.1141 157.909C29.2054 158.044 29.3091 158.189 29.4657 158.234C29.6222 158.279 29.829 158.153 29.7922 157.994C29.6789 157.505 30.0496 157.044 30.4154 156.7C32.5581 154.683 35.4446 153.526 37.3714 151.302C37.0791 150.955 36.5247 151.118 36.1079 151.296C35.1153 151.72 34.0918 152.071 33.0482 152.347C32.5099 152.489 31.9099 152.604 31.4186 152.342C30.6996 151.959 30.5825 150.91 30.9623 150.189C31.3421 149.468 32.0642 149.003 32.7605 148.58C33.4568 148.156 34.1873 147.715 34.6051 147.015C34.5291 146.816 34.2372 146.859 34.0403 146.941ZM39.3133 160.451C39.9942 159.904 40.7299 159.259 40.8041 158.389C40.8429 157.934 40.5511 157.377 40.0964 157.421C39.9567 157.434 39.8291 157.503 39.7086 157.575C37.7286 158.758 36.4255 161.071 34.192 161.646C34.8231 161.928 35.4812 162.151 36.1544 162.309C36.3549 162.356 36.5636 162.397 36.7653 162.355C36.9999 162.307 37.1962 162.152 37.383 162.002C38.0264 161.485 38.6699 160.968 39.3133 160.451ZM41.1547 141.543C40.7141 142.03 40.2735 142.517 39.8329 143.004C39.4839 143.39 39.1095 143.9 39.3038 144.383C39.4469 144.738 39.8695 144.918 40.2517 144.888C40.6339 144.859 40.9821 144.663 41.3026 144.453C42.4448 143.703 43.4732 142.682 44.8062 142.383C43.882 142.046 42.9578 141.709 42.0335 141.373C41.8411 141.302 41.6265 141.232 41.4371 141.311C41.3235 141.357 41.2371 141.451 41.1547 141.543Z" fill="#00160A"/>
<path fill-rule="evenodd" clip-rule="evenodd" d="M58.3538 83.3333C58.2386 85.6425 56.4571 88.1431 54.1612 87.8699C53.125 86.6715 52.314 85.184 51.5124 83.7139C49.9731 80.8906 48.4688 78.1315 45.4717 77.6077C42.528 77.0933 39.7866 79.2584 37.9532 81.6182C35.298 85.036 33.5821 89.1761 33.0412 93.4702C32.7232 95.9947 33.7584 99.4957 36.2877 99.2179C39.1767 98.9005 41.2313 101.173 43.321 103.484C45.2551 105.624 47.2193 107.796 49.9031 107.979C53.0986 108.198 55.7088 110.112 58.3509 112.05C60.1156 113.344 61.8946 114.649 63.8717 115.466C67.5911 117.003 71.8801 116.705 75.6767 115.371C79.4733 114.036 82.8521 111.738 86.05 109.295L86.2176 109.166C87.9632 107.831 89.7906 106.434 91.9612 106.14C103.061 104.636 113.384 98.1259 119.524 88.758C128.229 95.7165 140.4 98.0949 151.084 94.9251C152.897 94.3873 154.721 93.6661 156.066 92.3364C157.41 91.0067 158.172 88.9419 157.511 87.1702C156.789 85.2327 154.629 84.1954 152.576 83.9458C151.451 83.8091 150.318 83.8495 149.183 83.89H149.183H149.183H149.183H149.182H149.182H149.182H149.182H149.182C148.247 83.9233 147.311 83.9567 146.379 83.8908C140.735 83.4918 136.036 79.5994 131.762 75.8913C137.954 73.9921 142.974 69.2219 146.289 63.6583C149.603 58.0946 151.38 51.7566 152.729 45.4226C153.44 42.0893 153.967 38.3343 152.063 35.5079C151.211 34.2429 149.961 33.318 148.715 32.3964C147.313 31.3586 145.916 30.3248 145.099 28.8142C143.526 25.9084 140.461 24.1853 137.554 22.6156C129.945 18.5078 121.206 14.28 113.007 17.0234C109.813 18.0919 107.053 20.1396 104.363 22.1661C99.8962 25.5314 95.1107 29.4789 94.2602 35.0067C86.951 31.7366 77.4947 34.3483 72.8998 40.906C71.8488 42.406 71.0419 44.0601 70.2359 45.7125L70.2358 45.7125C69.2869 47.658 68.3391 49.601 66.9953 51.2874C61.5982 48.8284 56.0992 46.5932 50.517 44.5895C48.0421 43.7012 45.0857 42.9161 42.9528 44.454C41.2426 45.6871 40.718 48.1075 41.22 50.1552C41.722 52.2029 43.0622 53.9389 44.4993 55.4815C47.6171 58.8283 51.3623 61.5887 55.4819 63.5762C55.6148 63.6404 55.7487 63.7041 55.8829 63.7681C57.1728 64.3826 58.4988 65.0142 59.3578 66.1422C60.3061 67.3876 60.3649 69.4714 59.0354 70.2977C57.0718 71.5183 56.7102 74.2569 57.1127 76.5337C57.2502 77.3116 57.4522 78.0822 57.6538 78.8517C58.0423 80.3344 58.4297 81.8132 58.3538 83.3333ZM111.665 95.508C106.717 100.704 99.7547 103.743 92.6353 104.632C85.5158 105.52 78.2458 104.365 71.4449 102.079C73.2743 102.078 74.5972 99.6831 73.624 98.1341C69.8758 102.503 64.1616 104.55 58.7166 106.418C53.7975 108.107 47.9177 106.88 44.3044 103.14C40.691 99.3993 39.7132 93.2618 42.2543 88.7241C43.3588 86.7517 45.2322 85.0348 47.4846 84.8412C49.7369 84.6476 52.1622 86.5152 51.9533 88.7662C50.6999 88.5483 49.381 89.6129 49.3294 90.884C54.178 90.3616 58.7364 87.5833 61.4225 83.513C62.3496 82.1082 63.0542 80.5779 63.7593 79.0464L63.7594 79.0464C64.2328 78.0181 64.7066 76.9892 65.2481 75.9972C66.5962 73.5279 68.5319 71.1739 71.2143 70.3255C73.3672 69.6445 75.6943 70.0224 77.9195 70.4061L87.8047 72.1104C88.5445 71.4718 87.3463 70.4482 86.3896 70.2483C83.3001 69.6028 80.1675 69.205 77.0347 68.8071C74.1296 68.4382 71.2242 68.0693 68.3528 67.5027C62.3848 66.3253 56.3865 64.1716 52.0426 59.9132C54.9892 58.2181 57.2309 55.3378 58.1508 52.0653C58.3368 51.4033 57.8935 50.3157 57.3559 50.7445C56.7416 52.8689 56.0758 55.0846 54.5368 56.6726C52.9977 58.2606 50.2964 58.9582 48.5545 57.5958C46.2932 55.8272 43.9157 53.8979 43.0214 51.17C42.1271 48.442 43.5418 44.7784 46.3931 44.4439C47.6728 44.2938 48.9239 44.8226 50.1041 45.34L62.0105 50.5591C65.5541 52.1124 69.1505 53.6813 72.9784 54.2449C75.6661 54.6407 78.3995 54.5296 81.1139 54.4177L88.8088 54.1003C89.1235 54.0873 89.4462 54.0726 89.7358 53.949C90.509 53.6192 90.7711 52.675 90.9417 51.8519C93.0067 41.8875 95.781 31.3721 103.287 24.5006C106.645 21.4258 110.829 19.2609 115.279 18.2952C119.665 17.3432 124.505 17.6231 128.281 20.049C121.946 20.5153 115.795 23.1867 111.13 27.4975C109.17 25.4051 105.521 27.1154 103.958 29.5188C101.535 33.2444 101.579 38.4198 104.065 42.1036C106.158 45.2044 106.934 48.9043 107.712 52.6128C108.427 56.021 109.144 59.4365 110.885 62.4009C113.641 67.0906 118.771 70.1009 124.13 71.0342C129.488 71.9674 135.044 70.9927 140.136 69.0828C134.437 74.7682 125.331 76.7347 117.793 73.9082C117.243 73.7021 116.696 73.472 116.149 73.2416C114.417 72.5122 112.679 71.7804 110.821 71.8021C111.91 72.9547 113.3 73.8199 114.815 74.2874C113.068 77.2211 111.236 80.1037 109.32 82.9302C109.075 83.2917 108.796 83.677 108.377 83.7993C107.91 83.9355 107.422 83.7027 106.996 83.4673C103.475 81.5211 100.319 78.9169 97.7396 75.8294L92.5794 82.1063C95.2275 85.3431 98.3234 88.2131 101.751 90.6087C97.1889 96.2451 90.2766 99.9163 83.0519 100.54C90.5304 100.921 98.1013 97.4132 102.646 91.4619C105.523 93.0773 108.546 94.4332 111.665 95.508ZM135.316 40.3149C136.968 38.513 137.581 35.9392 137.439 33.4983C137.298 31.0575 136.477 28.7101 135.569 26.4403C137.936 26.1597 140.341 27.0527 142.226 28.511C144.112 29.9693 145.528 31.9536 146.69 34.035C148.098 36.5582 149.178 39.2865 149.646 42.1378C150.749 48.8515 148.394 55.6969 145.042 61.6173C144.391 62.7669 143.69 63.9086 142.74 64.8264C141.783 65.7505 140.606 66.4149 139.4 66.9754C134.421 69.2884 128.695 69.9558 123.318 68.8498C126.751 65.9921 129.174 62.0552 130.718 57.8643C132.262 53.6734 132.969 49.2191 133.375 44.7715L133.378 44.7466V44.7465C133.48 43.625 133.588 42.4463 134.227 41.5202C134.439 41.2136 134.701 40.9477 134.963 40.6818L134.963 40.6817C135.082 40.5607 135.201 40.4397 135.316 40.3149ZM129.105 58.8396C127.623 62.3039 125.329 65.485 122.218 67.6111C121.854 67.8601 121.463 68.1003 121.025 68.1515C120.638 68.1967 120.25 68.0901 119.879 67.9728C117.234 67.1381 114.735 65.6583 113.039 63.4646C112.423 62.6685 111.92 61.7905 111.472 60.8895C108.206 54.3277 107.886 46.3665 110.615 39.5638C110.745 39.2389 110.932 38.8741 111.275 38.8059C111.719 38.7178 112.06 39.1722 112.31 39.55C114.348 42.6387 118.159 44.2024 121.856 44.3643C125.553 44.5262 129.19 43.4755 132.696 42.2905C132.057 43.8529 131.894 45.5549 131.733 47.2409V47.241C131.713 47.4533 131.693 47.6654 131.671 47.8769C131.296 51.6259 130.586 55.3752 129.105 58.8396ZM128.352 26.6552C130.244 26.2252 132.451 26.1068 133.896 27.4008C134.363 27.8188 134.71 28.3549 134.996 28.9127C136.786 32.4115 136.085 37.0197 133.335 39.8275C130.155 43.0735 125.123 43.6086 120.596 43.2233C118.972 43.0851 117.301 42.8351 115.914 41.9779C114.12 40.8687 113.057 38.9143 112.075 37.0477C116.437 32.1732 121.973 28.1053 128.352 26.6552ZM143.652 85.4982C143.058 86.9967 142.459 88.5158 142.265 90.1159C142.071 91.7161 142.324 93.4333 143.297 94.7182C135.221 95.165 127.014 92.6748 120.548 87.8155C122.633 84.8649 124.28 81.6049 125.417 78.1757C125.867 76.8211 127.582 76.2561 128.974 76.5696C130.256 76.8584 131.332 77.6807 132.382 78.4828C132.472 78.5519 132.563 78.6209 132.653 78.6893C136.09 81.2991 139.879 83.4034 143.652 85.4982ZM87.2196 105.964C85.946 107.398 84.4238 108.588 82.8689 109.711C79.6234 112.054 76.0841 114.184 72.1393 114.865C66.3582 115.862 60.1123 113.369 56.6077 108.664L69.2173 103.96C69.5192 103.848 69.8319 103.733 70.1536 103.752C70.3353 103.762 70.5101 103.814 70.6853 103.866L70.6853 103.866L70.6855 103.866L70.6857 103.866L70.6859 103.866L70.6861 103.866C70.8024 103.901 70.919 103.936 71.0378 103.958C71.4427 104.035 71.851 103.968 72.2612 103.9C72.5164 103.858 72.7723 103.816 73.0285 103.808C73.9724 103.78 74.8398 104.211 75.698 104.638C75.9159 104.746 76.1332 104.855 76.351 104.955C79.6947 106.492 83.5499 106.244 87.2196 105.964ZM69.0129 52.0125C68.924 51.8137 69.0177 51.585 69.1115 51.3885C71.6939 45.9802 75.11 40.9711 79.2021 36.5924C82.0805 40.5891 83.9961 45.274 84.7427 50.1424C84.8919 51.1155 84.7306 52.4613 83.7536 52.5831C79.0709 53.1668 74.3061 53.0874 69.6454 52.3483C69.399 52.3092 69.1147 52.2402 69.0129 52.0125ZM86.6497 51.6788C85.6855 46.3781 83.6838 41.2681 80.7912 36.7228C83.2395 35.4338 86.1338 35.4127 88.9007 35.4214C90.6481 35.4269 92.5557 35.4884 93.8873 36.6199L90.433 46.8122C89.8466 48.5425 89.2527 50.3213 89.3267 52.1468L87.1432 52.1818C87.0654 52.183 86.9851 52.1838 86.9133 52.1538C86.7386 52.0809 86.6836 51.865 86.6497 51.6788ZM114.745 77.762C115.325 76.7753 115.877 75.7213 115.936 74.5783C118.548 75.7533 121.425 76.3355 124.289 76.2687C124.739 76.2582 124.722 76.9513 124.538 77.3614C123.981 78.6025 123.422 79.8448 122.777 81.0427C122.115 82.2721 121.363 83.4507 120.612 84.628L118.811 87.4499C118.565 87.8362 118.311 88.2312 117.944 88.5065C116.962 89.2453 115.559 88.89 114.437 88.3862C112.577 87.5505 110.865 86.3865 109.404 84.9642C111.433 82.7625 113.227 80.3435 114.745 77.762ZM47.1884 80.2003C48.0539 81.073 48.6196 82.1915 49.1711 83.29L46.5744 83.6604C45.7092 83.7838 44.8221 83.9143 44.0573 84.3374C43.3133 84.749 42.7395 85.4089 42.2345 86.093C40.1226 88.9541 38.9521 92.4985 38.9447 96.0546C38.9421 97.3391 37.424 98.2554 36.1815 97.9298C34.939 97.6041 34.0949 96.37 33.8802 95.1036C33.6654 93.8372 33.9679 92.5424 34.3472 91.3152C35.6822 86.9968 38.0703 82.9183 41.6035 80.0991C42.2786 79.5605 43.0245 79.0562 43.8773 78.9199C45.0911 78.726 46.3228 79.3276 47.1884 80.2003ZM156.234 87.4292C156.534 87.8151 156.757 88.2851 156.743 88.774C156.726 89.4057 156.325 89.9596 155.894 90.4217C153.387 93.1079 149.535 94.0225 145.886 94.4536C145.646 94.482 145.393 94.5076 145.168 94.4193C144.982 94.3468 144.834 94.2041 144.701 94.0553C143.821 93.0653 143.472 91.6814 143.544 90.3586C143.615 89.0358 144.072 87.7617 144.64 86.5651C144.76 86.313 144.898 86.0485 145.143 85.9133C145.337 85.8054 145.57 85.797 145.792 85.7911L150.208 85.6753C151.295 85.6468 152.395 85.6193 153.459 85.8435C154.523 86.0677 155.566 86.571 156.234 87.4292ZM107.019 45.7049C105.22 42.3709 103.874 38.7928 103.029 35.0996L103.756 33.1579C104.656 31.4169 105.789 29.797 107.117 28.3558C107.658 27.7689 108.595 27.704 109.342 27.9868C110.088 28.2696 110.688 28.8319 111.268 29.3808L113.875 31.8509C113.952 31.9243 114.033 32.0036 114.059 32.1072C114.108 32.3022 113.947 32.4808 113.801 32.6193C112.58 33.7801 111.495 35.0889 110.626 36.5316C109.311 38.7122 108.508 41.1559 107.716 43.5758L107.019 45.7049ZM113.683 26.9801C118.991 24.1371 124.797 21.4618 130.785 22.1015C133.915 22.436 136.909 23.6814 139.517 25.4455C132.047 23.5255 123.721 25.2965 117.68 30.0905C116.746 30.8314 115.345 31.6362 114.514 30.7819C114.3 30.5626 114.161 30.2553 114.025 29.9559C113.807 29.4763 113.598 29.017 113.11 28.9721C112.645 28.9292 112.438 28.2976 112.635 27.8739C112.833 27.4501 113.27 27.2008 113.683 26.9801ZM99.1 78.9803C100.148 79.987 101.301 80.8758 102.453 81.7624L107.103 85.3443C105.671 86.6063 104.27 87.9035 102.901 89.2342C99.643 87.3031 96.7347 84.7834 94.359 81.8335C95.6594 80.479 96.9078 79.0745 98.1003 77.6241C98.2876 78.1593 98.6911 78.5875 99.1 78.9803ZM69.1979 69.2919C66.7491 71.205 64.2174 73.2188 62.8705 76.0191C62.6073 76.5663 62.3899 77.1421 62.1728 77.717L62.1728 77.7171C61.7114 78.9392 61.2515 80.1573 60.3568 81.0876C59.9602 80.9711 59.8042 80.5036 59.7076 80.1018L58.7758 76.2259C58.65 75.703 58.5234 75.1655 58.5949 74.6325C58.666 74.1018 58.9276 73.6185 59.1846 73.1488L61.9186 68.1525C61.9795 68.0411 62.0427 67.927 62.1404 67.8458C62.3823 67.6449 62.7402 67.7089 63.0456 67.7838L69.1979 69.2919ZM108.979 86.4554C110.649 88.1723 112.724 89.4922 114.987 90.2764C115.411 89.8782 116.229 90.0978 116.396 90.6544C115.617 91.6649 114.762 92.6165 113.84 93.4987C113.429 93.8926 112.77 93.8095 112.214 93.682C109.502 93.0595 106.89 92.0045 104.506 90.5692C104.346 90.4731 104.167 90.3366 104.183 90.1511C104.193 90.0263 104.291 89.9294 104.384 89.8445L107.731 86.7619C108.082 86.4387 108.646 86.1134 108.979 86.4554ZM151.713 43.3921C151.682 43.7698 151.628 44.1914 151.333 44.429C151.331 41.4618 150.595 38.498 149.209 35.8742C148.958 35.3983 148.686 34.9331 148.383 34.4884C148.344 34.4312 148.304 34.374 148.264 34.3166C147.959 33.8753 147.646 33.4237 147.571 32.8967L151.158 36.6434C151.488 36.9881 151.827 37.3478 151.983 37.7987C152.134 38.2337 152.098 38.708 152.06 39.1667L151.713 43.3921ZM147.592 38.6308L146.78 37.6071C145.886 36.4808 144.79 35.2509 143.352 35.2493C142.517 35.2484 141.75 35.6757 141.026 36.0908L139.902 36.7357C139.595 36.9119 139.279 37.0951 139.062 37.3753C138.438 38.1833 138.894 39.3639 139.484 40.1973C139.892 40.774 140.382 41.3277 141.032 41.6053C141.873 41.9643 142.84 41.8055 143.721 41.5625C144.928 41.2297 146.094 40.7495 147.185 40.1361C147.534 39.94 147.92 39.6526 147.902 39.2527C147.891 39.0172 147.738 38.8155 147.592 38.6308ZM140.496 39.421C140.356 39.1985 140.212 38.9608 140.21 38.698C140.205 38.1842 140.718 37.8394 141.169 37.5934L142.772 36.719C143.014 36.5868 143.267 36.4516 143.542 36.433C143.818 36.4144 144.124 36.5471 144.217 36.8072C144.49 37.5748 145.163 38.1871 145.954 38.3863C146.209 38.4507 146.292 38.8049 146.171 39.0393C146.05 39.2738 145.802 39.4108 145.566 39.5281C144.721 39.9473 143.838 40.2892 142.931 40.548C142.567 40.6518 142.182 40.7425 141.814 40.6551C141.213 40.512 140.825 39.9446 140.496 39.421ZM129.092 47.3351C127.502 47.5202 127.2 50.3867 127.939 51.9157C128.09 52.2302 128.328 52.5541 128.675 52.5981C129.267 52.6733 129.594 51.9423 129.726 51.3596L129.729 51.3461C129.901 50.5783 130.673 47.1511 129.092 47.3351ZM120.893 51.0954C121.211 50.3539 121.317 49.5228 121.195 48.7252C121.139 48.3546 121.027 47.9783 120.78 47.6969C120.532 47.4154 120.123 47.2518 119.77 47.3787C119.451 47.4935 119.25 47.8058 119.099 48.1096C118.566 49.182 118.353 50.4115 118.495 51.6008C118.562 52.154 119.259 52.4564 119.788 52.2814C120.317 52.1064 120.673 51.6075 120.893 51.0954ZM125.58 49.3982C125.827 49.1937 126.138 49.5651 126.238 49.8696C126.567 50.8703 126.84 51.8896 127.054 52.921C127.189 53.5729 127.301 54.25 127.157 54.9C126.954 55.8163 126.257 56.5617 125.449 57.0391C124.641 57.5165 123.721 57.7636 122.814 58.0054C122.574 58.0693 122.273 58.1148 122.119 57.9211C121.987 57.7567 122.052 57.4991 122.202 57.3509C122.348 57.2057 122.552 57.1387 122.749 57.0742L122.761 57.0703C124.174 56.6059 125.685 55.7677 126.014 54.3165C126.195 53.5185 125.975 52.7169 125.754 51.9119C125.552 51.1787 125.35 50.4427 125.45 49.7041C125.465 49.5916 125.492 49.4706 125.58 49.3982ZM115.707 46.134C115.334 45.6184 115.632 44.8347 116.172 44.4984C116.712 44.1621 117.395 44.1667 118.025 44.2481C118.778 44.3453 119.519 44.5369 120.225 44.8168C120.375 44.8764 120.537 44.9523 120.603 45.0998C120.726 45.373 120.409 45.672 120.109 45.6717C119.868 45.6715 119.65 45.5556 119.434 45.4409L119.434 45.4408L119.434 45.4407L119.434 45.4407L119.434 45.4407C119.381 45.413 119.329 45.3854 119.277 45.3595C118.099 44.7748 116.537 45.1137 115.707 46.134ZM129.286 45.9565C129.846 45.8633 130.44 45.9926 130.91 46.3101C131.107 46.4428 131.389 46.2196 131.39 45.9824C131.391 45.7451 131.214 45.5456 131.028 45.3989C130.626 45.0829 130.126 44.8938 129.616 44.865C129.286 44.8464 128.922 44.91 128.71 45.1626C128.498 45.4152 128.562 45.8892 128.88 45.9771C128.993 46.0085 129.112 45.9873 129.229 45.9665C129.248 45.963 129.267 45.9596 129.286 45.9565ZM122.337 60.5041C122.495 60.4152 122.703 60.5705 122.726 60.75C122.75 60.9294 122.647 61.101 122.53 61.2391C121.943 61.9319 120.932 62.1453 120.038 61.9829C119.145 61.8205 118.344 61.3401 117.59 60.8335C117.236 60.5952 116.887 60.3491 116.543 60.0954C116.187 59.8324 115.808 59.5106 115.765 59.07C115.722 58.6295 116.287 58.1854 116.609 58.4888C117.401 59.2347 118.211 59.9929 119.196 60.4544C120.182 60.9159 121.39 61.0388 122.337 60.5041ZM105.377 64.0365C102.077 56.8633 100.7 48.816 101.428 40.9537C101.441 40.8194 101.458 40.6755 101.546 40.5739C101.672 40.4306 101.928 40.4366 102.047 40.5856C102.005 44.9106 101.964 49.2616 102.67 53.5288C103.376 57.7959 104.875 62.0177 107.613 65.3666C107.694 65.4663 107.777 65.5656 107.86 65.665L107.861 65.6659L107.861 65.6659C108.331 66.2305 108.806 66.7999 109.073 67.4807C107.293 67.4464 106.121 65.6538 105.377 64.0365ZM108.614 31.645C108.553 31.579 108.482 31.5207 108.399 31.4851C108.161 31.3824 107.882 31.4877 107.674 31.642C106.843 32.2568 106.84 33.6946 107.668 34.3132C108.072 33.9691 108.486 33.6117 108.723 33.1368C108.96 32.662 108.974 32.0346 108.614 31.645ZM115.776 39.2198C116.671 39.9465 117.691 40.5189 118.778 40.9043C122.285 42.1479 126.226 41.3671 129.61 39.8202C130.128 39.5839 130.787 39.7085 131.183 40.1171C129.01 41.6656 126.347 42.5167 123.679 42.5161C123.091 42.516 122.503 42.4757 121.917 42.4244C120.717 42.3196 119.509 42.166 118.381 41.7459C117.252 41.3258 116.199 40.6152 115.56 39.5947L115.776 39.2198ZM153.965 86.4848C153.93 86.6042 154.026 86.7185 154.115 86.8061L155.447 88.1284C155.592 87.7481 155.429 87.3054 155.15 87.0094C154.87 86.7133 154.493 86.5332 154.125 86.3597C154.053 86.3628 153.985 86.4156 153.965 86.4848Z" fill="#00160A"/>
<path fill-rule="evenodd" clip-rule="evenodd" d="M241.477 35.0484C243.109 35.6141 244.647 34.1419 246.054 33.139C248.23 31.587 251.07 31.0002 253.683 31.5622C254.117 31.6555 254.571 31.7954 254.857 32.1347C255.118 32.445 255.192 32.8682 255.234 33.2715C255.491 35.7404 254.874 38.2917 253.516 40.3698C252.856 41.3808 252.028 42.2809 251.438 43.3342C250.847 44.3875 250.51 45.6743 250.931 46.8063C253.432 53.5359 252.391 61.4734 248.238 67.3301C244.085 73.1868 236.94 76.7957 229.761 76.6615C226.09 76.5929 222.493 75.613 219.034 74.3807C217.525 73.8431 215.866 73.2533 214.368 73.821C211.635 74.857 208.757 75.5111 205.844 75.7585C205.121 75.82 204.366 75.8515 203.699 75.5662C202.701 75.139 202.098 74.0565 201.984 72.9767C201.869 71.897 202.168 70.8161 202.545 69.7978C203.682 66.7262 207.213 61.9278 209.351 60.8224C209.178 57.0924 209.197 53.3186 210.003 49.6727C210.81 46.0268 212.455 42.489 215.155 39.9093C216.27 38.8438 217.546 37.9569 218.883 37.1873C225.643 33.2949 234.106 32.4938 241.477 35.0484ZM231.181 34.7457C226.012 34.8667 220.979 36.9433 216.938 40.1696C215.752 41.1169 214.636 42.1692 213.746 43.3989C213.044 44.3682 212.489 45.4378 212.025 46.5411C209.272 53.0878 209.901 60.9535 213.658 66.9802C213.739 67.1116 213.833 67.2509 213.98 67.3019C214.16 67.3649 214.354 67.2731 214.523 67.1833C226.323 60.895 236.826 52.1858 245.19 41.754C245.389 41.5055 245.598 41.217 245.555 40.9015C245.523 40.6648 245.354 40.4726 245.189 40.2997C241.62 36.5577 236.351 34.6247 231.181 34.7457ZM238.409 73.8271C244.014 71.1959 248.27 65.9963 250.091 60.0784C250.503 58.7384 250.799 57.3531 250.828 55.9514C250.853 54.7726 250.688 53.599 250.524 52.4314C250.287 50.7387 250.049 49.0459 249.811 47.3532C249.748 46.9044 249.315 46.312 249 46.6371C240.23 55.6616 230.655 63.9023 220.424 71.2288C220.084 71.4726 219.709 71.774 219.691 72.1924C219.669 72.6766 220.131 73.0278 220.551 73.2699C225.915 76.3629 232.804 76.4583 238.409 73.8271ZM203.838 73.1382C204.246 73.7922 205.13 73.9261 205.9 73.9475C209.942 74.0593 213.94 72.8749 217.556 71.0662C221.172 69.2575 224.445 66.8381 227.626 64.3418C231.868 61.0123 235.983 57.5229 239.994 53.9181C244.961 49.4537 249.842 44.7183 253.103 38.89C253.734 37.7626 254.316 36.5264 254.217 35.2383C254.119 33.9502 253.091 32.6498 251.8 32.7001C249.061 32.807 246.367 33.8603 244.282 35.64C243.868 35.994 244.161 36.7474 244.671 36.939C245.182 37.1306 245.75 36.9402 246.249 36.7201C246.748 36.4999 247.267 36.2424 247.809 36.3027C248.637 36.3947 249.225 37.2422 249.274 38.0736C249.324 38.9051 248.956 39.7042 248.523 40.4155C247.721 41.732 246.674 42.8796 245.616 44.0005C236.211 53.9646 225.361 62.5632 213.513 69.4438C212.445 70.0635 211.366 70.6714 210.218 71.1229C209.615 71.3597 208.925 71.5498 208.337 71.279C207.373 70.835 207.296 69.4816 207.585 68.4605C208.019 66.9273 208.957 65.5414 210.219 64.5686C209.98 63.8951 209.741 63.2217 209.502 62.5482C206.387 64.5382 204.2 67.923 203.667 71.5812C203.59 72.1091 203.556 72.6855 203.838 73.1382ZM212.696 68.5162C212.718 68.4467 212.678 68.3743 212.639 68.3126C212.237 67.6732 211.834 67.0337 211.432 66.3942C211.25 66.1049 210.898 65.7772 210.624 65.9828C209.641 66.7238 208.936 67.8273 208.679 69.0317C208.628 69.2694 208.598 69.5346 208.728 69.7404C208.968 70.1231 209.544 70.0379 209.969 69.8854C210.877 69.5602 211.751 69.1421 212.573 68.6397C212.624 68.6088 212.678 68.5728 212.696 68.5162ZM247.708 38.0755C247.668 37.9094 247.47 37.8372 247.299 37.8298C246.781 37.8071 246.239 38.2335 246.272 38.7515C246.305 39.2695 247.075 39.5957 247.396 39.1884C247.493 39.0654 247.535 38.9086 247.573 38.7568C247.612 38.6064 247.65 38.4559 247.688 38.3055C247.707 38.2301 247.727 38.1511 247.708 38.0755Z" fill="#00160A"/>
</svg>
