<svg width="311" height="312" viewBox="0 0 311 312" fill="none" xmlns="http://www.w3.org/2000/svg">
<path fill-rule="evenodd" clip-rule="evenodd" d="M273.871 163.353C274.551 247.207 237.872 308.463 167.748 311.941C116.638 314.476 147.212 234.285 83.1558 181.042C42.1534 146.961 15.0909 58.4107 116.146 35.515C217.201 12.6195 273.19 79.4996 273.871 163.353Z" fill="#672DE3"/>
<path d="M66.9374 285.114C60.5759 273.387 61.6149 259.197 62.9282 245.92C65.949 215.381 70.6001 182.495 91.9911 160.491C97.6487 154.671 104.555 149.736 112.48 147.984C118.621 146.626 124.538 144.257 129.919 141.001C131.216 133.405 124.069 127.424 119.076 121.555C113.484 114.983 109.996 106.648 109.239 98.0516C108.791 92.9633 107.723 86.0306 102.62 85.8136C98.4249 85.6353 95.2668 80.5735 96.9508 76.7274C98.6347 72.8812 104.496 71.7684 107.473 74.7298C103.227 58.8127 112.196 40.4479 127.36 34.01C124.887 30.4741 130.284 26.2365 134.569 26.7429C138.853 27.2494 143.001 29.8375 147.208 28.8813C145.766 26.3425 148.076 22.9693 150.923 22.319C153.769 21.6687 156.69 22.9044 159.243 24.3208C175.632 33.4133 186.462 51.7497 186.514 70.4918C186.938 67.0708 192.072 65.8993 194.582 68.2611C197.093 70.6229 196.974 74.8501 195.191 77.8003C193.408 80.7506 190.369 82.6875 187.361 84.3713C187.437 96.8 182.71 109.197 174.379 118.421C168.317 125.132 159.728 132.251 161.717 141.074C164.942 140.36 168.205 144.081 167.076 147.185C180.903 146.033 193.807 154.378 203.603 164.205C217.963 178.609 228.285 196.998 233.1 216.76C233.941 220.212 238.852 221.153 241.891 219.311C244.929 217.47 246.491 213.987 247.875 210.715L275.227 146.079C273.464 137.371 274.89 128.371 276.319 119.602L281.06 90.5006C281.491 87.859 283.338 84.3732 285.778 85.4744C286.621 85.855 287.091 86.6776 287.388 87.584C287.526 88.0042 287.627 88.4425 287.71 88.8631C289.189 96.3252 289.662 103.986 289.111 111.573L298.579 95.3768C300.112 92.7558 303.287 89.8563 305.656 90.9406C306.547 91.1155 307.151 92.0043 307.279 92.9107C307.617 94.1431 307.33 95.6248 306.945 96.9031C305.218 102.628 302.402 108.023 298.693 112.714C303.694 114.42 309.485 117.01 310.361 122.22C309.841 131.665 302.879 142.51 297.746 148.139C298.924 147.429 299.694 149.543 299.46 150.899C293.83 183.474 280.11 214.619 259.875 240.76C253.904 248.474 246.969 254.444 236.09 255.521C221.265 256.988 211.544 235.12 203.494 235.705C203.494 235.705 195.96 274.599 190.506 279.794C185.052 284.988 149.209 295.897 138.408 292.261C127.607 288.624 116.803 298.348 102.62 297.374C87.9201 296.363 66.9374 285.114 66.9374 285.114Z" fill="white"/>
<path d="M292.2 155.179C292.071 155.008 291.983 154.806 291.946 154.594C291.804 153.797 292.518 152.963 293.328 152.98C294.137 152.996 294.816 153.858 294.643 154.649C294.469 155.44 293.492 155.939 292.75 155.615C292.533 155.52 292.341 155.369 292.2 155.179Z" fill="#00160A"/>
<path d="M160.079 72.0082C159.529 71.884 159.261 71.1942 159.413 70.6511C159.565 70.108 160.012 69.701 160.473 69.376C163.613 67.1628 168.389 67.7356 170.917 70.6284C171.118 70.8588 171.316 71.1293 171.306 71.4352C171.296 71.7411 170.962 72.0375 170.69 71.896C169.267 71.1538 167.817 70.402 166.238 70.1155C164.658 69.829 162.902 70.0741 161.7 71.1376C161.22 71.562 160.703 72.1492 160.079 72.0082Z" fill="#00160A"/>
<path d="M133.124 71.9009C132.952 72.4314 132.261 72.6254 131.724 72.4753C131.187 72.3252 130.755 71.9377 130.3 71.6156C128.803 70.5565 126.905 70.1521 125.075 70.2708C123.245 70.3896 121.476 71.0023 119.837 71.8244C119.461 72.0127 119.014 71.5754 119.037 71.1559C119.06 70.7364 119.376 70.3957 119.694 70.1215C121.399 68.6533 123.716 67.9827 125.963 68.0985C128.21 68.2142 130.382 69.077 132.233 70.3566C132.758 70.7202 133.322 71.2929 133.124 71.9009Z" fill="black"/>
<path d="M292.972 161.102C292.781 161.357 292.508 161.536 292.231 161.693C291.944 161.855 291.628 162.004 291.299 161.979C290.861 161.945 290.496 161.601 290.316 161.201C289.873 160.216 290.626 158.869 291.706 158.831C292.785 158.793 293.619 160.237 292.972 161.102Z" fill="#00160A"/>
<path d="M196.886 202.173C197.41 202.413 197.036 203.261 196.501 203.477C195.967 203.693 195.293 203.7 194.944 204.16C194.696 204.487 194.706 204.936 194.731 205.345C194.781 206.183 194.834 207.072 194.435 207.81C194.036 208.548 192.996 209.003 192.331 208.492C191.72 208.023 191.774 207.112 191.753 206.342C191.732 205.572 191.344 204.609 190.575 204.644C186.808 204.816 183.041 204.988 179.274 205.16C178.796 205.182 178.253 205.179 177.927 204.829C177.482 204.349 177.784 203.502 178.347 203.168C178.91 202.833 179.608 202.86 180.262 202.898C183.03 203.058 185.798 203.218 188.566 203.378C188.996 203.403 189.447 203.424 189.836 203.239C190.225 203.054 190.518 202.59 190.36 202.19C189.937 201.116 190.499 199.756 191.557 199.294C191.924 199.134 192.09 198.71 192.181 198.32C192.273 197.93 192.338 197.505 192.616 197.216C192.894 196.927 193.477 196.909 193.623 197.282C193.96 198.144 194.784 198.699 195.363 199.42C195.942 200.141 196.21 201.338 195.477 201.902C195.518 202.43 196.404 201.952 196.886 202.173Z" fill="#00160A"/>
<path d="M123.21 104.94C122.684 104.908 122.466 104.066 122.91 103.782C123.468 103.743 123.714 104.699 123.206 104.933L123.21 104.94Z" fill="#575066"/>
<path d="M165.23 91.7526C165.079 91.4805 165.237 91.088 165.534 90.996C165.831 90.9041 166.183 91.139 166.212 91.4488C166.13 91.8517 165.542 92.0346 165.246 91.7494L165.23 91.7526Z" fill="#575066"/>
<path d="M163.467 86.5616C163.245 87.0009 162.442 86.8783 162.361 86.3928C162.524 86.1716 162.757 86.0031 163.018 85.9183C163.239 86.081 163.409 86.3121 163.499 86.5717L163.467 86.5616Z" fill="#575066"/>
<path d="M152.714 106.143C153.043 106.121 153.376 106.318 153.515 106.618C153.403 106.957 152.983 107.192 152.667 107.025C152.352 106.859 152.382 106.277 152.733 106.209L152.714 106.143Z" fill="#575066"/>
<path d="M162.581 106.633C162.743 106.229 163.497 106.383 163.487 106.819C163.26 107.045 162.964 107.201 162.65 107.263C162.397 107.176 162.334 106.777 162.548 106.616L162.581 106.633Z" fill="#575066"/>
<path d="M145.597 88.3522C145.264 88.3537 145.02 88.7813 145.187 89.0686C145.355 89.3558 145.847 89.3536 146.012 89.0649C146.177 88.7762 145.929 88.3508 145.597 88.3522Z" fill="#575066"/>
<path d="M125.543 93.4198C125.275 93.2191 124.82 93.4143 124.78 93.7467C124.74 94.0792 125.137 94.3764 125.445 94.2446C125.753 94.1128 125.811 93.6205 125.543 93.4198Z" fill="#575066"/>
<path d="M170.359 94.2184C170.039 94.3236 169.676 93.965 169.772 93.642C169.868 93.3189 170.361 93.2136 170.584 93.4658C170.808 93.718 170.651 94.1896 170.323 94.2632L170.359 94.2184Z" fill="#575066"/>
<path d="M143.686 104.109C143.562 103.798 143.071 103.726 142.864 103.989C142.656 104.252 142.84 104.713 143.171 104.761C143.503 104.81 143.81 104.42 143.686 104.109Z" fill="#575066"/>
<path d="M143.163 112.336C142.93 112.404 142.75 112.12 142.71 111.881C142.94 111.445 143.736 111.567 143.825 112.051C143.684 112.263 143.413 112.381 143.162 112.337L143.163 112.336Z" fill="#575066"/>
<path d="M146.342 111.946C145.981 112.035 145.473 111.859 145.509 111.488C145.724 111.266 146.061 111.106 146.341 111.237C146.622 111.368 146.637 111.884 146.332 111.935L146.342 111.946Z" fill="#575066"/>
<path d="M162.649 111.776C162.5 111.666 162.398 111.495 162.372 111.311C162.528 111.087 162.761 110.918 163.022 110.838C163.176 110.993 163.33 111.149 163.484 111.305C163.314 111.597 162.986 111.791 162.648 111.798L162.649 111.776Z" fill="#575066"/>
<path d="M148.403 89.2858C148.139 89.644 147.452 89.4693 147.391 89.0286C147.615 88.5517 148.509 88.7644 148.494 89.2912L148.403 89.2858Z" fill="#575066"/>
<path d="M155.718 106.898C155.42 107.185 154.816 106.885 154.864 106.474C154.913 106.062 155.571 105.912 155.794 106.261C155.63 106.382 155.563 106.619 155.64 106.808L155.718 106.898Z" fill="#575066"/>
<path d="M137.51 88.4879C137.83 88.3827 138.194 88.7413 138.098 89.0644C138.001 89.3875 137.509 89.4927 137.285 89.2405C137.062 88.9883 137.218 88.5167 137.547 88.4431L137.51 88.4879Z" fill="#575066"/>
<path d="M145.328 98.9541C145.643 98.6917 146.214 98.9199 146.261 99.3266C146.046 99.5222 145.752 99.6831 145.474 99.5993C145.195 99.5154 145.063 99.074 145.316 98.9308L145.328 98.9541Z" fill="#575066"/>
<path d="M152.461 101.58C152.676 101.142 153.475 101.257 153.558 101.738C153.319 102.176 152.52 102.058 152.416 101.57L152.461 101.58Z" fill="#575066"/>
<path d="M152.902 104.093C153.122 103.768 153.75 103.979 153.73 104.371C153.587 104.598 153.357 104.769 153.098 104.839C152.84 104.701 152.735 104.336 152.88 104.082L152.902 104.093Z" fill="#575066"/>
<path d="M163.305 88.8228C163.099 88.5547 162.603 88.6198 162.474 88.9318C162.344 89.2438 162.649 89.6407 162.984 89.5968C163.318 89.5529 163.51 89.0908 163.305 88.8228Z" fill="#575066"/>
<path d="M157.973 113.665C158.036 113.373 158.55 113.515 158.582 113.812C158.614 114.109 158.374 114.358 158.152 114.559C157.985 114.452 157.807 114.332 157.736 114.146C157.665 113.96 157.771 113.698 157.97 113.693L157.973 113.665Z" fill="#575066"/>
<path d="M133.193 86.3086C133.07 85.9973 132.579 85.9256 132.371 86.1886C132.163 86.4515 132.347 86.9125 132.678 86.9609C133.01 87.0093 133.317 86.6199 133.193 86.3086Z" fill="#575066"/>
<path d="M145.948 113.666C145.778 113.396 145.307 113.414 145.158 113.696C145.009 113.978 145.261 114.377 145.579 114.365C145.897 114.353 146.117 113.935 145.948 113.666Z" fill="#575066"/>
<path d="M125.07 103.634C125.249 103.431 125.615 103.678 125.607 103.948C125.6 104.218 125.382 104.429 125.18 104.609C124.744 104.539 124.671 103.794 125.084 103.64L125.07 103.634Z" fill="#575066"/>
<path d="M148.411 109.345C148.227 109.459 148.043 109.573 147.858 109.688C147.521 109.564 147.482 109.004 147.798 108.834C148.114 108.664 148.559 109.006 148.477 109.355L148.411 109.345Z" fill="#575066"/>
<path d="M169.895 103.899C169.792 103.58 170.415 103.477 170.538 103.789C170.66 104.1 170.413 104.437 170.136 104.627C169.864 104.505 169.687 104.198 169.719 103.901L169.895 103.899Z" fill="#575066"/>
<path d="M162.369 104.19C162.571 103.898 163.014 103.808 163.314 103.997C163.392 104.434 162.839 104.835 162.448 104.625C162.41 104.482 162.371 104.339 162.333 104.195L162.369 104.19Z" fill="#575066"/>
<path d="M132.638 101.229C132.959 101.124 133.322 101.483 133.226 101.806C133.13 102.129 132.637 102.234 132.414 101.982C132.19 101.73 132.346 101.258 132.675 101.185L132.638 101.229Z" fill="#575066"/>
<path d="M167.41 84.1398C167.414 83.8588 167.707 83.6191 167.983 83.6709C168.259 83.7228 168.445 84.0525 168.347 84.3157C168.056 84.5357 167.59 84.4675 167.374 84.1734L167.41 84.1398Z" fill="#575066"/>
<path d="M160.304 98.9406C160.574 98.7237 161.056 98.9692 161.04 99.3151C160.803 99.6842 160.169 99.6844 159.932 99.3156C160.056 99.191 160.181 99.0664 160.305 98.9419L160.304 98.9406Z" fill="#575066"/>
<path d="M129.66 106.336C129.932 106.048 130.474 106.098 130.69 106.43C130.526 106.657 130.31 106.888 130.031 106.902C129.752 106.915 129.488 106.552 129.681 106.35L129.66 106.336Z" fill="#575066"/>
<path d="M170.423 109.246C170.312 109.394 170.141 109.497 169.958 109.525C169.625 109.335 169.626 108.741 169.984 108.603C170.342 108.465 170.729 109.021 170.442 109.276L170.423 109.246Z" fill="#575066"/>
<path d="M125.4 109.398C125.661 109.216 125.622 108.745 125.333 108.609C125.045 108.473 124.657 108.743 124.684 109.061C124.71 109.379 125.138 109.58 125.4 109.398Z" fill="#575066"/>
<path d="M170.277 99.7189C170.015 99.9863 169.573 99.4308 169.827 99.1554C170.08 98.88 170.571 99.0209 170.797 99.3189C170.641 99.4743 170.486 99.6297 170.33 99.7851L170.277 99.7189Z" fill="#575066"/>
<path d="M122.489 86.9444C122.417 86.4903 123.153 86.1935 123.416 86.5703C123.197 86.8581 122.978 87.1458 122.759 87.4336C122.6 87.3224 122.489 87.1439 122.46 86.9517L122.489 86.9444Z" fill="#575066"/>
<path d="M125.307 99.7189C125.045 99.9863 124.604 99.4308 124.857 99.1554C125.11 98.88 125.601 99.0209 125.827 99.3189C125.671 99.4743 125.516 99.6297 125.36 99.7851L125.307 99.7189Z" fill="#575066"/>
<path d="M165.217 86.732C164.994 86.5188 165.037 86.0956 165.3 85.9324C165.562 85.7691 165.961 85.9172 166.053 86.2121C165.923 86.5096 165.592 86.7062 165.268 86.6783L165.217 86.732Z" fill="#575066"/>
<path d="M132.213 89.0231C132.419 88.6536 133.039 88.632 133.27 88.9862C133.197 89.5045 132.27 89.5325 132.166 89.0196L132.213 89.0231Z" fill="#575066"/>
<path d="M151.083 91.1627C151.089 91.4268 150.998 91.6919 150.83 91.8962C150.539 92.0597 150.15 91.6935 150.25 91.3753C150.351 91.057 150.801 90.9432 151.078 91.1298L151.083 91.1627Z" fill="#575066"/>
<path d="M143.442 108.996C143.348 108.695 142.893 108.593 142.68 108.825C142.467 109.056 142.606 109.501 142.913 109.57C143.22 109.639 143.536 109.296 143.442 108.996Z" fill="#575066"/>
<path d="M153.238 111.472C153.373 111.827 153.105 112.274 152.727 112.322C152.478 112.217 152.362 111.878 152.493 111.641C152.625 111.405 152.974 111.325 153.195 111.481L153.238 111.472Z" fill="#575066"/>
<path d="M137.238 114.118C137.238 113.777 137.44 113.443 137.742 113.285C137.96 113.503 138.117 113.841 137.983 114.119C137.85 114.398 137.333 114.407 137.288 114.101L137.238 114.118Z" fill="#575066"/>
<path d="M165.324 111.281C165.586 111.014 166.028 111.569 165.774 111.845C165.521 112.12 165.03 111.979 164.804 111.681C164.96 111.526 165.115 111.37 165.271 111.215L165.324 111.281Z" fill="#575066"/>
<path d="M143.026 88.7961C143.288 88.5287 143.73 89.0842 143.477 89.3596C143.223 89.6349 142.733 89.4941 142.506 89.1961C142.662 89.0407 142.818 88.8853 142.973 88.7299L143.026 88.7961Z" fill="#575066"/>
<path d="M127.615 104.47C127.424 104.262 127.685 103.898 127.967 103.907C128.248 103.916 128.469 104.148 128.626 104.383C128.403 104.708 127.873 104.757 127.595 104.478L127.615 104.47Z" fill="#575066"/>
<path d="M133.037 95.8314C133.303 95.8102 133.411 96.2284 133.228 96.4234C133.045 96.6184 132.741 96.6276 132.475 96.5968C132.233 96.2667 132.655 95.7222 133.035 95.8746L133.037 95.8314Z" fill="#575066"/>
<path d="M146.157 119.269C145.879 119.624 145.192 119.442 145.127 118.996C145.364 118.575 146.16 118.788 146.155 119.271L146.157 119.269Z" fill="#575066"/>
<path d="M132.358 104.612C132.209 104.321 132.405 103.907 132.728 103.859C133.05 103.811 133.362 104.18 133.242 104.483C133.121 104.786 132.611 104.822 132.466 104.53L132.358 104.612Z" fill="#575066"/>
<path d="M142.975 114.396C142.741 114.472 142.573 114.173 142.51 113.935C142.75 113.567 143.381 113.563 143.625 113.929C143.466 114.151 143.235 114.321 142.976 114.408L142.975 114.396Z" fill="#575066"/>
<path d="M145.092 94.0677C145.182 93.5856 145.962 93.4483 146.211 93.8708C146.094 94.3221 145.387 94.4591 145.11 94.0842L145.092 94.0677Z" fill="#575066"/>
<path d="M170.424 101.688C170.33 101.388 169.875 101.285 169.662 101.517C169.449 101.748 169.588 102.193 169.895 102.262C170.202 102.331 170.518 101.988 170.424 101.688Z" fill="#575066"/>
<path d="M148.689 104.564C148.419 104.781 147.937 104.536 147.954 104.19C148.191 103.821 148.824 103.821 149.062 104.189C148.937 104.314 148.813 104.439 148.688 104.563L148.689 104.564Z" fill="#575066"/>
<path d="M143.346 118.526C143.581 118.451 143.749 118.75 143.811 118.987C143.571 119.356 142.94 119.36 142.696 118.994C142.856 118.772 143.086 118.602 143.345 118.514L143.346 118.526Z" fill="#575066"/>
<path d="M173.234 83.7645C173.357 83.8873 173.48 84.01 173.602 84.1328C173.385 84.4654 172.822 84.5813 172.603 84.2498C172.384 83.9183 173 83.4477 173.181 83.8016L173.234 83.7645Z" fill="#575066"/>
<path d="M162.662 91.8992C162.903 92.1111 163.354 91.9584 163.417 91.6433C163.48 91.3282 163.122 91.0143 162.818 91.1175C162.513 91.2206 162.42 91.6872 162.662 91.8992Z" fill="#575066"/>
<path d="M147.671 111.788C147.767 111.563 148.121 111.512 148.278 111.7C148.454 111.983 148.294 112.44 147.962 112.478C147.631 112.516 147.404 111.979 147.695 111.815L147.671 111.788Z" fill="#575066"/>
<path d="M132.666 106.347C132.9 106.272 133.069 106.571 133.131 106.808C132.974 107.032 132.742 107.202 132.482 107.284C132.334 107.168 132.232 106.997 132.2 106.812C132.356 106.655 132.512 106.499 132.668 106.343L132.666 106.347Z" fill="#575066"/>
<path d="M166.088 99.3976C166.153 99.8344 165.514 100.17 165.191 99.8682C165.054 99.431 165.776 99.0258 166.02 99.4136L166.088 99.3976Z" fill="#575066"/>
<path d="M140.72 99.0431C140.934 99.174 141.053 99.4448 141.004 99.6911C140.738 99.7945 140.444 99.8275 140.162 99.7858C140.074 99.6482 140.041 99.4773 140.07 99.3169C140.288 99.2231 140.507 99.1294 140.725 99.0356L140.72 99.0431Z" fill="#575066"/>
<path d="M153.104 108.959C153.202 109.159 153.225 109.394 153.168 109.609C152.914 109.831 152.436 109.626 152.421 109.289C152.407 108.952 152.864 108.706 153.137 108.904L153.104 108.959Z" fill="#575066"/>
<path d="M168.536 104.544C168.239 104.814 167.668 104.599 167.623 104.201C167.722 103.971 168.017 103.847 168.25 103.938C168.484 104.029 168.617 104.32 168.534 104.556L168.536 104.544Z" fill="#575066"/>
<path d="M143.439 86.5718C143.61 86.6869 143.687 86.9253 143.614 87.1186C143.356 87.3625 142.839 87.2803 142.75 86.9367C142.661 86.5931 143.232 86.3016 143.406 86.6113L143.439 86.5718Z" fill="#575066"/>
<path d="M125.477 101.843C125.493 101.527 125.101 101.273 124.82 101.417C124.539 101.56 124.515 102.027 124.78 102.199C125.045 102.37 125.461 102.158 125.477 101.843Z" fill="#575066"/>
<path d="M150.46 100.036C150.15 99.9375 150.127 99.4233 150.414 99.2694C150.7 99.1155 151.098 99.3643 151.121 99.689C150.986 99.9012 150.716 100.017 150.469 99.9687L150.46 100.036Z" fill="#575066"/>
<path d="M124.971 88.7888C124.763 88.5097 125.41 88.2706 125.557 88.5861C125.704 88.9017 125.443 89.258 125.16 89.4603C124.954 89.3282 124.845 89.062 124.898 88.8233L124.971 88.7888Z" fill="#575066"/>
<path d="M145.877 109.247C145.765 109.395 145.593 109.498 145.41 109.526C145.261 109.417 145.159 109.246 145.135 109.064C145.284 108.84 145.516 108.672 145.775 108.602C146.031 108.689 146.099 109.088 145.887 109.255L145.877 109.247Z" fill="#575066"/>
<path d="M167.988 109.435C167.769 109.529 167.551 109.622 167.332 109.716C167.183 109.598 167.079 109.424 167.044 109.237C167.237 109.078 167.461 108.915 167.711 108.935C167.96 108.955 168.176 109.274 168.011 109.463L167.988 109.435Z" fill="#575066"/>
<path d="M150.511 111.135C150.724 111.245 150.937 111.356 151.151 111.467C150.918 111.713 150.611 111.886 150.28 111.958C150.131 111.849 150.028 111.678 150.003 111.496C150.113 111.347 150.285 111.245 150.469 111.219L150.511 111.135Z" fill="#575066"/>
<path d="M125.451 111.305C125.622 111.42 125.699 111.659 125.626 111.852C125.369 112.096 124.851 112.014 124.762 111.67C124.673 111.326 125.244 111.035 125.418 111.345L125.451 111.305Z" fill="#575066"/>
<path d="M142.909 102.122C142.984 102.57 143.838 102.426 143.763 101.979C143.688 101.532 142.834 101.675 142.909 102.122Z" fill="#575066"/>
<path d="M152.616 90.8119C153.019 90.7689 153.357 91.2824 153.159 91.6359C152.963 91.7865 152.645 91.7376 152.503 91.535C152.361 91.3324 152.424 91.0167 152.633 90.884L152.616 90.8119Z" fill="#575066"/>
<path d="M122.792 101.722C123.012 101.503 123.432 101.835 123.334 102.13C123.236 102.425 122.829 102.518 122.551 102.379C122.365 102.165 122.477 101.772 122.749 101.69L122.792 101.722Z" fill="#575066"/>
<path d="M142.97 96.4087C143.197 96.0852 143.825 96.3018 143.804 96.6962C143.622 96.946 143.271 97.0574 142.978 96.9584C142.841 96.8089 142.835 96.5567 142.966 96.4014L142.97 96.4087Z" fill="#575066"/>
<path d="M165.455 88.5452C165.608 88.6453 165.708 88.8206 165.718 89.0029C165.558 89.4052 164.81 89.2597 164.813 88.8268C164.941 88.6119 165.213 88.4942 165.457 88.5483L165.455 88.5452Z" fill="#575066"/>
<path d="M130.542 114.07C130.69 114.361 130.495 114.775 130.172 114.823C129.85 114.872 129.538 114.502 129.658 114.199C129.779 113.896 130.288 113.86 130.433 114.153L130.542 114.07Z" fill="#575066"/>
<path d="M137.352 108.976C137.663 108.942 138.062 108.957 138.181 109.247C138.041 109.47 137.811 109.635 137.554 109.697C137.406 109.616 137.248 109.525 137.18 109.371C137.112 109.217 137.196 108.989 137.365 108.984L137.352 108.976Z" fill="#575066"/>
<path d="M170.33 89.2923C170.629 89.1883 170.717 88.7277 170.478 88.5206C170.238 88.3134 169.795 88.4673 169.736 88.7784C169.676 89.0894 170.031 89.3962 170.33 89.2923Z" fill="#575066"/>
<path d="M158.239 91.2611C158.573 91.4642 158.362 92.1035 157.973 92.0684C157.751 91.9931 157.618 91.7234 157.692 91.5012C157.766 91.279 158.035 91.144 158.258 91.2171L158.239 91.2611Z" fill="#575066"/>
<path d="M148.446 113.755C148.36 113.322 147.532 113.486 147.618 113.92C147.704 114.353 148.533 114.189 148.446 113.755Z" fill="#575066"/>
<path d="M127.195 89.1876C127.281 89.6212 128.109 89.4566 128.023 89.0229C127.937 88.5893 127.109 88.7539 127.195 89.1876Z" fill="#575066"/>
<path d="M168.267 111.959C168.064 112.293 167.425 112.082 167.46 111.693C167.535 111.471 167.805 111.338 168.027 111.412C168.249 111.486 168.385 111.755 168.311 111.978L168.267 111.959Z" fill="#575066"/>
<path d="M125.254 85.9793C125.577 85.8566 125.954 86.2535 125.815 86.5702C125.53 86.7231 125.168 86.7239 124.881 86.5722C124.919 86.3432 125.069 86.1353 125.275 86.0275L125.254 85.9793Z" fill="#575066"/>
<path d="M143.164 91.9127C143.011 91.8126 142.911 91.6373 142.901 91.455C143.061 91.0526 143.809 91.1981 143.806 91.6311C143.678 91.8459 143.406 91.9637 143.162 91.9096L143.164 91.9127Z" fill="#575066"/>
<path d="M157.691 107.185C157.547 106.924 157.792 106.547 158.09 106.57C158.388 106.592 158.576 106.995 158.404 107.24C158.232 107.484 157.795 107.45 157.66 107.183L157.691 107.185Z" fill="#575066"/>
<path d="M150.002 94.0734C150.103 93.9208 150.278 93.8201 150.46 93.8106C150.863 93.9704 150.717 94.718 150.284 94.7152C150.069 94.5874 149.951 94.315 150.006 94.0709L150.002 94.0734Z" fill="#575066"/>
<path d="M170.743 86.1007C170.765 86.2582 170.787 86.4157 170.808 86.5732C170.518 86.7207 170.158 86.7218 169.867 86.5759C169.857 86.1634 170.379 85.8448 170.741 86.042L170.743 86.1007Z" fill="#575066"/>
<path d="M141.003 116.369C140.806 115.975 140.053 116.35 140.25 116.745C140.446 117.139 141.2 116.763 141.003 116.369Z" fill="#575066"/>
<path d="M158.443 96.3076C158.131 95.9978 157.539 96.5934 157.851 96.9032C158.163 97.2129 158.754 96.6174 158.443 96.3076Z" fill="#575066"/>
<path d="M150.746 86.2019C150.55 85.8075 149.797 86.183 149.993 86.5774C150.19 86.9717 150.943 86.5962 150.746 86.2019Z" fill="#575066"/>
<path d="M168.01 106.989C167.82 106.578 167.036 106.942 167.226 107.352C167.417 107.763 168.2 107.399 168.01 106.989Z" fill="#575066"/>
<path d="M124.621 106.9C124.814 107.292 125.561 106.923 125.368 106.532C125.175 106.141 124.428 106.509 124.621 106.9Z" fill="#575066"/>
<path d="M155.619 114.303C155.518 114.456 155.343 114.557 155.161 114.566C154.758 114.406 154.904 113.659 155.337 113.661C155.552 113.789 155.67 114.062 155.615 114.306L155.619 114.303Z" fill="#575066"/>
<path d="M141.09 101.664C140.897 101.272 140.149 101.641 140.342 102.032C140.535 102.424 141.283 102.055 141.09 101.664Z" fill="#575066"/>
<path d="M165.449 93.7919C165.686 94.0393 165.435 94.5383 165.095 94.495C164.848 94.4236 164.712 94.1018 164.832 93.8748C164.953 93.6477 165.296 93.5803 165.493 93.7449L165.449 93.7919Z" fill="#575066"/>
<path d="M147.751 119.366C147.627 119.241 147.503 119.117 147.379 118.993C147.61 118.622 148.241 118.615 148.48 118.98C148.361 119.26 148.05 119.445 147.747 119.416L147.751 119.366Z" fill="#575066"/>
<path d="M170.892 91.7279C170.768 91.8521 170.643 91.9763 170.519 92.1005C170.149 91.8694 170.141 91.2386 170.506 90.999C170.786 91.1185 170.971 91.4296 170.942 91.7325L170.892 91.7279Z" fill="#575066"/>
<path d="M135.013 91.2628C135.113 91.1102 135.288 91.0096 135.47 91C135.873 91.1598 135.727 91.9074 135.294 91.9047C135.079 91.7769 134.962 91.5044 135.016 91.2603L135.013 91.2628Z" fill="#575066"/>
<path d="M125.895 91.9196C125.662 92.0447 125.333 91.9246 125.236 91.6792C125.139 91.4337 125.298 91.1211 125.553 91.0537C125.894 91.1099 126.081 91.5824 125.87 91.8567L125.895 91.9196Z" fill="#575066"/>
<path d="M155.647 94.2574C155.645 93.8211 154.812 93.8246 154.814 94.2609C154.816 94.6972 155.649 94.6937 155.647 94.2574Z" fill="#575066"/>
<path d="M150.934 109.249C150.737 108.855 149.984 109.23 150.181 109.624C150.377 110.019 151.13 109.643 150.934 109.249Z" fill="#575066"/>
<path d="M172.165 89.1876C172.251 89.6212 173.079 89.4566 172.993 89.0229C172.907 88.5893 172.078 88.7539 172.165 89.1876Z" fill="#575066"/>
<path d="M147.461 101.651C147.736 101.363 148.279 101.415 148.494 101.75C148.34 101.973 148.109 102.141 147.85 102.22C147.654 102.092 147.506 101.893 147.44 101.668L147.461 101.651Z" fill="#575066"/>
<path d="M164.859 101.6C165.164 101.418 165.622 101.611 165.705 101.958C165.527 102.2 165.184 102.305 164.901 102.203C164.764 102.055 164.758 101.804 164.888 101.649L164.859 101.6Z" fill="#575066"/>
<path d="M147.788 99.1174C147.678 98.9163 147.927 98.6683 148.154 98.6996C148.381 98.7308 148.546 98.9306 148.657 99.1313C148.486 99.4841 147.889 99.4968 147.703 99.1516L147.788 99.1174Z" fill="#575066"/>
<path d="M172.58 104.1C172.783 103.766 173.422 103.977 173.387 104.366C173.312 104.588 173.042 104.721 172.82 104.647C172.598 104.573 172.463 104.304 172.536 104.081L172.58 104.1Z" fill="#575066"/>
<path d="M145.41 101.48C145.672 101.336 146.048 101.581 146.026 101.879C146.003 102.177 145.6 102.365 145.356 102.193C145.111 102.021 145.146 101.584 145.413 101.449L145.41 101.48Z" fill="#575066"/>
<path d="M147.569 106.627C147.726 106.492 147.98 106.489 148.142 106.619C148.156 106.955 147.956 107.291 147.654 107.44C147.354 107.299 147.298 106.819 147.559 106.614L147.569 106.627Z" fill="#575066"/>
<path d="M169.663 107.01C169.975 107.32 170.567 106.724 170.255 106.414C169.943 106.105 169.351 106.7 169.663 107.01Z" fill="#575066"/>
<path d="M140.805 92.021C140.449 91.7247 140.866 91.0146 141.298 91.1808C141.493 91.5143 141.203 92.0112 140.817 92.0058L140.805 92.021Z" fill="#575066"/>
<path d="M140.902 88.9223C140.709 88.531 139.962 88.8995 140.155 89.2908C140.348 89.6821 141.095 89.3135 140.902 88.9223Z" fill="#575066"/>
<path d="M122.364 89.4785C122.215 89.3688 122.113 89.1975 122.087 89.0143C122.24 88.7929 122.469 88.6249 122.726 88.5449C122.986 88.8589 122.769 89.4264 122.365 89.4863L122.364 89.4785Z" fill="#575066"/>
<path d="M165.094 109.766C164.799 109.765 164.575 109.395 164.715 109.136C164.855 108.876 165.293 108.864 165.443 109.117C165.594 109.37 165.367 109.752 165.073 109.737L165.094 109.766Z" fill="#575066"/>
<path d="M170.151 83.8294C170.415 83.9156 170.647 84.0955 170.795 84.3294C170.585 84.6359 170.11 84.717 169.81 84.4975C169.896 84.2749 169.982 84.0523 170.068 83.8297L170.151 83.8294Z" fill="#575066"/>
<path d="M145.41 106.625C145.414 106.367 145.691 106.149 145.943 106.206C146.196 106.263 146.352 106.579 146.244 106.814C145.952 107.013 145.503 106.917 145.317 106.616L145.41 106.625Z" fill="#575066"/>
<path d="M149.953 96.7178C149.816 96.456 150.032 96.085 150.328 96.0761C150.623 96.0673 150.862 96.4248 150.74 96.6943C150.522 96.8403 150.215 96.8411 149.996 96.6963L149.953 96.7178Z" fill="#575066"/>
<path d="M130.467 86.4908C130.376 86.8428 129.868 86.9976 129.596 86.756C129.494 86.5391 129.605 86.2428 129.83 86.1607C130.055 86.0786 130.34 86.2508 130.357 86.4901L130.467 86.4908Z" fill="#575066"/>
<path d="M127.012 102.051C126.928 101.835 127.051 101.561 127.269 101.48C127.487 101.399 127.759 101.526 127.837 101.745C127.766 102.088 127.305 102.279 127.012 102.086L127.012 102.051Z" fill="#575066"/>
<path d="M135.104 107.092C134.956 106.979 134.853 106.808 134.823 106.624C134.978 106.472 135.132 106.319 135.287 106.166C135.687 106.337 135.54 107.08 135.105 107.086L135.104 107.092Z" fill="#575066"/>
<path d="M127.604 109.689C127.308 109.797 127.056 109.314 127.275 109.086C127.493 108.859 127.92 108.974 128.072 109.251C127.918 109.406 127.763 109.561 127.609 109.716L127.604 109.689Z" fill="#575066"/>
<path d="M127.233 87.0444C127.015 86.7759 127.261 86.2925 127.607 86.3113C127.822 86.4394 127.941 86.7115 127.889 86.9567C127.688 87.0548 127.454 87.0834 127.235 87.0365L127.233 87.0444Z" fill="#575066"/>
<path d="M163.202 99.2242C163.466 99.2959 163.356 99.7541 163.089 99.8133C162.821 99.8724 162.565 99.6899 162.355 99.5136C162.542 99.2582 162.901 99.1435 163.201 99.2427L163.202 99.2242Z" fill="#575066"/>
<path d="M167.667 99.4675C167.522 99.3606 167.376 99.2538 167.23 99.147C167.46 98.7624 168.111 98.7505 168.355 99.1265C168.224 99.3404 167.952 99.4574 167.707 99.4053L167.667 99.4675Z" fill="#575066"/>
<path d="M172.157 86.9224C171.993 86.6927 172.21 86.3173 172.492 86.3276C172.775 86.3379 172.969 86.6978 172.84 86.949C172.627 87.0973 172.322 87.0987 172.108 86.9523L172.157 86.9224Z" fill="#575066"/>
<path d="M155.622 102.128C155.353 102.346 154.87 102.1 154.888 101.754C154.977 101.599 155.153 101.497 155.332 101.496C155.584 101.586 155.742 101.882 155.676 102.141L155.622 102.128Z" fill="#575066"/>
<path d="M132.899 110.97C133.046 111.082 133.193 111.193 133.34 111.304C133.101 111.533 132.801 111.696 132.479 111.771C132.259 111.506 132.512 111.023 132.855 111.052L132.899 110.97Z" fill="#575066"/>
<path d="M130.51 91.2611C130.313 90.8667 129.56 91.2422 129.757 91.6365C129.954 92.0309 130.707 91.6554 130.51 91.2611Z" fill="#575066"/>
<path d="M127.141 111.497C127.253 111.348 127.425 111.245 127.609 111.217C127.757 111.329 127.86 111.5 127.889 111.683C127.734 111.839 127.578 111.994 127.423 112.15C127.211 112.014 127.096 111.743 127.144 111.497L127.141 111.497Z" fill="#575066"/>
<path d="M145.143 86.7508C145.404 87.0715 146.017 86.572 145.755 86.2513C145.494 85.9307 144.881 86.4301 145.143 86.7508Z" fill="#575066"/>
<path d="M167.421 96.6989C167.398 96.2686 168.141 96.0969 168.309 96.4933C168.255 96.8884 167.633 97.0374 167.405 96.7101L167.421 96.6989Z" fill="#575066"/>
<path d="M172.581 102.035C172.428 102.326 171.87 102.066 171.995 101.761C172.026 101.526 172.323 101.369 172.535 101.477C172.747 101.585 172.796 101.917 172.624 102.081L172.581 102.035Z" fill="#575066"/>
<path d="M148.215 94.1366C147.919 94.2452 147.667 93.762 147.886 93.5343C148.105 93.3066 148.531 93.4219 148.683 93.6985C148.529 93.8536 148.374 94.0087 148.22 94.1638L148.215 94.1366Z" fill="#575066"/>
<path d="M130.239 111.252C130.44 111.137 130.693 111.388 130.662 111.618C130.63 111.847 130.428 112.012 130.226 112.125C129.888 111.961 129.902 111.375 130.247 111.227L130.239 111.252Z" fill="#575066"/>
<path d="M137.454 87.1415C137.359 86.7461 137.868 86.29 138.163 86.5703C138.145 86.7933 138.118 87.0358 137.961 87.1956C137.805 87.3554 137.473 87.3439 137.409 87.1293L137.454 87.1415Z" fill="#575066"/>
<path d="M156.001 116.175C156.023 116.605 155.281 116.777 155.112 116.38C155.167 115.985 155.789 115.836 156.017 116.164L156.001 116.175Z" fill="#575066"/>
<path d="M135.384 111.301C134.956 111.36 135.068 112.176 135.495 112.118C135.923 112.06 135.811 111.243 135.384 111.301Z" fill="#575066"/>
<path d="M155.147 111.221C155.518 111.458 155.523 112.091 155.156 112.334C154.786 112.093 154.785 111.459 155.153 111.216L155.147 111.221Z" fill="#575066"/>
<path d="M138.004 94.0681C137.708 94.2684 137.254 94.1736 137.063 93.8715C137.258 93.7138 137.482 93.5508 137.732 93.5709C137.982 93.591 138.197 93.9116 138.03 94.099L138.004 94.0681Z" fill="#575066"/>
<path d="M145.787 116.837C145.634 117.128 145.076 116.868 145.2 116.564C145.231 116.328 145.528 116.172 145.74 116.28C145.953 116.387 146.001 116.719 145.829 116.884L145.787 116.837Z" fill="#575066"/>
<path d="M122.92 96.9472C122.623 97.0557 122.372 96.5725 122.59 96.3448C122.809 96.1171 123.236 96.2325 123.388 96.509C123.233 96.6641 123.079 96.8193 122.924 96.9744L122.92 96.9472Z" fill="#575066"/>
<path d="M163.4 84.4217C163.247 84.7127 162.689 84.4528 162.813 84.1484C162.845 83.9125 163.141 83.7562 163.354 83.8641C163.566 83.9719 163.615 84.3036 163.442 84.468L163.4 84.4217Z" fill="#575066"/>
<path d="M152.785 88.8343C152.898 89.1301 152.783 89.4971 152.52 89.6744C152.348 89.462 152.165 89.2079 152.223 88.9407C152.282 88.6736 152.743 88.5671 152.807 88.8329L152.785 88.8343Z" fill="#575066"/>
<path d="M145.785 104.094C146.003 104.363 145.757 104.845 145.411 104.828C145.256 104.738 145.154 104.563 145.153 104.383C145.243 104.132 145.539 103.974 145.798 104.04L145.785 104.094Z" fill="#575066"/>
<path d="M147.693 86.8584C147.667 87.2666 148.447 87.3155 148.472 86.9073C148.498 86.4992 147.718 86.4503 147.693 86.8584Z" fill="#575066"/>
<path d="M160.585 93.6026C160.734 93.7122 160.836 93.8841 160.861 94.0677C160.729 94.2803 160.458 94.3973 160.213 94.3486C159.99 94.0841 160.242 93.5974 160.586 93.6258L160.585 93.6026Z" fill="#575066"/>
<path d="M150.561 118.99C150.449 119.139 150.278 119.241 150.094 119.27C149.945 119.158 149.843 118.987 149.814 118.804C149.957 118.634 150.16 118.481 150.378 118.515C150.597 118.548 150.741 118.87 150.563 119L150.561 118.99Z" fill="#575066"/>
<path d="M168.172 93.877C167.982 94.1707 167.541 94.2638 167.249 94.0718C167.116 93.872 167.327 93.5847 167.566 93.5667C167.806 93.5486 168.022 93.7081 168.185 93.884L168.172 93.877Z" fill="#575066"/>
<path d="M132.437 91.7845C132.256 91.5645 132.465 91.1699 132.751 91.1817C133.036 91.1935 133.22 91.5753 133.065 91.8153C132.91 92.0554 132.509 92.0619 132.332 91.8381L132.437 91.7845Z" fill="#575066"/>
<path d="M140.807 114.12C140.862 114.269 140.83 114.446 140.726 114.567C140.439 114.701 140.033 114.429 140.105 114.12C140.176 113.811 140.747 113.821 140.763 114.138L140.807 114.12Z" fill="#575066"/>
<path d="M165.277 106.878C165.068 106.859 165.053 106.517 165.226 106.397C165.399 106.278 165.631 106.318 165.836 106.362C165.934 106.492 165.969 106.668 165.928 106.825C165.725 106.92 165.491 106.947 165.272 106.899L165.277 106.878Z" fill="#575066"/>
<path d="M145.409 91.1658C145.597 91.1657 145.785 91.1655 145.972 91.1653C146.06 91.3039 146.094 91.4764 146.063 91.6379C145.852 91.722 145.609 91.8053 145.406 91.7018C145.204 91.5984 145.191 91.2176 145.416 91.1919L145.409 91.1658Z" fill="#575066"/>
<path d="M156.03 91.3759C155.884 90.9939 155.154 91.2729 155.301 91.6548C155.447 92.0368 156.176 91.7579 156.03 91.3759Z" fill="#575066"/>
<path d="M167.437 92.0121C167.389 91.8007 167.434 91.5483 167.613 91.4264C167.792 91.3044 168.102 91.4147 168.102 91.6314C168.069 91.8201 168.024 92.0271 167.871 92.142C167.718 92.2569 167.431 92.177 167.438 91.9856L167.437 92.0121Z" fill="#575066"/>
<path d="M122.962 92.1911C122.667 92.2907 122.335 91.9396 122.45 91.6508C122.566 91.3619 123.049 91.3367 123.193 91.6119C123.103 91.7748 123.012 91.9376 122.922 92.1005L122.962 92.1911Z" fill="#575066"/>
<path d="M134.635 116.746C134.604 116.401 135.093 116.147 135.357 116.371C135.471 116.561 135.393 116.84 135.196 116.942C135 117.045 134.727 116.95 134.636 116.748L134.635 116.746Z" fill="#575066"/>
<path d="M158.284 104.606C158.583 104.332 158.059 103.76 157.759 104.034C157.46 104.309 157.985 104.881 158.284 104.606Z" fill="#575066"/>
<path d="M143.347 107.447C143.089 107.529 142.828 107.196 142.937 106.949C143.046 106.701 143.415 106.641 143.626 106.81C143.689 107.055 143.566 107.336 143.343 107.456L143.347 107.447Z" fill="#575066"/>
<path d="M160.088 84.92C159.806 84.6449 160.226 84.0748 160.573 84.2624C160.843 84.5291 160.441 85.0781 160.105 84.901L160.088 84.92Z" fill="#575066"/>
<path d="M143.535 93.9674C143.22 94.003 142.819 93.9815 142.699 93.6884C142.888 93.4433 143.237 93.3348 143.531 93.4292C143.668 93.5796 143.673 93.8313 143.543 93.9873L143.535 93.9674Z" fill="#575066"/>
<path d="M157.669 88.794C157.987 88.6622 158.37 89.0622 158.223 89.3741C158.074 89.5323 157.79 89.5341 157.638 89.3778C157.487 89.2216 157.496 88.9384 157.659 88.7931L157.669 88.794Z" fill="#575066"/>
<path d="M155.06 86.3886C155.172 86.2399 155.343 86.1373 155.527 86.109C155.676 86.2204 155.778 86.3916 155.806 86.5752C155.695 86.7237 155.524 86.8261 155.34 86.8539C155.191 86.743 155.089 86.5709 155.063 86.3868L155.06 86.3886Z" fill="#575066"/>
<path d="M143.507 99.3502C143.306 99.6929 142.71 99.6741 142.532 99.3194C142.702 98.964 143.301 98.9474 143.491 99.2928L143.507 99.3502Z" fill="#575066"/>
<path d="M130.226 108.953C130.428 108.926 130.58 109.181 130.514 109.373C130.448 109.565 130.244 109.678 130.044 109.714C129.896 109.602 129.794 109.431 129.766 109.248C129.877 109.098 130.049 108.996 130.233 108.97L130.226 108.953Z" fill="#575066"/>
<path d="M150.892 114.203C150.9 114.349 150.908 114.495 150.917 114.642C150.736 114.901 150.238 114.761 150.219 114.446C150.199 114.13 150.675 113.93 150.887 114.164L150.892 114.203Z" fill="#575066"/>
<path d="M160.586 106.344C160.734 106.456 160.837 106.627 160.865 106.811C160.754 106.96 160.583 107.062 160.399 107.09C160.251 106.979 160.148 106.808 160.12 106.624C160.231 106.475 160.403 106.373 160.587 106.347L160.586 106.344Z" fill="#575066"/>
<path d="M137.465 116.929C137.396 116.722 137.454 116.463 137.639 116.347C137.825 116.232 138.122 116.334 138.153 116.55C138.074 116.712 137.995 116.874 137.915 117.036C137.757 117.018 137.599 116.999 137.44 116.981L137.465 116.929Z" fill="#575066"/>
<path d="M150.953 89.1993C150.975 89.4502 150.707 89.6806 150.462 89.6215C150.217 89.5624 150.084 89.2352 150.218 89.0217C150.424 88.8245 150.828 88.9363 150.903 89.2113L150.953 89.1993Z" fill="#575066"/>
<path d="M129.841 104.271C130.028 103.999 130.558 104.234 130.482 104.555C130.404 104.717 130.228 104.827 130.049 104.827C129.842 104.747 129.74 104.47 129.846 104.276L129.841 104.271Z" fill="#575066"/>
<path d="M167.723 88.5388C167.952 88.8953 167.502 89.4359 167.11 89.2743C167.056 88.9224 167.352 88.5573 167.708 88.5383L167.723 88.5388Z" fill="#575066"/>
<path d="M127.133 96.508C127.122 96.1577 127.604 95.9106 127.882 96.1241C128.026 96.5123 127.362 96.8588 127.126 96.518L127.133 96.508Z" fill="#575066"/>
<path d="M172.201 96.2223C172.328 96.0551 172.565 95.981 172.765 96.0458C172.857 96.1751 172.89 96.3449 172.853 96.4994C172.699 96.5895 172.545 96.6797 172.39 96.7698C172.186 96.6868 172.087 96.4113 172.193 96.2173L172.201 96.2223Z" fill="#575066"/>
<path d="M153.009 86.3715C153.281 86.5584 153.045 87.0889 152.724 87.0131C152.563 86.9344 152.453 86.759 152.453 86.5792C152.532 86.3723 152.81 86.2703 153.004 86.3765L153.009 86.3715Z" fill="#575066"/>
<path d="M130.337 88.9948C130.608 89.1817 130.373 89.7122 130.052 89.6364C129.891 89.5577 129.781 89.3823 129.781 89.2025C129.86 88.9956 130.138 88.8936 130.332 88.9998L130.337 88.9948Z" fill="#575066"/>
<path d="M153.369 96.1305C153.168 96.4217 152.726 96.5113 152.426 96.3219C152.421 95.8797 153.186 95.7293 153.348 96.1407L153.369 96.1305Z" fill="#575066"/>
<path d="M137.259 107C137.371 106.851 137.543 106.749 137.727 106.72C137.875 106.832 137.978 107.003 138.006 107.186C137.894 107.335 137.723 107.437 137.54 107.465C137.39 107.354 137.288 107.182 137.262 106.998L137.259 107Z" fill="#575066"/>
<path d="M141.005 94.2567C140.893 94.4054 140.722 94.5079 140.538 94.5363C140.389 94.4249 140.287 94.2537 140.259 94.0701C140.37 93.9215 140.541 93.8192 140.725 93.7914C140.874 93.9023 140.976 94.0744 141.002 94.2584L141.005 94.2567Z" fill="#575066"/>
<path d="M167.446 101.952C167.594 101.61 168.174 101.596 168.337 101.931C168.171 102.29 167.568 102.311 167.378 101.964L167.446 101.952Z" fill="#575066"/>
<path d="M152.991 118.98C152.836 119.075 152.681 119.17 152.525 119.264C152.378 119.157 152.278 118.986 152.255 118.805C152.389 118.593 152.659 118.476 152.906 118.524C152.995 118.659 153.027 118.832 152.992 118.99L152.991 118.98Z" fill="#575066"/>
<path d="M152.623 113.933C152.537 113.724 152.878 113.621 153.101 113.654C153.199 113.855 153.226 114.089 153.179 114.307C153.044 114.397 152.874 114.43 152.715 114.398C152.626 114.263 152.594 114.091 152.629 113.933L152.623 113.933Z" fill="#575066"/>
<path d="M137.259 91.8225C137.371 91.6737 137.543 91.5712 137.727 91.5428C137.875 91.6542 137.978 91.8254 138.006 92.009C137.894 92.1576 137.723 92.2599 137.54 92.2877C137.39 92.1768 137.288 92.0047 137.262 91.8207L137.259 91.8225Z" fill="#575066"/>
<path d="M162.833 96.2258C163.039 96.1341 163.146 96.4765 163.112 96.7001C162.911 96.7976 162.678 96.8273 162.459 96.7833C162.37 96.6475 162.337 96.4764 162.369 96.3172C162.504 96.2276 162.676 96.1958 162.834 96.2312L162.833 96.2258Z" fill="#575066"/>
<path d="M130.503 94.0725C130.55 94.2284 130.521 94.4057 130.425 94.5379C130.263 94.5763 130.086 94.5429 129.949 94.4485C129.95 94.2605 129.951 94.0724 129.953 93.8844C130.111 93.6812 130.509 93.813 130.515 94.0703L130.503 94.0725Z" fill="#575066"/>
<path d="M138.118 102.232C137.931 102.504 137.401 102.268 137.476 101.948C137.555 101.786 137.73 101.676 137.91 101.676C138.117 101.756 138.219 102.033 138.113 102.227L138.118 102.232Z" fill="#575066"/>
<path d="M133.128 93.5333C133.31 93.5734 133.378 93.8523 133.234 93.9713C132.922 94.0029 132.525 93.9865 132.406 93.6971C132.537 93.4387 132.903 93.3353 133.15 93.4873L133.128 93.5333Z" fill="#575066"/>
<path d="M143.347 116.462C143.496 116.574 143.599 116.746 143.627 116.93C143.516 117.078 143.344 117.181 143.161 117.209C143.012 117.097 142.91 116.926 142.882 116.742C142.993 116.593 143.165 116.491 143.349 116.465L143.347 116.462Z" fill="#575066"/>
<path d="M149.998 101.561C150.235 101.388 150.622 101.492 150.74 101.761C150.551 102.006 150.203 102.114 149.908 102.019C149.782 101.892 149.84 101.639 150.009 101.58L149.998 101.561Z" fill="#575066"/>
<path d="M135.495 99.7961C135.308 100.068 134.777 99.8326 134.853 99.5117C134.932 99.35 135.107 99.2403 135.287 99.2404C135.494 99.3197 135.596 99.597 135.49 99.7915L135.495 99.7961Z" fill="#575066"/>
<path d="M150.478 106.524C150.274 106.212 149.676 106.601 149.88 106.914C150.084 107.226 150.681 106.837 150.478 106.524Z" fill="#575066"/>
<path d="M130.455 101.848C130.414 102.24 129.732 102.312 129.611 101.937C129.745 101.635 130.229 101.579 130.428 101.843L130.455 101.848Z" fill="#575066"/>
<path d="M147.857 116.995C147.452 116.842 147.598 116.088 148.031 116.097C148.23 116.387 148.139 116.834 147.842 117.022L147.857 116.995Z" fill="#575066"/>
<path d="M127.757 94.0338C127.614 93.9291 127.471 93.8245 127.328 93.7199C127.477 93.36 128.088 93.3466 128.253 93.6996C128.147 93.8485 127.976 93.9498 127.795 93.9717L127.757 94.0338Z" fill="#575066"/>
<path d="M155.245 108.868C155.519 109.056 155.466 109.554 155.158 109.679C154.786 109.556 154.854 108.881 155.243 108.833L155.245 108.868Z" fill="#575066"/>
<path d="M167.51 87.0497C167.714 87.3625 168.311 86.9734 168.108 86.6606C167.904 86.3478 167.306 86.7369 167.51 87.0497Z" fill="#575066"/>
<path d="M150.02 116.192C150.17 115.849 150.753 115.838 150.915 116.176C150.758 116.519 150.169 116.516 150.015 116.171L150.02 116.192Z" fill="#575066"/>
<path d="M140.386 86.5364C140.491 86.3934 140.596 86.2505 140.7 86.1075C141.06 86.2561 141.074 86.8674 140.721 87.0316C140.572 86.9257 140.47 86.7553 140.449 86.5739L140.386 86.5364Z" fill="#575066"/>
<path d="M162.847 93.9526C162.607 93.9138 162.637 93.5013 162.865 93.4195C163.093 93.3377 163.343 93.4972 163.483 93.6947C163.351 93.907 163.08 94.0228 162.836 93.9718L162.847 93.9526Z" fill="#575066"/>
<path d="M160.139 101.763C160.257 101.498 160.633 101.39 160.874 101.551C160.947 101.756 160.814 102.009 160.605 102.065C160.395 102.122 160.153 101.969 160.114 101.756L160.139 101.763Z" fill="#575066"/>
<path d="M137.903 98.8719C138.142 98.9107 138.112 99.3233 137.884 99.4051C137.656 99.4869 137.407 99.3274 137.266 99.1298C137.398 98.9176 137.669 98.8017 137.914 98.8528L137.903 98.8719Z" fill="#575066"/>
<path d="M157.767 102.227C157.97 102.54 158.568 102.151 158.364 101.838C158.16 101.525 157.563 101.914 157.767 102.227Z" fill="#575066"/>
<path d="M141.199 111.88C141.512 111.676 141.123 111.079 140.81 111.283C140.497 111.486 140.887 112.084 141.199 111.88Z" fill="#575066"/>
<path d="M165.232 96.8443C165.089 96.7397 164.946 96.6351 164.803 96.5304C164.952 96.1705 165.563 96.1571 165.727 96.5102C165.621 96.6591 165.451 96.7604 165.27 96.7823L165.232 96.8443Z" fill="#575066"/>
<path d="M163.284 101.741C163.134 102.084 162.55 102.095 162.388 101.757C162.546 101.414 163.135 101.417 163.289 101.762L163.284 101.741Z" fill="#575066"/>
<path d="M170.591 96.4943C170.441 96.8377 169.858 96.8482 169.696 96.5104C169.853 96.1674 170.442 96.1706 170.596 96.5154L170.591 96.4943Z" fill="#575066"/>
<path d="M134.561 109.399C134.663 109.185 134.765 108.971 134.868 108.757C135.072 108.897 135.257 109.13 135.198 109.371C135.14 109.611 134.716 109.68 134.667 109.437L134.561 109.399Z" fill="#575066"/>
<path d="M172.918 94.051C172.704 93.9486 172.489 93.8463 172.275 93.7439C172.415 93.5397 172.648 93.355 172.889 93.4133C173.13 93.4715 173.198 93.8956 172.955 93.9447L172.918 94.051Z" fill="#575066"/>
<path d="M160.216 111.224C160.38 111.179 160.564 111.211 160.704 111.309C160.63 111.575 160.45 111.81 160.213 111.951C159.922 111.843 159.926 111.338 160.219 111.235L160.216 111.224Z" fill="#575066"/>
<path d="M122.539 99.3501C122.422 98.9243 123.242 98.7096 123.349 99.1383C123.23 99.3947 122.862 99.4936 122.631 99.3311L122.539 99.3501Z" fill="#575066"/>
<path d="M122.561 94.1401C122.322 94.1013 122.352 93.6887 122.58 93.6069C122.808 93.5251 123.057 93.6846 123.198 93.8821C123.066 94.0944 122.795 94.2102 122.55 94.1592L122.561 94.1401Z" fill="#575066"/>
<path d="M158.26 108.872C158.249 109.06 158.132 109.238 157.964 109.323C157.619 109.164 157.622 108.572 157.969 108.417C158.117 108.524 158.218 108.694 158.24 108.875L158.26 108.872Z" fill="#575066"/>
<path d="M127.613 107.497C127.329 107.5 127.286 107.09 127.343 106.813C127.485 106.671 127.743 106.67 127.887 106.81C127.95 107.055 127.826 107.336 127.603 107.456L127.613 107.497Z" fill="#575066"/>
<path d="M160.843 109.254C160.751 108.887 160.051 109.062 160.143 109.429C160.234 109.795 160.934 109.62 160.843 109.254Z" fill="#575066"/>
<path d="M160.48 89.5502C160.278 89.6641 160.058 89.3359 160.177 89.1367C160.296 88.9374 160.566 88.8934 160.797 88.9138C160.891 89.158 160.733 89.4668 160.48 89.5336L160.48 89.5502Z" fill="#575066"/>
<path d="M152.893 93.6255C153.132 93.6643 153.102 94.0768 152.874 94.1586C152.646 94.2404 152.397 94.0809 152.256 93.8834C152.388 93.6711 152.659 93.5553 152.904 93.6063L152.893 93.6255Z" fill="#575066"/>
<path d="M125.558 96.2851C125.675 96.7109 124.855 96.9256 124.748 96.4969C124.867 96.2405 125.235 96.1416 125.466 96.3041L125.558 96.2851Z" fill="#575066"/>
<path d="M138.095 104.095C138.284 104.305 138.189 104.696 137.924 104.795C137.507 104.7 137.71 103.899 138.123 104.015L138.095 104.095Z" fill="#575066"/>
<path d="M145.632 96.0324C145.658 96.1917 145.684 96.351 145.709 96.5104C145.472 96.688 145.08 96.5867 144.958 96.3161C145.084 96.1033 145.356 95.9879 145.596 96.0443L145.632 96.0324Z" fill="#575066"/>
<path d="M132.581 114.494C132.195 114.586 132.14 113.88 132.476 113.669C132.78 113.81 132.841 114.292 132.582 114.504L132.581 114.494Z" fill="#575066"/>
<path d="M141.088 118.921C141.327 118.96 141.297 119.372 141.069 119.454C140.841 119.536 140.592 119.376 140.452 119.179C140.584 118.967 140.854 118.851 141.099 118.902L141.088 118.921Z" fill="#575066"/>
<path d="M160.483 96.1339C160.529 96.2895 160.5 96.4653 160.407 96.598C160.161 96.6546 159.878 96.5446 159.761 96.321C159.892 96.0626 160.259 95.9589 160.506 96.1101L160.483 96.1339Z" fill="#575066"/>
<path d="M159.745 86.5778C159.849 86.4263 160.024 86.325 160.207 86.3092C160.494 86.4272 160.496 86.9188 160.21 87.0392C160.054 86.8845 159.899 86.7298 159.743 86.5751L159.745 86.5778Z" fill="#575066"/>
<path d="M130.138 96.4996C129.928 96.6889 129.537 96.5936 129.437 96.3289C129.533 95.911 130.334 96.1148 130.218 96.5274L130.138 96.4996Z" fill="#575066"/>
<path d="M150.853 104.342C150.971 104.768 150.15 104.983 150.044 104.554C150.163 104.298 150.531 104.199 150.762 104.361L150.853 104.342Z" fill="#575066"/>
<path d="M154.861 88.8029C155.064 88.7062 155.337 88.8076 155.428 89.0133C155.275 89.1661 155.122 89.3189 154.968 89.4716C154.716 89.3773 154.653 88.9825 154.862 88.8139L154.861 88.8029Z" fill="#575066"/>
<path d="M157.482 86.9715C157.296 86.8415 157.293 86.5218 157.477 86.3887C157.661 86.2556 157.964 86.3583 158.029 86.5759C157.921 86.7793 157.719 86.9304 157.494 86.9768L157.482 86.9715Z" fill="#575066"/>
<path d="M158.086 111.684C158.066 111.944 157.669 112.069 157.504 111.866C157.419 111.62 157.577 111.342 157.799 111.206C157.895 111.359 157.99 111.512 158.086 111.666L158.086 111.684Z" fill="#575066"/>
<path d="M175.199 91.7183C175.043 91.7643 174.868 91.7355 174.735 91.6423C174.678 91.3966 174.788 91.1128 175.012 90.996C175.27 91.1275 175.374 91.494 175.223 91.7414L175.199 91.7183Z" fill="#575066"/>
<path d="M147.656 91.7303C147.479 91.4979 147.581 91.1112 147.849 90.9953C148.06 91.1248 148.175 91.394 148.123 91.6364C147.988 91.7253 147.817 91.7569 147.659 91.7219L147.656 91.7303Z" fill="#575066"/>
<path d="M160.061 91.4081C160.167 91.2635 160.272 91.1189 160.378 90.9743C160.608 91.0923 160.737 91.3783 160.673 91.6287C160.521 91.836 160.118 91.7029 160.119 91.4457L160.061 91.4081Z" fill="#575066"/>
<path d="M163.02 114.403C162.844 114.17 162.946 113.783 163.213 113.668C163.425 113.797 163.54 114.066 163.488 114.309C163.353 114.398 163.181 114.429 163.023 114.394L163.02 114.403Z" fill="#575066"/>
<path d="M134.915 96.6072C134.795 96.4424 134.863 96.1756 135.046 96.0876C135.23 95.9997 135.48 96.1146 135.533 96.3113C135.458 96.567 135.153 96.7289 134.899 96.6488L134.915 96.6072Z" fill="#575066"/>
<path d="M132.703 115.825C132.916 115.926 133.129 116.028 133.342 116.13C133.222 116.369 132.934 116.51 132.672 116.458C132.538 116.302 132.531 116.052 132.656 115.889L132.703 115.825Z" fill="#575066"/>
<path d="M153.128 116.455C153.152 116.613 153.176 116.77 153.2 116.928C153.066 117.022 152.889 117.051 152.732 117.004C152.458 116.79 152.808 116.253 153.114 116.418L153.128 116.455Z" fill="#575066"/>
<path d="M160.696 114.306C160.684 114.495 160.567 114.673 160.399 114.76C160.178 114.643 160.059 114.363 160.127 114.123C160.28 113.917 160.681 114.052 160.679 114.308L160.696 114.306Z" fill="#575066"/>
<path d="M155.528 96.5994C155.404 96.7153 155.281 96.8312 155.158 96.9471C154.9 96.8943 154.801 96.5021 155.003 96.3335C155.204 96.1648 155.573 96.331 155.58 96.5935L155.528 96.5994Z" fill="#575066"/>
<path d="M172.844 91.4512C172.953 91.7369 172.702 92.0937 172.396 92.0868C172.134 91.8091 172.527 91.2658 172.873 91.4271L172.844 91.4512Z" fill="#575066"/>
<path d="M172.768 99.598C172.559 99.686 172.455 99.3429 172.488 99.1182C172.724 98.949 173.106 99.0557 173.22 99.323C173.115 99.4709 172.945 99.5715 172.764 99.593L172.768 99.598Z" fill="#575066"/>
<path d="M127.885 91.6333C127.931 91.9114 127.571 92.1594 127.328 92.0166C127.319 91.8129 127.321 91.5796 127.474 91.4443C127.627 91.309 127.951 91.4443 127.876 91.6341L127.885 91.6333Z" fill="#575066"/>
<path d="M157.591 116.835C157.44 116.73 157.338 116.556 157.323 116.372C157.441 116.086 157.932 116.084 158.053 116.369C157.898 116.525 157.743 116.681 157.588 116.836L157.591 116.835Z" fill="#575066"/>
<path d="M140.538 109.528C140.39 109.416 140.287 109.244 140.259 109.06C140.371 108.912 140.542 108.809 140.726 108.78C140.907 109.009 140.799 109.402 140.527 109.507L140.538 109.528Z" fill="#575066"/>
<path d="M157.578 99.7951C157.431 99.5575 157.67 99.1958 157.946 99.2367C158.222 99.4503 157.877 99.9917 157.567 99.8307L157.578 99.7951Z" fill="#575066"/>
<path d="M128.14 99.0887C128.318 99.4026 127.761 99.7732 127.541 99.4878C127.349 99.2233 127.861 98.889 128.077 99.1338L128.14 99.0887Z" fill="#575066"/>
<path d="M165.273 84.245C165.422 84.1874 165.603 84.222 165.72 84.3308C165.847 84.5638 165.586 84.8913 165.33 84.8205C165.075 84.7498 165.02 84.3348 165.248 84.2L165.273 84.245Z" fill="#575066"/>
<path d="M163.22 108.769C163.367 109.007 163.129 109.368 162.852 109.327C162.576 109.114 162.922 108.572 163.232 108.733L163.22 108.769Z" fill="#575066"/>
<path d="M155.243 99.8671C154.997 99.9815 154.844 99.585 154.875 99.3158C155.007 99.1587 155.291 99.1738 155.406 99.344C155.521 99.5141 155.429 99.7833 155.234 99.8474L155.243 99.8671Z" fill="#575066"/>
<path d="M138.109 96.4058C138.224 96.5766 138.148 96.8432 137.96 96.927C137.772 97.0109 137.522 96.8898 137.472 96.6902C137.592 96.4749 137.865 96.3584 138.103 96.4215L138.109 96.4058Z" fill="#575066"/>
<path d="M140.824 96.7292C140.667 96.7543 140.509 96.7793 140.351 96.8044C140.194 96.5719 140.442 96.2006 140.717 96.2561C140.901 96.297 140.968 96.58 140.822 96.6993L140.824 96.7292Z" fill="#575066"/>
<path d="M135.111 89.4854C134.774 89.5699 134.819 88.9563 135.097 88.7491C135.392 88.8478 135.391 89.359 135.096 89.4564L135.111 89.4854Z" fill="#575066"/>
<path d="M132.678 108.956C132.825 109.194 132.587 109.556 132.31 109.515C132.034 109.301 132.38 108.76 132.69 108.921L132.678 108.956Z" fill="#575066"/>
<path d="M129.7 99.652C129.802 99.523 129.905 99.3939 130.007 99.2648C130.242 99.2743 130.4 99.5872 130.269 99.782C130.137 99.9768 129.788 99.9471 129.691 99.7329L129.7 99.652Z" fill="#575066"/>
<path d="M157.758 93.7989C157.655 93.6005 157.759 93.3227 157.968 93.242C158.118 93.3419 158.218 93.5131 158.231 93.6928C158.169 93.8718 157.9 93.9329 157.767 93.7986L157.758 93.7989Z" fill="#575066"/>
<path d="M132.275 99.6074C132.172 99.409 132.276 99.1312 132.485 99.0505C132.635 99.1504 132.735 99.3216 132.748 99.5013C132.686 99.6803 132.418 99.7414 132.284 99.6071L132.275 99.6074Z" fill="#575066"/>
<path d="M175.24 88.9139C175.264 89.0782 175.289 89.2425 175.314 89.4068C175.15 89.4391 174.987 89.4713 174.823 89.5036C174.669 89.2591 174.911 88.8822 175.198 88.9205L175.24 88.9139Z" fill="#575066"/>
<path d="M135.308 101.65C135.443 101.901 135.196 102.257 134.914 102.221C134.827 102.083 134.794 101.911 134.824 101.751C134.96 101.662 135.132 101.63 135.29 101.665L135.308 101.65Z" fill="#575066"/>
<path d="M134.927 94.325C134.633 94.2373 134.624 93.7276 134.915 93.6301C135.208 93.7266 135.201 94.2373 134.906 94.326L134.927 94.325Z" fill="#575066"/>
<path d="M135.391 114.302C135.408 114.484 135.284 114.668 135.109 114.72C134.88 114.692 134.749 114.373 134.892 114.192C135.035 114.011 135.375 114.064 135.456 114.281L135.391 114.302Z" fill="#575066"/>
<path d="M137.522 111.974C137.418 111.776 137.523 111.498 137.732 111.417C137.881 111.517 137.982 111.688 137.995 111.868C137.932 112.047 137.664 112.108 137.53 111.974L137.522 111.974Z" fill="#575066"/>
<path d="M134.997 86.3907C135.016 86.1095 135.348 85.8283 135.564 86.0099C135.593 86.1933 135.594 86.4068 135.458 86.5337C135.323 86.6606 135.029 86.5656 135.066 86.3837L134.997 86.3907Z" fill="#575066"/>
<path d="M160.491 104.733C160.312 104.821 160.095 104.606 160.134 104.411C160.173 104.216 160.384 104.095 160.583 104.093C160.747 104.282 160.702 104.612 160.493 104.75L160.491 104.733Z" fill="#575066"/>
<path d="M140.379 106.583C140.482 106.457 140.585 106.331 140.689 106.205C140.911 106.195 141.081 106.483 140.966 106.673C140.851 106.863 140.517 106.846 140.422 106.645L140.379 106.583Z" fill="#575066"/>
<path d="M155.526 104.836C155.366 104.876 155.19 104.85 155.05 104.764C155.051 104.512 155.271 104.246 155.517 104.298C155.763 104.351 155.763 104.816 155.511 104.802L155.526 104.836Z" fill="#575066"/>
<path d="M153.081 98.8776C153.293 98.9359 153.402 99.2235 153.282 99.4074C153.104 99.45 152.908 99.4083 152.763 99.2971C152.862 99.1411 152.961 98.9851 153.06 98.8291L153.081 98.8776Z" fill="#575066"/>
<path d="M135 103.967C135.306 103.956 135.156 104.459 134.914 104.646C134.754 104.458 134.804 104.133 135.012 104.002L135 103.967Z" fill="#575066"/>
<path d="M165.173 104C165.417 104.119 165.353 104.564 165.086 104.608C164.768 104.546 164.862 103.944 165.184 103.982L165.173 104Z" fill="#575066"/>
<path d="M147.536 96.5688C147.383 96.4854 147.479 96.2207 147.648 96.1801C147.818 96.1395 147.986 96.2372 148.133 96.3307C148.126 96.5872 147.718 96.7063 147.574 96.4942L147.536 96.5688Z" fill="#575066"/>
<path d="M140.913 104.653C140.795 104.897 140.35 104.833 140.305 104.565C140.368 104.247 140.97 104.341 140.932 104.663L140.913 104.653Z" fill="#575066"/>
<path d="M127.532 113.752C127.601 113.532 127.982 113.526 128.058 113.744C127.983 113.963 127.601 113.957 127.533 113.736L127.532 113.752Z" fill="#575066"/>
<path d="M137.651 118.811C137.72 118.591 138.1 118.585 138.176 118.803C138.101 119.022 137.719 119.016 137.651 118.796L137.651 118.811Z" fill="#575066"/>
<path d="M175.078 86.563C175.026 86.7726 174.743 86.884 174.562 86.7665C174.472 86.598 174.542 86.3533 174.72 86.2852C174.899 86.2171 175.129 86.3907 175.086 86.5769L175.078 86.563Z" fill="#575066"/>
<path d="M170.102 112.029C169.975 111.926 169.849 111.823 169.723 111.719C169.714 111.497 170.001 111.327 170.191 111.442C170.381 111.557 170.364 111.891 170.163 111.986L170.102 112.029Z" fill="#575066"/>
<path d="M165.178 114.5C164.994 114.419 165.062 114.077 165.263 114.073C165.532 114.081 165.39 114.637 165.185 114.464L165.178 114.5Z" fill="#575066"/>
<path d="M138.408 290.702C126.614 279.928 116.63 267.176 109.001 253.14C105.783 247.22 102.907 240.569 104.112 233.939C106.365 221.539 101.708 209.078 98.0402 197.019C94.3721 184.961 91.7735 171.345 97.6739 160.207C88.3662 168.79 84.6334 181.796 82.638 194.299C78.0119 223.285 80.6155 253.397 90.1481 281.159C78.9552 260.669 78.5151 236.155 79.5765 212.832C80.4025 194.683 82.4321 175.357 93.8325 161.211C76.2814 175.525 70.941 199.688 67.0682 222.002C63.4317 242.955 60.195 264.945 66.9374 285.114C60.5759 273.387 61.6149 259.197 62.9282 245.92C65.949 215.381 70.6001 182.495 91.9911 160.491C97.6487 154.671 104.555 149.736 112.48 147.984C118.621 146.626 124.538 144.257 129.919 141.001C131.216 133.405 124.069 127.424 119.076 121.555C113.484 114.983 109.996 106.648 109.239 98.0516C108.791 92.9633 107.723 86.0306 102.62 85.8136C98.425 85.6353 95.2668 80.5735 96.9508 76.7274C98.6347 72.8812 104.496 71.7684 107.473 74.7298C103.227 58.8127 112.196 40.4479 127.36 34.01C124.887 30.4741 130.284 26.2365 134.569 26.7429C138.853 27.2494 143.001 29.8375 147.208 28.8813C145.766 26.3425 148.076 22.9693 150.923 22.319C153.769 21.6687 156.69 22.9044 159.243 24.3208C175.632 33.4133 186.462 51.7497 186.514 70.4918C186.938 67.0708 192.072 65.8993 194.582 68.2611C197.093 70.6229 196.974 74.8501 195.191 77.8003C193.408 80.7506 190.369 82.6875 187.361 84.3713C187.437 96.8 182.71 109.197 174.379 118.421C168.317 125.132 159.728 132.251 161.717 141.074C164.942 140.36 168.205 144.081 167.076 147.185C180.903 146.033 193.807 154.378 203.603 164.205C217.963 178.609 228.285 196.998 233.1 216.76C233.941 220.212 238.852 221.153 241.891 219.311C244.929 217.47 246.491 213.987 247.875 210.715C256.992 189.169 266.109 167.624 275.227 146.079C272.175 127.326 274.89 128.371 276.319 119.602C280.227 109.41 279.48 100.201 281.06 90.5006C281.491 87.859 283.338 84.3732 285.778 85.4744C287.011 86.0314 287.447 87.5353 287.71 88.8631C289.189 96.3252 289.662 103.986 289.111 111.573C292.267 106.175 295.423 100.776 298.579 95.3768C300.307 92.4219 304.122 89.1132 306.518 91.5577C307.834 92.9004 307.488 95.1033 306.945 96.9031C305.218 102.628 302.402 108.023 298.693 112.714C303.694 114.42 309.485 117.01 310.361 122.22C310.724 124.381 310.112 126.581 309.386 128.649C306.864 135.837 302.879 142.51 297.746 148.139C298.924 147.429 299.694 149.543 299.46 150.899C293.83 183.474 280.11 214.619 259.875 240.76C253.904 248.474 245.803 256.431 236.09 255.521C230.011 254.951 224.873 250.962 220.116 247.133C214.995 243.01 209.873 238.888 204.751 234.765C216.673 237.428 223.313 252.302 235.441 253.77C245.302 254.964 253.58 246.705 259.54 238.758C278.987 212.829 292.269 182.308 297.989 150.405C290.212 151.71 282.117 151.073 274.641 148.568C267.222 171.569 257.879 193.949 246.741 215.398C244.816 219.105 241.392 223.414 237.438 222.066C235.668 221.463 234.472 219.838 233.475 218.257C223.509 202.45 221.193 181.372 206.657 169.629C212.515 205.962 203.279 242.909 192.824 278.195C200.828 250.699 205.703 222.294 207.327 193.703C207.699 187.139 207.885 180.43 206.028 174.124C204.17 167.817 199.929 161.883 193.773 159.574C189.764 185.65 166.281 205.047 160.338 230.751C155.533 251.536 148.149 271.723 138.408 290.702ZM162.547 219.321C171.481 202.336 183.194 186.787 190.467 169.027C192.12 164.989 193.484 160.19 191.236 156.45C190.424 155.1 189.215 154.044 188.025 153.011C186.145 151.377 184.082 149.665 181.6 149.463C178.305 149.195 175.449 151.659 173.329 154.195C168.19 160.345 164.871 167.779 161.715 175.146C154.165 192.769 147.148 210.704 142.734 229.361C138.32 248.017 136.561 267.491 139.596 286.421C143.439 269.061 156.363 254.352 158.134 236.66C158.426 233.746 158.407 230.788 159.041 227.929C159.713 224.895 161.1 222.071 162.547 219.321ZM180.234 59.0209C179.024 56.6884 177.514 54.4575 175.45 52.8319C170.852 49.2109 164.377 49.2013 158.624 50.2773C154.947 50.9651 151.339 52.0258 147.875 53.4378C146.97 53.8064 146.01 54.2072 145.049 54.0325C144.088 53.8578 143.223 52.8217 143.617 51.928C143.693 51.756 143.81 51.5964 143.83 51.4096C143.887 50.8864 143.221 50.6245 142.701 50.5494C134.783 49.4078 126.352 50.743 119.696 55.1801C113.04 59.6172 108.432 67.3543 108.679 75.3499C108.734 77.1441 110.083 78.612 111.437 79.7904C113.508 81.5928 115.791 83.1523 118.222 84.4266C119.314 84.9987 120.811 85.4525 121.646 84.5455C123.301 82.7464 126.05 82.6066 128.494 82.6589C136.989 82.8408 145.529 83.8208 153.95 82.689C159.08 81.9995 164.076 80.5356 169.186 79.7118C170.751 79.4594 172.367 79.2692 173.91 79.6346C175.453 80.0001 176.927 81.0262 177.417 82.5338C179.407 80.2855 181.197 77.8598 182.757 75.295C183.226 74.5256 183.681 73.7253 183.854 72.8414C184.008 72.0567 183.932 71.2464 183.827 70.4537C183.304 66.4729 182.082 62.585 180.234 59.0209ZM167.493 114.873C170.491 113.559 172.176 110.371 173.31 107.3C176.013 99.9809 176.882 91.9928 175.815 84.264C175.708 83.4871 175.565 82.6731 175.069 82.0652C174.284 81.1022 172.881 80.9529 171.64 81.0035C168.72 81.1223 165.88 81.9269 163.038 82.6053C157.054 84.0336 150.924 84.9215 144.772 84.9422C138.692 84.9626 132.622 84.1379 126.547 84.3739C125.338 84.4209 124.06 84.5343 123.078 85.2423C121.522 86.3648 121.249 88.5395 121.186 90.4571C120.95 97.7475 121.81 105.072 123.73 112.11C123.845 112.532 123.975 112.973 124.282 113.286C124.614 113.622 125.095 113.753 125.549 113.886C132.888 116.035 139.237 122.191 146.867 121.66C152.527 121.266 157.285 117.207 162.825 115.984C164.391 115.638 166.025 115.517 167.493 114.873ZM104.748 235.304C104.293 241.919 108.035 248.01 111.635 253.579C115.279 259.215 118.922 264.852 122.566 270.489C117.192 252.604 114.657 233.991 112.933 215.396C111.133 195.98 110.239 176.062 115.548 157.3C116.39 154.323 117.4 151.359 119.03 148.729C114.143 148.602 108.943 148.976 104.957 151.806C102.365 153.645 100.525 156.375 99.1627 159.246C94.9521 168.118 94.9417 178.473 96.8032 188.115C98.6648 197.758 102.276 206.96 105.106 216.364C105.928 219.097 106.692 221.903 106.592 224.755C106.466 228.328 104.994 231.738 104.748 235.304ZM128.485 116.763C125.967 115.796 122.911 115.006 121.91 112.501C121.439 111.324 121.554 110.008 121.418 108.748C121.283 107.489 120.754 106.107 119.576 105.642C116.737 104.52 114.013 103.105 111.463 101.428C112.728 108.869 116.098 115.941 121.08 121.612C123.575 124.452 126.468 126.952 128.679 130.019C130.89 133.085 132.394 136.943 131.579 140.635C131.32 141.811 133.01 142.324 134.214 142.295C142.214 142.106 150.214 141.882 158.212 141.624C159.567 141.581 160.367 139.998 160.335 138.642C160.303 137.286 159.757 135.976 159.775 134.62C159.801 132.628 161.023 130.868 162.266 129.311C165.95 124.697 170.252 120.615 174.081 116.121C177.909 111.628 181.321 106.594 182.777 100.873C180.243 105.147 174.897 107.35 172.915 111.906C171.79 114.492 169.069 116.014 166.374 116.845C163.68 117.677 160.823 118.014 158.251 119.171C156.933 119.764 155.717 120.561 154.425 121.211C149.889 123.496 144.422 123.859 139.623 122.193C135.717 120.837 132.345 118.246 128.485 116.763ZM288.686 128.065C291.466 127.9 294.823 128.982 296.664 126.893C297.086 126.415 297.364 125.756 297.211 125.138C297.003 124.295 296.116 123.832 295.309 123.513C290.154 121.477 284.385 121.029 278.978 122.245C277.095 122.669 275.994 124.407 275.581 126.293C275.169 128.178 275.269 130.22 275.581 132.124C276.375 136.962 277.169 141.8 277.962 146.638C277.998 146.856 278.037 147.082 278.159 147.265C278.343 147.541 278.678 147.669 278.992 147.776C282.898 149.107 287.054 149.701 291.177 149.516C292.816 149.443 294.589 149.184 295.74 148.014C301.371 142.288 305.488 135.085 307.564 127.326C306.434 128.338 304.982 129.125 303.47 129.008C301.958 128.891 300.488 127.604 300.587 126.091C297.688 128.325 294.273 130.689 290.69 129.947C287.949 129.38 284.924 130.594 283.337 132.898C282.369 132.644 282.741 131.146 283.445 130.435C284.825 129.042 286.729 128.182 288.686 128.065ZM122.234 171.129C120.336 171.424 118.447 171.778 116.574 172.201C115.256 172.498 113.687 173.103 113.517 174.443C113.177 177.115 112.992 179.806 112.965 182.499C127.293 179.119 142.506 179.573 156.607 183.802C158.105 180.292 159.604 176.782 161.102 173.271C148.485 169.855 135.149 169.119 122.234 171.129ZM175.169 150.073C172.902 148.873 170.262 148.391 167.717 148.712C167.215 148.776 166.65 148.915 166.408 149.36C165.442 151.135 163.33 151.903 161.376 152.42C151.543 155.024 141.162 154.966 131.084 153.592C129.21 153.337 127.311 153.027 125.609 152.204C123.906 151.38 122.402 149.964 121.896 148.142C120.555 148.122 119.749 149.587 119.272 150.841C117.831 154.634 116.585 158.501 115.541 162.422C131.881 158.721 149.149 159.2 165.258 163.801C166.795 161.923 167.936 159.723 168.585 157.385C168.888 156.294 169.726 155.446 170.532 154.65C172.078 153.124 173.623 151.598 175.169 150.073ZM148.482 205.359C150.061 201.867 151.402 198.267 152.492 194.593C139.912 192.509 127.029 192.265 114.379 193.871C113.843 193.939 113.248 194.043 112.924 194.476C112.638 194.857 112.653 195.376 112.68 195.851C112.815 198.207 112.95 200.563 113.085 202.919C113.121 203.552 113.423 204.407 114.044 204.279C125.396 201.939 137.298 202.312 148.482 205.359ZM305.401 97.236C305.761 96.342 306.107 95.4022 306.028 94.4416C305.95 93.481 305.324 92.4968 304.377 92.3186C303.786 92.2075 303.177 92.4215 302.666 92.7369C301.413 93.5104 300.627 94.8381 299.891 96.1139C296.557 101.89 293.223 107.666 289.889 113.442C289.457 114.191 288.208 113.959 287.734 113.236C287.26 112.513 287.323 111.577 287.39 110.715C287.951 103.491 287.53 96.1911 286.144 89.0791C286.058 88.6374 285.961 88.181 285.696 87.8177C284.926 86.7652 283.129 87.131 282.354 88.1797C281.579 89.2284 281.534 90.6289 281.524 91.9329C281.446 101.867 281.54 112.153 277.527 121.24C281.603 119.658 286.192 119.43 290.404 120.6C291.007 120.767 291.631 120.963 292.245 120.847C292.859 120.731 293.442 120.172 293.335 119.556C292.933 117.25 294.589 115.152 296.044 113.318C299.914 108.444 303.076 103.009 305.401 97.236ZM165.631 144.8C165.353 143.661 164.332 142.615 163.165 142.72C151.255 143.786 139.277 144.089 127.329 143.627C126.621 143.6 125.877 143.577 125.249 143.905C124.806 144.136 124.46 144.528 124.225 144.969C123.271 146.759 124.24 149.093 125.865 150.306C127.49 151.519 129.584 151.873 131.596 152.127C140.38 153.236 149.332 153.119 158.052 151.587C159.935 151.256 161.866 150.834 163.425 149.727C164.983 148.62 166.083 146.657 165.631 144.8ZM144.398 217.73C144.467 217.492 144.533 217.222 144.408 217.008C144.274 216.78 143.981 216.712 143.72 216.668C134.253 215.062 124.562 215.851 114.992 216.644C114.721 216.667 114.413 216.71 114.261 216.935C114.142 217.11 114.159 217.341 114.181 217.551C114.458 220.268 114.735 222.985 115.013 225.702C115.066 226.224 115.287 226.901 115.81 226.874C124.132 226.449 132.495 226.818 140.747 227.973C141.271 228.047 141.587 227.421 141.734 226.913C142.622 223.852 143.51 220.791 144.398 217.73ZM138.971 242.177C139.012 241.786 139.036 241.341 138.765 241.056C138.558 240.838 138.237 240.781 137.939 240.74C131.461 239.838 124.878 240.478 118.369 241.12C118.044 241.152 117.667 241.216 117.51 241.503C117.403 241.699 117.437 241.94 117.474 242.161C117.911 244.765 118.347 247.368 118.784 249.971C118.847 250.346 119.045 250.826 119.421 250.77C125.63 249.845 132.237 249.573 137.916 252.249C138.268 248.891 138.62 245.534 138.971 242.177ZM112.928 100.421C115.273 102.032 117.848 103.308 120.55 104.199C119.374 98.773 119.143 93.143 119.872 87.6387C119.965 86.9428 119.181 86.4931 118.534 86.2204C114.75 84.6255 111.316 82.2069 108.54 79.1815C108.827 84.9238 109.448 90.6495 110.398 96.3198C110.541 97.1703 110.7 98.0442 111.161 98.7733C111.594 99.4591 112.259 99.9615 112.928 100.421ZM175.451 106.251C177.971 104.203 180.177 101.789 182.13 99.1953C183.184 97.796 184.177 96.3219 184.761 94.6704C185.348 93.01 185.5 91.23 185.57 89.4704C185.752 84.8646 185.401 80.2379 184.524 75.7126C182.501 78.461 180.478 81.2095 178.455 83.9579C178.145 84.3797 177.827 84.8169 177.707 85.3268C177.612 85.7356 177.65 86.1622 177.684 86.5807C178.225 93.1993 177.461 99.9218 175.451 106.251ZM136.366 274.333C136.809 274.423 137.012 273.804 137.023 273.352C137.087 270.651 137.151 267.951 137.215 265.25C137.221 265.006 137.225 264.753 137.12 264.533C136.926 264.128 136.438 263.974 136.003 263.86C133.545 263.221 131.05 262.577 128.51 262.608C126.4 262.634 124.311 263.126 122.202 263.074C121.963 263.068 121.651 263.107 121.601 263.341C121.583 263.422 121.606 263.506 121.629 263.586C122.56 266.817 123.786 269.963 125.285 272.972C125.482 273.367 125.717 273.79 126.127 273.95C126.417 274.063 126.741 274.021 127.049 273.982C130.147 273.595 133.307 273.714 136.366 274.333ZM186.972 71.5266C186.489 72.2724 186.062 73.0877 185.983 73.9724C185.935 74.5151 186.019 75.0599 186.104 75.5982C186.429 77.6725 186.754 79.7469 187.08 81.8213C187.099 81.9418 187.121 82.0693 187.201 82.1611C187.39 82.3767 187.74 82.2622 187.995 82.1325C189.025 81.6095 190.067 81.0785 190.936 80.318C191.634 79.7081 192.202 78.9659 192.737 78.2096C193.856 76.629 194.883 74.866 194.956 72.931C195.028 70.996 193.841 68.8925 191.937 68.5431C189.92 68.1731 188.085 69.8049 186.972 71.5266ZM99.3344 75.6342C98.5615 76.3115 98.2815 77.3871 98.1531 78.4067C98.0355 79.3403 98.0152 80.3127 98.339 81.1963C98.7857 82.4152 99.8474 83.3288 101.022 83.8811C102.197 84.4334 103.491 84.6702 104.768 84.9019C105.399 85.0162 106.029 85.1305 106.66 85.2449C106.816 85.2732 107.001 85.2931 107.111 85.1791C107.203 85.0844 107.203 84.9366 107.197 84.8049C107.093 82.4699 106.989 80.1349 106.884 77.7999C106.84 76.8079 106.131 75.9341 105.257 75.4631C104.383 74.9921 103.365 74.8653 102.372 74.84C101.301 74.8127 100.141 74.9276 99.3344 75.6342ZM301.992 115.591C301.528 115.084 300.843 114.852 300.185 114.655C299.488 114.446 298.735 114.255 298.043 114.483C297.258 114.741 296.739 115.475 296.325 116.19C295.698 117.272 295.178 118.415 294.775 119.599C294.633 120.018 294.503 120.458 294.563 120.897C294.622 121.335 294.921 121.771 295.356 121.853C297.132 122.186 298.684 123.524 299.273 125.232C300.098 123.503 300.923 121.775 301.748 120.046C302.089 119.331 302.435 118.603 302.552 117.82C302.669 117.036 302.527 116.175 301.992 115.591ZM308.173 119.211C307.328 118.416 305.923 118.472 304.946 119.097C303.97 119.722 303.362 120.791 302.968 121.882C302.521 123.124 302.303 124.449 302.329 125.77C302.336 126.085 302.359 126.411 302.504 126.69C302.855 127.366 303.78 127.517 304.518 127.33C306.13 126.923 307.204 125.426 308 123.967C308.411 123.215 308.792 122.426 308.899 121.577C309.006 120.727 308.797 119.797 308.173 119.211ZM138.191 287.8C137.794 285.508 137.398 283.216 137.001 280.924C136.955 280.657 136.893 280.364 136.676 280.202C136.533 280.096 136.349 280.068 136.173 280.046C134.13 279.78 132.054 279.766 130.008 280.006C132.423 282.907 135.175 285.528 138.191 287.8Z" fill="#00160A"/>
<path d="M20.8669 64.3301C18.8273 68.2399 17.7693 72.5778 17.795 76.9662C16.1013 73.6299 14.0731 70.1797 10.1626 69.1686C6.88726 68.2927 3.0941 70.0921 2.65062 73.6304C2.12014 77.8809 5.94804 81.5923 8.8193 84.212C12.1831 87.3069 16.0709 89.7923 20.056 92.0328C22.0964 93.1749 24.1587 94.2306 26.2293 95.3093C25.7714 96.7587 25.3336 98.4101 26.2081 99.7148C26.8941 100.722 28.2789 101.16 29.2866 100.27C30.2943 99.3794 30.2684 97.8444 29.6058 96.829C29.0257 95.9669 28.1197 95.3804 27.16 94.8659C27.212 94.7161 27.2489 94.5979 27.3009 94.4481C27.6767 93.2119 28.0844 91.9902 28.524 90.7832C29.3713 88.3544 30.306 85.9462 31.1449 83.4943C32.6381 79.1813 33.891 74.7202 34.0903 70.1452C34.2348 66.6634 34.0725 61.4608 30.7075 59.3872C26.6365 56.8377 22.611 60.9991 20.8669 64.3301ZM29.1071 97.5079C29.4216 98.1525 29.4641 99.0009 28.9233 99.5642C28.0114 100.498 26.8683 99.5531 26.6024 98.6028C26.3364 97.6525 26.598 96.6149 26.9083 95.6381C27.7958 96.1004 28.6849 96.6406 29.1071 97.5079ZM33.3179 67.7301C33.4232 69.9953 33.2597 72.2537 32.8424 74.4736C32.0415 79.0058 30.4458 83.3299 28.85 87.6541C28.0228 89.9185 27.1805 92.2145 26.4726 94.514C25.9213 94.2435 25.3869 94.0191 24.891 93.7546C22.933 92.7657 21.0136 91.7367 19.1009 90.6528C15.1948 88.4097 11.4162 85.8584 8.18506 82.689C6.31901 80.8552 4.24951 78.7551 3.45848 76.2159C2.62538 73.5611 3.66238 70.7753 6.45452 69.8114C11.7331 67.9949 15.5736 73.3508 17.7801 77.3643C17.7954 77.699 17.8107 78.0337 17.826 78.3685C17.8598 78.8274 18.5369 78.7118 18.5199 78.2992C18.3833 73.8988 19.1489 69.5626 21.0675 65.5398C22.0192 63.5443 23.2514 61.3681 25.2571 60.2192C27.4811 58.9386 30.1428 59.2263 31.636 61.3529C32.9089 63.167 33.2227 65.5658 33.3179 67.7301Z" fill="#575066"/>
<path d="M292.084 10.2101C288.008 11.8941 284.409 14.537 281.608 17.9153C282.455 14.2708 283.119 10.3242 280.774 7.03594C278.828 4.25964 274.765 3.19988 272.151 5.6253C269.013 8.54042 269.559 13.844 270.075 17.6964C270.662 22.2295 272.043 26.6324 273.656 30.9103C274.484 33.0968 275.386 35.2311 276.278 37.3884C274.996 38.2043 273.599 39.188 273.43 40.7496C273.309 41.9618 274.088 43.1877 275.432 43.1535C276.776 43.1192 277.743 41.9266 277.888 40.7229C277.998 39.6896 277.681 38.658 277.276 37.6469C277.413 37.5656 277.517 37.4988 277.653 37.4175C278.735 36.712 279.833 36.0383 280.946 35.3961C283.156 34.0803 285.42 32.8363 287.639 31.4973C291.555 29.1531 295.382 26.5411 298.476 23.1645C300.824 20.5901 304.044 16.5004 302.799 12.749C301.32 8.17916 295.561 8.77944 292.084 10.2101ZM277.07 40.9224C276.896 41.6184 276.384 42.2956 275.607 42.3795C274.308 42.5088 274.04 41.0501 274.447 40.1511C274.854 39.2522 275.722 38.6255 276.587 38.0767C276.97 39.0013 277.304 39.9867 277.07 40.9224ZM299.436 20.8179C298.061 22.6209 296.484 24.2458 294.737 25.6781C291.211 28.6352 287.209 30.922 283.207 33.2087C281.118 34.4116 278.996 35.6291 276.976 36.9355C276.728 36.3739 276.462 35.8586 276.253 35.3372C275.388 33.3211 274.579 31.299 273.811 29.2392C272.261 25.0101 271.006 20.6269 270.568 16.1221C270.317 13.5178 270.082 10.5788 271.108 8.12515C272.176 5.55595 274.761 4.08852 277.52 5.14488C282.731 7.14632 282.23 13.7178 281.341 18.2107C281.137 18.4769 280.934 18.7432 280.731 19.0094C280.461 19.3827 281.054 19.7294 281.307 19.4024C284.03 15.9436 287.404 13.1141 291.46 11.2657C293.472 10.3487 295.814 9.47373 298.089 9.88289C300.616 10.3314 302.47 12.2628 302.247 14.8516C302.056 17.0595 300.754 19.0988 299.436 20.8179Z" fill="#575066"/>
</svg>
