<svg width="311" height="310" viewBox="0 0 311 310" fill="none" xmlns="http://www.w3.org/2000/svg">
<rect width="311" height="310" fill="white"/>
<path fill-rule="evenodd" clip-rule="evenodd" d="M254.981 169.175C255.553 239.59 224.752 291.03 165.865 293.951C122.946 296.079 148.62 228.739 94.8296 184.029C60.3982 155.409 37.6726 81.0498 122.533 61.8233C207.393 42.5969 254.409 98.7591 254.981 169.175Z" fill="#672DE3"/>
<path d="M81.2102 271.423C75.8681 261.575 76.7406 249.658 77.8435 238.509C80.3801 212.865 84.2859 185.249 102.249 166.771C107 161.884 112.799 157.74 119.454 156.269C124.611 155.128 129.58 153.139 134.098 150.404C135.187 144.026 129.186 139.003 124.993 134.075C120.297 128.556 117.368 121.556 116.733 114.338C116.357 110.065 115.46 104.243 111.174 104.061C107.652 103.912 105 99.661 106.414 96.4312C107.828 93.2014 112.75 92.2669 115.249 94.7537C111.684 81.3874 119.216 65.9658 131.949 60.5596C129.873 57.5903 134.405 54.0318 138.003 54.4571C141.601 54.8824 145.084 57.0557 148.617 56.2528C147.406 54.1208 149.346 51.2882 151.736 50.7421C154.126 50.196 156.579 51.2337 158.723 52.4231C172.486 60.0584 181.581 75.4564 181.624 91.1949C181.98 88.3221 186.291 87.3384 188.399 89.3217C190.508 91.305 190.407 94.8548 188.91 97.3322C187.413 99.8096 184.861 101.436 182.335 102.85C182.399 113.287 178.43 123.698 171.434 131.443C166.343 137.079 159.13 143.057 160.801 150.466C163.509 149.866 166.249 152.991 165.301 155.597C176.912 154.63 187.748 161.638 195.974 169.89C208.033 181.986 216.7 197.428 220.744 214.023C221.451 216.921 225.575 217.712 228.126 216.165C230.677 214.619 231.989 211.694 233.151 208.946L256.12 154.668C254.639 147.356 255.837 139.799 257.037 132.435L261.018 107.997C261.38 105.779 262.931 102.852 264.98 103.776C265.688 104.096 266.083 104.787 266.332 105.548C266.448 105.901 266.533 106.269 266.603 106.622C267.844 112.888 268.241 119.322 267.779 125.693L275.73 112.092C277.017 109.891 279.683 107.456 281.673 108.367C282.421 108.513 282.928 109.26 283.035 110.021C283.319 111.056 283.078 112.3 282.755 113.374C281.304 118.181 278.94 122.712 275.826 126.651C280.025 128.083 284.888 130.258 285.623 134.633C285.187 142.565 279.341 151.671 275.03 156.399C276.019 155.802 276.666 157.578 276.469 158.716C271.741 186.071 260.22 212.224 243.228 234.176C238.214 240.654 232.391 245.668 223.255 246.572C210.806 247.804 202.643 229.44 195.882 229.932C195.882 229.932 189.556 262.592 184.976 266.955C180.396 271.317 150.297 280.477 141.227 277.424C132.157 274.37 123.085 282.536 111.174 281.717C98.8303 280.869 81.2102 271.423 81.2102 271.423Z" fill="white"/>
<path d="M270.373 162.311C270.265 162.167 270.191 161.997 270.16 161.819C270.041 161.15 270.64 160.45 271.32 160.464C272 160.477 272.57 161.201 272.425 161.865C272.279 162.529 271.458 162.948 270.835 162.676C270.653 162.597 270.492 162.47 270.373 162.311Z" fill="#00160A"/>
<path d="M159.425 92.4683C158.963 92.364 158.738 91.7848 158.865 91.3287C158.993 90.8726 159.368 90.5308 159.756 90.2579C162.392 88.3994 166.403 88.8804 168.526 91.3096C168.695 91.5031 168.861 91.7302 168.853 91.9871C168.844 92.2439 168.564 92.4929 168.336 92.374C167.141 91.7508 165.923 91.1195 164.597 90.8789C163.27 90.6383 161.795 90.8441 160.786 91.7372C160.383 92.0936 159.949 92.5866 159.425 92.4683Z" fill="#00160A"/>
<path d="M136.79 92.3781C136.645 92.8236 136.065 92.9865 135.614 92.8605C135.163 92.7344 134.8 92.409 134.418 92.1385C133.161 91.2492 131.567 90.9095 130.031 91.0093C128.494 91.109 127.008 91.6235 125.632 92.3138C125.316 92.472 124.941 92.1048 124.96 91.7525C124.98 91.4002 125.244 91.1141 125.512 90.8839C126.944 89.6509 128.889 89.0878 130.776 89.185C132.663 89.2823 134.487 90.0068 136.041 91.0813C136.483 91.3866 136.956 91.8676 136.79 92.3781Z" fill="black"/>
<path d="M271.021 167.284C270.861 167.498 270.632 167.648 270.399 167.78C270.158 167.917 269.893 168.042 269.616 168.02C269.249 167.992 268.942 167.703 268.791 167.367C268.418 166.54 269.051 165.409 269.958 165.377C270.865 165.345 271.564 166.558 271.021 167.284Z" fill="#00160A"/>
<path d="M190.334 201.773C190.774 201.976 190.46 202.687 190.011 202.869C189.562 203.05 188.996 203.056 188.703 203.442C188.495 203.717 188.504 204.093 188.524 204.438C188.567 205.141 188.611 205.887 188.276 206.507C187.941 207.127 187.067 207.509 186.508 207.08C185.995 206.686 186.041 205.921 186.023 205.275C186.005 204.628 185.68 203.819 185.034 203.848C181.871 203.993 178.707 204.138 175.544 204.282C175.143 204.3 174.687 204.297 174.414 204.003C174.039 203.601 174.293 202.89 174.766 202.609C175.238 202.328 175.825 202.351 176.374 202.382C178.698 202.517 181.023 202.651 183.347 202.785C183.708 202.806 184.087 202.824 184.414 202.669C184.74 202.514 184.986 202.124 184.854 201.788C184.499 200.886 184.97 199.744 185.859 199.356C186.167 199.222 186.307 198.866 186.383 198.538C186.46 198.21 186.515 197.854 186.748 197.611C186.981 197.369 187.472 197.353 187.594 197.667C187.877 198.39 188.569 198.857 189.055 199.462C189.542 200.067 189.766 201.073 189.151 201.546C189.185 201.99 189.929 201.588 190.334 201.773Z" fill="#00160A"/>
<path d="M128.464 120.123C128.023 120.096 127.84 119.388 128.213 119.151C128.681 119.117 128.888 119.92 128.461 120.117L128.464 120.123Z" fill="#575066"/>
<path d="M163.751 109.049C163.624 108.82 163.756 108.491 164.006 108.413C164.256 108.336 164.551 108.533 164.575 108.793C164.506 109.132 164.013 109.285 163.764 109.046L163.751 109.049Z" fill="#575066"/>
<path d="M162.27 104.689C162.084 105.058 161.41 104.955 161.342 104.548C161.478 104.362 161.674 104.221 161.893 104.149C162.079 104.286 162.222 104.48 162.297 104.698L162.27 104.689Z" fill="#575066"/>
<path d="M153.241 121.133C153.517 121.114 153.797 121.28 153.913 121.532C153.819 121.816 153.466 122.013 153.201 121.874C152.936 121.734 152.962 121.245 153.256 121.189L153.241 121.133Z" fill="#575066"/>
<path d="M161.526 121.545C161.662 121.205 162.295 121.334 162.287 121.701C162.096 121.89 161.848 122.022 161.584 122.073C161.371 122.001 161.318 121.665 161.498 121.53L161.526 121.545Z" fill="#575066"/>
<path d="M147.264 106.193C146.984 106.194 146.779 106.553 146.92 106.795C147.061 107.036 147.474 107.034 147.613 106.792C147.751 106.549 147.543 106.192 147.264 106.193Z" fill="#575066"/>
<path d="M130.424 110.449C130.199 110.28 129.816 110.444 129.783 110.723C129.749 111.002 130.083 111.252 130.341 111.141C130.6 111.031 130.649 110.617 130.424 110.449Z" fill="#575066"/>
<path d="M168.058 111.119C167.789 111.208 167.484 110.906 167.565 110.635C167.645 110.364 168.059 110.275 168.247 110.487C168.435 110.699 168.303 111.095 168.027 111.157L168.058 111.119Z" fill="#575066"/>
<path d="M145.659 119.425C145.555 119.163 145.143 119.103 144.969 119.324C144.794 119.545 144.948 119.932 145.227 119.973C145.505 120.013 145.763 119.686 145.659 119.425Z" fill="#575066"/>
<path d="M145.22 126.333C145.024 126.39 144.873 126.152 144.84 125.951C145.032 125.585 145.701 125.687 145.776 126.094C145.658 126.272 145.43 126.371 145.219 126.335L145.22 126.333Z" fill="#575066"/>
<path d="M147.89 126.006C147.586 126.081 147.16 125.932 147.19 125.622C147.371 125.435 147.653 125.301 147.889 125.41C148.124 125.52 148.137 125.954 147.881 125.996L147.89 126.006Z" fill="#575066"/>
<path d="M161.583 125.863C161.458 125.771 161.372 125.627 161.351 125.473C161.482 125.285 161.677 125.142 161.896 125.075C162.026 125.206 162.155 125.337 162.284 125.467C162.142 125.713 161.866 125.875 161.583 125.882L161.583 125.863Z" fill="#575066"/>
<path d="M149.62 106.977C149.398 107.278 148.821 107.131 148.77 106.761C148.959 106.361 149.709 106.539 149.697 106.982L149.62 106.977Z" fill="#575066"/>
<path d="M155.763 121.767C155.513 122.008 155.005 121.756 155.046 121.411C155.087 121.065 155.64 120.939 155.827 121.232C155.689 121.333 155.633 121.533 155.698 121.691L155.763 121.767Z" fill="#575066"/>
<path d="M140.473 106.307C140.742 106.219 141.047 106.52 140.966 106.791C140.886 107.062 140.472 107.151 140.284 106.939C140.096 106.727 140.228 106.331 140.504 106.27L140.473 106.307Z" fill="#575066"/>
<path d="M147.038 115.096C147.302 114.876 147.782 115.067 147.822 115.409C147.641 115.573 147.394 115.708 147.161 115.638C146.927 115.567 146.816 115.197 147.028 115.076L147.038 115.096Z" fill="#575066"/>
<path d="M153.028 117.301C153.209 116.933 153.88 117.03 153.949 117.434C153.748 117.801 153.077 117.703 152.991 117.293L153.028 117.301Z" fill="#575066"/>
<path d="M153.398 119.412C153.583 119.139 154.111 119.316 154.094 119.645C153.974 119.836 153.78 119.979 153.563 120.038C153.346 119.922 153.258 119.616 153.379 119.402L153.398 119.412Z" fill="#575066"/>
<path d="M162.134 106.588C161.961 106.363 161.545 106.418 161.436 106.68C161.327 106.942 161.583 107.275 161.864 107.238C162.145 107.201 162.306 106.813 162.134 106.588Z" fill="#575066"/>
<path d="M157.656 127.45C157.71 127.204 158.141 127.323 158.168 127.573C158.195 127.822 157.993 128.032 157.807 128.2C157.667 128.11 157.517 128.01 157.458 127.854C157.398 127.697 157.487 127.478 157.654 127.473L157.656 127.45Z" fill="#575066"/>
<path d="M136.848 104.477C136.744 104.216 136.332 104.155 136.157 104.376C135.983 104.597 136.137 104.984 136.415 105.025C136.694 105.065 136.952 104.738 136.848 104.477Z" fill="#575066"/>
<path d="M147.558 127.45C147.416 127.224 147.02 127.239 146.895 127.475C146.77 127.712 146.981 128.047 147.249 128.037C147.516 128.027 147.701 127.676 147.558 127.45Z" fill="#575066"/>
<path d="M130.027 119.026C130.177 118.856 130.485 119.062 130.478 119.289C130.471 119.516 130.288 119.694 130.119 119.844C129.753 119.786 129.691 119.16 130.038 119.031L130.027 119.026Z" fill="#575066"/>
<path d="M149.627 123.822C149.472 123.918 149.318 124.014 149.163 124.109C148.88 124.005 148.847 123.535 149.112 123.393C149.378 123.25 149.751 123.537 149.682 123.83L149.627 123.822Z" fill="#575066"/>
<path d="M167.668 119.248C167.582 118.98 168.105 118.894 168.208 119.156C168.311 119.418 168.103 119.7 167.871 119.859C167.642 119.758 167.493 119.499 167.52 119.25L167.668 119.248Z" fill="#575066"/>
<path d="M161.348 119.493C161.518 119.248 161.889 119.172 162.141 119.331C162.207 119.698 161.743 120.035 161.415 119.858C161.382 119.738 161.35 119.618 161.318 119.497L161.348 119.493Z" fill="#575066"/>
<path d="M136.382 117.007C136.651 116.918 136.956 117.219 136.875 117.491C136.795 117.762 136.381 117.85 136.193 117.639C136.005 117.427 136.137 117.031 136.413 116.969L136.382 117.007Z" fill="#575066"/>
<path d="M165.581 102.656C165.585 102.42 165.831 102.219 166.062 102.262C166.294 102.306 166.451 102.582 166.368 102.804C166.124 102.988 165.732 102.931 165.551 102.684L165.581 102.656Z" fill="#575066"/>
<path d="M159.614 115.085C159.841 114.903 160.246 115.109 160.232 115.399C160.033 115.709 159.501 115.709 159.301 115.4C159.406 115.295 159.511 115.19 159.615 115.086L159.614 115.085Z" fill="#575066"/>
<path d="M133.881 121.295C134.11 121.053 134.564 121.095 134.746 121.374C134.608 121.564 134.427 121.759 134.192 121.77C133.958 121.781 133.736 121.476 133.899 121.307L133.881 121.295Z" fill="#575066"/>
<path d="M168.112 123.738C168.018 123.863 167.875 123.949 167.721 123.973C167.441 123.813 167.442 123.314 167.743 123.199C168.043 123.083 168.368 123.55 168.127 123.764L168.112 123.738Z" fill="#575066"/>
<path d="M130.303 123.866C130.523 123.713 130.49 123.318 130.248 123.204C130.005 123.09 129.68 123.316 129.702 123.583C129.724 123.85 130.083 124.019 130.303 123.866Z" fill="#575066"/>
<path d="M167.989 115.738C167.769 115.963 167.398 115.496 167.611 115.265C167.823 115.034 168.235 115.152 168.425 115.402C168.295 115.533 168.164 115.663 168.033 115.794L167.989 115.738Z" fill="#575066"/>
<path d="M127.859 105.011C127.799 104.63 128.416 104.38 128.638 104.697C128.454 104.938 128.27 105.18 128.086 105.422C127.952 105.328 127.859 105.178 127.835 105.017L127.859 105.011Z" fill="#575066"/>
<path d="M130.226 115.738C130.006 115.963 129.635 115.496 129.848 115.265C130.06 115.034 130.472 115.152 130.662 115.402C130.532 115.533 130.401 115.663 130.27 115.794L130.226 115.738Z" fill="#575066"/>
<path d="M163.74 104.833C163.552 104.654 163.589 104.298 163.809 104.161C164.029 104.024 164.364 104.148 164.442 104.396C164.333 104.646 164.055 104.811 163.783 104.787L163.74 104.833Z" fill="#575066"/>
<path d="M136.025 106.757C136.198 106.446 136.718 106.428 136.913 106.726C136.851 107.161 136.073 107.184 135.985 106.754L136.025 106.757Z" fill="#575066"/>
<path d="M151.871 108.553C151.876 108.775 151.799 108.998 151.658 109.169C151.414 109.307 151.087 108.999 151.172 108.732C151.256 108.465 151.634 108.369 151.867 108.526L151.871 108.553Z" fill="#575066"/>
<path d="M145.454 123.528C145.375 123.276 144.994 123.19 144.815 123.385C144.635 123.579 144.752 123.953 145.01 124.01C145.268 124.068 145.533 123.781 145.454 123.528Z" fill="#575066"/>
<path d="M153.68 125.608C153.794 125.906 153.568 126.282 153.251 126.322C153.042 126.233 152.945 125.949 153.055 125.75C153.165 125.551 153.459 125.484 153.644 125.615L153.68 125.608Z" fill="#575066"/>
<path d="M140.244 127.83C140.245 127.543 140.414 127.263 140.667 127.13C140.851 127.314 140.983 127.597 140.87 127.831C140.758 128.065 140.324 128.072 140.287 127.815L140.244 127.83Z" fill="#575066"/>
<path d="M163.83 125.448C164.049 125.223 164.42 125.689 164.208 125.921C163.995 126.152 163.583 126.034 163.393 125.783C163.524 125.653 163.654 125.522 163.785 125.392L163.83 125.448Z" fill="#575066"/>
<path d="M145.105 106.566C145.325 106.341 145.696 106.808 145.483 107.039C145.271 107.27 144.859 107.152 144.669 106.902C144.799 106.771 144.93 106.641 145.061 106.51L145.105 106.566Z" fill="#575066"/>
<path d="M132.164 119.728C132.004 119.554 132.222 119.247 132.459 119.255C132.695 119.263 132.881 119.458 133.012 119.655C132.826 119.927 132.381 119.969 132.147 119.735L132.164 119.728Z" fill="#575066"/>
<path d="M136.717 112.474C136.941 112.456 137.031 112.807 136.877 112.971C136.723 113.135 136.468 113.142 136.245 113.117C136.041 112.839 136.396 112.382 136.715 112.51L136.717 112.474Z" fill="#575066"/>
<path d="M147.734 132.156C147.501 132.454 146.924 132.3 146.869 131.926C147.068 131.572 147.736 131.751 147.733 132.157L147.734 132.156Z" fill="#575066"/>
<path d="M136.147 119.847C136.022 119.603 136.186 119.255 136.457 119.215C136.728 119.174 136.99 119.485 136.889 119.739C136.787 119.994 136.359 120.023 136.238 119.778L136.147 119.847Z" fill="#575066"/>
<path d="M145.062 128.064C144.866 128.127 144.725 127.876 144.672 127.676C144.873 127.367 145.403 127.364 145.608 127.671C145.474 127.857 145.281 128 145.063 128.074L145.062 128.064Z" fill="#575066"/>
<path d="M146.84 110.993C146.915 110.588 147.57 110.473 147.78 110.827C147.681 111.206 147.088 111.321 146.855 111.007L146.84 110.993Z" fill="#575066"/>
<path d="M168.112 117.392C168.033 117.14 167.651 117.054 167.472 117.248C167.293 117.442 167.41 117.816 167.668 117.874C167.926 117.932 168.191 117.644 168.112 117.392Z" fill="#575066"/>
<path d="M149.861 119.807C149.634 119.989 149.229 119.783 149.243 119.493C149.442 119.183 149.974 119.183 150.174 119.492C150.069 119.597 149.964 119.702 149.86 119.806L149.861 119.807Z" fill="#575066"/>
<path d="M145.374 131.531C145.571 131.469 145.712 131.719 145.764 131.919C145.563 132.228 145.033 132.231 144.828 131.924C144.962 131.738 145.156 131.595 145.373 131.522L145.374 131.531Z" fill="#575066"/>
<path d="M170.472 102.341C170.575 102.444 170.678 102.547 170.781 102.65C170.599 102.929 170.126 103.027 169.942 102.748C169.758 102.47 170.276 102.075 170.427 102.372L170.472 102.341Z" fill="#575066"/>
<path d="M161.594 109.172C161.797 109.35 162.175 109.221 162.228 108.957C162.281 108.692 161.98 108.429 161.725 108.515C161.469 108.602 161.391 108.994 161.594 109.172Z" fill="#575066"/>
<path d="M149.005 125.873C149.087 125.684 149.383 125.641 149.515 125.799C149.663 126.037 149.528 126.421 149.25 126.453C148.972 126.485 148.781 126.034 149.025 125.896L149.005 125.873Z" fill="#575066"/>
<path d="M136.405 121.304C136.602 121.241 136.743 121.492 136.796 121.692C136.664 121.879 136.469 122.022 136.251 122.091C136.127 121.994 136.041 121.85 136.014 121.694C136.145 121.563 136.276 121.432 136.407 121.301L136.405 121.304Z" fill="#575066"/>
<path d="M164.471 115.468C164.526 115.835 163.989 116.117 163.718 115.864C163.603 115.496 164.209 115.156 164.414 115.482L164.471 115.468Z" fill="#575066"/>
<path d="M143.169 115.171C143.349 115.281 143.448 115.508 143.407 115.715C143.183 115.802 142.937 115.829 142.7 115.794C142.626 115.679 142.598 115.535 142.623 115.401C142.806 115.322 142.989 115.243 143.173 115.164L143.169 115.171Z" fill="#575066"/>
<path d="M153.568 123.498C153.65 123.666 153.669 123.863 153.622 124.044C153.408 124.23 153.007 124.057 152.995 123.774C152.982 123.491 153.367 123.285 153.596 123.451L153.568 123.498Z" fill="#575066"/>
<path d="M166.527 119.791C166.278 120.017 165.798 119.837 165.76 119.502C165.843 119.309 166.091 119.205 166.287 119.281C166.483 119.358 166.595 119.602 166.525 119.8L166.527 119.791Z" fill="#575066"/>
<path d="M145.452 104.698C145.596 104.795 145.66 104.995 145.599 105.157C145.382 105.362 144.948 105.293 144.873 105.004C144.799 104.716 145.278 104.471 145.424 104.731L145.452 104.698Z" fill="#575066"/>
<path d="M130.368 117.522C130.382 117.257 130.053 117.043 129.817 117.164C129.581 117.284 129.561 117.676 129.783 117.82C130.005 117.965 130.355 117.786 130.368 117.522Z" fill="#575066"/>
<path d="M151.348 116.005C151.087 115.922 151.068 115.49 151.309 115.361C151.549 115.232 151.884 115.441 151.902 115.713C151.79 115.891 151.562 115.989 151.355 115.948L151.348 116.005Z" fill="#575066"/>
<path d="M129.943 106.56C129.769 106.325 130.312 106.125 130.436 106.39C130.559 106.655 130.34 106.954 130.102 107.124C129.929 107.013 129.837 106.789 129.882 106.589L129.943 106.56Z" fill="#575066"/>
<path d="M147.499 123.739C147.405 123.864 147.261 123.95 147.107 123.974C146.982 123.882 146.896 123.739 146.876 123.585C147.001 123.397 147.196 123.257 147.414 123.198C147.628 123.271 147.685 123.606 147.507 123.746L147.499 123.739Z" fill="#575066"/>
<path d="M166.066 123.897C165.883 123.976 165.699 124.054 165.516 124.133C165.391 124.034 165.303 123.888 165.274 123.731C165.436 123.598 165.624 123.461 165.834 123.478C166.044 123.495 166.224 123.762 166.086 123.921L166.066 123.897Z" fill="#575066"/>
<path d="M151.39 125.325C151.569 125.418 151.749 125.511 151.928 125.604C151.733 125.81 151.474 125.956 151.197 126.016C151.071 125.925 150.985 125.781 150.964 125.628C151.056 125.503 151.201 125.417 151.355 125.395L151.39 125.325Z" fill="#575066"/>
<path d="M130.346 125.468C130.49 125.564 130.555 125.765 130.494 125.927C130.277 126.132 129.842 126.063 129.768 125.774C129.693 125.486 130.173 125.241 130.318 125.501L130.346 125.468Z" fill="#575066"/>
<path d="M145.007 117.757C145.07 118.132 145.787 118.012 145.724 117.636C145.661 117.261 144.944 117.381 145.007 117.757Z" fill="#575066"/>
<path d="M153.158 108.259C153.496 108.223 153.781 108.654 153.614 108.951C153.45 109.077 153.182 109.036 153.063 108.866C152.944 108.696 152.997 108.431 153.172 108.319L153.158 108.259Z" fill="#575066"/>
<path d="M128.114 117.421C128.298 117.236 128.651 117.515 128.569 117.763C128.487 118.01 128.144 118.089 127.911 117.972C127.755 117.792 127.849 117.463 128.077 117.394L128.114 117.421Z" fill="#575066"/>
<path d="M145.058 112.959C145.248 112.687 145.776 112.869 145.758 113.2C145.605 113.41 145.31 113.503 145.065 113.42C144.95 113.295 144.945 113.083 145.054 112.952L145.058 112.959Z" fill="#575066"/>
<path d="M163.94 106.355C164.068 106.439 164.152 106.586 164.16 106.74C164.026 107.077 163.398 106.955 163.401 106.592C163.508 106.411 163.737 106.312 163.942 106.358L163.94 106.355Z" fill="#575066"/>
<path d="M134.621 127.79C134.746 128.034 134.582 128.381 134.311 128.422C134.04 128.463 133.778 128.152 133.879 127.898C133.981 127.643 134.409 127.613 134.53 127.859L134.621 127.79Z" fill="#575066"/>
<path d="M140.34 123.512C140.602 123.483 140.937 123.496 141.037 123.739C140.918 123.927 140.725 124.066 140.51 124.118C140.386 124.05 140.253 123.973 140.196 123.843C140.139 123.714 140.21 123.523 140.351 123.519L140.34 123.512Z" fill="#575066"/>
<path d="M168.033 106.983C168.285 106.895 168.359 106.508 168.157 106.335C167.956 106.161 167.584 106.29 167.534 106.551C167.484 106.812 167.782 107.07 168.033 106.983Z" fill="#575066"/>
<path d="M157.88 108.636C158.16 108.806 157.983 109.343 157.657 109.314C157.47 109.251 157.358 109.024 157.42 108.837C157.483 108.651 157.709 108.537 157.896 108.599L157.88 108.636Z" fill="#575066"/>
<path d="M149.657 127.525C149.584 127.161 148.889 127.299 148.961 127.663C149.034 128.028 149.729 127.889 149.657 127.525Z" fill="#575066"/>
<path d="M131.811 106.895C131.883 107.259 132.579 107.121 132.506 106.756C132.434 106.392 131.738 106.53 131.811 106.895Z" fill="#575066"/>
<path d="M166.301 126.017C166.131 126.297 165.594 126.12 165.623 125.794C165.687 125.607 165.913 125.495 166.1 125.557C166.286 125.62 166.4 125.846 166.338 126.032L166.301 126.017Z" fill="#575066"/>
<path d="M130.181 104.201C130.452 104.097 130.769 104.431 130.652 104.697C130.412 104.825 130.109 104.826 129.868 104.698C129.9 104.506 130.026 104.332 130.198 104.241L130.181 104.201Z" fill="#575066"/>
<path d="M145.221 109.183C145.093 109.099 145.008 108.952 145 108.799C145.134 108.461 145.762 108.583 145.76 108.947C145.653 109.127 145.424 109.226 145.219 109.18L145.221 109.183Z" fill="#575066"/>
<path d="M157.42 122.008C157.299 121.788 157.505 121.472 157.755 121.491C158.005 121.51 158.163 121.848 158.019 122.054C157.874 122.259 157.507 122.23 157.394 122.006L157.42 122.008Z" fill="#575066"/>
<path d="M150.963 110.997C151.047 110.869 151.195 110.785 151.348 110.777C151.686 110.911 151.563 111.539 151.2 111.536C151.019 111.429 150.921 111.2 150.966 110.995L150.963 110.997Z" fill="#575066"/>
<path d="M168.38 104.302C168.399 104.435 168.417 104.567 168.435 104.699C168.191 104.823 167.889 104.824 167.645 104.702C167.636 104.355 168.074 104.088 168.378 104.253L168.38 104.302Z" fill="#575066"/>
<path d="M143.406 129.72C143.241 129.389 142.609 129.704 142.774 130.036C142.939 130.367 143.571 130.051 143.406 129.72Z" fill="#575066"/>
<path d="M158.051 112.874C157.789 112.613 157.292 113.114 157.554 113.374C157.816 113.634 158.313 113.134 158.051 112.874Z" fill="#575066"/>
<path d="M151.588 104.387C151.423 104.056 150.791 104.372 150.956 104.703C151.121 105.034 151.753 104.719 151.588 104.387Z" fill="#575066"/>
<path d="M166.085 121.843C165.925 121.498 165.267 121.804 165.427 122.148C165.587 122.493 166.245 122.188 166.085 121.843Z" fill="#575066"/>
<path d="M129.649 121.769C129.811 122.097 130.439 121.788 130.277 121.459C130.115 121.131 129.487 121.44 129.649 121.769Z" fill="#575066"/>
<path d="M155.679 127.985C155.595 128.114 155.448 128.198 155.295 128.206C154.957 128.072 155.079 127.444 155.443 127.446C155.623 127.554 155.722 127.783 155.677 127.988L155.679 127.985Z" fill="#575066"/>
<path d="M143.479 117.371C143.317 117.043 142.689 117.352 142.851 117.681C143.013 118.009 143.641 117.7 143.479 117.371Z" fill="#575066"/>
<path d="M163.935 110.761C164.134 110.969 163.922 111.388 163.637 111.352C163.43 111.292 163.315 111.021 163.417 110.831C163.518 110.64 163.806 110.583 163.971 110.722L163.935 110.761Z" fill="#575066"/>
<path d="M149.073 132.236C148.969 132.132 148.865 132.028 148.76 131.923C148.954 131.612 149.484 131.606 149.685 131.912C149.585 132.147 149.324 132.303 149.069 132.279L149.073 132.236Z" fill="#575066"/>
<path d="M168.505 109.028C168.401 109.132 168.296 109.236 168.192 109.341C167.881 109.147 167.875 108.617 168.181 108.416C168.416 108.516 168.572 108.777 168.548 109.032L168.505 109.028Z" fill="#575066"/>
<path d="M138.376 108.637C138.46 108.509 138.607 108.425 138.76 108.417C139.098 108.551 138.976 109.179 138.612 109.176C138.432 109.069 138.333 108.84 138.378 108.635L138.376 108.637Z" fill="#575066"/>
<path d="M130.719 109.189C130.524 109.294 130.248 109.193 130.166 108.987C130.085 108.781 130.218 108.518 130.432 108.462C130.719 108.509 130.875 108.906 130.698 109.136L130.719 109.189Z" fill="#575066"/>
<path d="M155.703 111.152C155.702 110.786 155.002 110.789 155.004 111.155C155.005 111.521 155.705 111.518 155.703 111.152Z" fill="#575066"/>
<path d="M151.745 123.741C151.58 123.41 150.948 123.725 151.113 124.056C151.278 124.387 151.911 124.072 151.745 123.741Z" fill="#575066"/>
<path d="M169.574 106.895C169.646 107.259 170.342 107.121 170.269 106.756C170.197 106.392 169.501 106.53 169.574 106.895Z" fill="#575066"/>
<path d="M148.829 117.361C149.06 117.119 149.516 117.162 149.697 117.444C149.568 117.631 149.374 117.773 149.156 117.839C148.991 117.731 148.867 117.564 148.812 117.375L148.829 117.361Z" fill="#575066"/>
<path d="M163.439 117.318C163.696 117.165 164.08 117.327 164.149 117.618C164 117.822 163.712 117.91 163.474 117.825C163.359 117.7 163.354 117.489 163.463 117.359L163.439 117.318Z" fill="#575066"/>
<path d="M149.104 115.233C149.011 115.064 149.221 114.856 149.411 114.882C149.602 114.909 149.74 115.076 149.833 115.245C149.69 115.541 149.189 115.552 149.032 115.262L149.104 115.233Z" fill="#575066"/>
<path d="M169.923 119.417C170.093 119.137 170.63 119.314 170.601 119.64C170.537 119.827 170.311 119.939 170.124 119.877C169.938 119.814 169.824 119.588 169.886 119.402L169.923 119.417Z" fill="#575066"/>
<path d="M147.107 117.218C147.327 117.096 147.643 117.302 147.624 117.553C147.605 117.803 147.267 117.96 147.061 117.816C146.856 117.672 146.885 117.304 147.109 117.191L147.107 117.218Z" fill="#575066"/>
<path d="M148.92 121.539C149.052 121.426 149.265 121.423 149.401 121.533C149.413 121.815 149.245 122.097 148.992 122.222C148.739 122.104 148.693 121.7 148.912 121.528L148.92 121.539Z" fill="#575066"/>
<path d="M167.473 121.861C167.735 122.121 168.232 121.621 167.97 121.361C167.708 121.101 167.212 121.601 167.473 121.861Z" fill="#575066"/>
<path d="M143.24 109.274C142.941 109.025 143.291 108.429 143.654 108.568C143.818 108.848 143.574 109.266 143.25 109.261L143.24 109.274Z" fill="#575066"/>
<path d="M143.322 106.672C143.159 106.343 142.532 106.653 142.694 106.981C142.856 107.31 143.484 107 143.322 106.672Z" fill="#575066"/>
<path d="M127.754 107.139C127.629 107.047 127.543 106.903 127.521 106.749C127.65 106.563 127.842 106.422 128.058 106.355C128.277 106.619 128.094 107.095 127.755 107.145L127.754 107.139Z" fill="#575066"/>
<path d="M163.636 124.175C163.389 124.175 163.201 123.864 163.318 123.646C163.435 123.428 163.803 123.417 163.93 123.63C164.056 123.843 163.866 124.163 163.619 124.151L163.636 124.175Z" fill="#575066"/>
<path d="M167.883 102.395C168.105 102.468 168.299 102.619 168.424 102.815C168.247 103.072 167.848 103.14 167.597 102.956C167.669 102.769 167.741 102.582 167.813 102.395L167.883 102.395Z" fill="#575066"/>
<path d="M147.107 121.538C147.11 121.321 147.343 121.138 147.555 121.186C147.767 121.234 147.898 121.499 147.808 121.696C147.562 121.863 147.185 121.783 147.029 121.53L147.107 121.538Z" fill="#575066"/>
<path d="M150.922 113.218C150.806 112.998 150.988 112.687 151.237 112.679C151.485 112.672 151.685 112.972 151.583 113.198C151.399 113.321 151.142 113.322 150.958 113.2L150.922 113.218Z" fill="#575066"/>
<path d="M134.559 104.63C134.482 104.926 134.056 105.056 133.827 104.853C133.742 104.671 133.834 104.422 134.024 104.353C134.213 104.284 134.452 104.429 134.466 104.629L134.559 104.63Z" fill="#575066"/>
<path d="M131.658 117.697C131.587 117.515 131.69 117.285 131.873 117.217C132.056 117.149 132.285 117.256 132.35 117.44C132.291 117.728 131.903 117.888 131.658 117.726L131.658 117.697Z" fill="#575066"/>
<path d="M138.453 121.93C138.328 121.835 138.242 121.691 138.217 121.537C138.347 121.409 138.476 121.281 138.606 121.153C138.942 121.296 138.819 121.92 138.453 121.925L138.453 121.93Z" fill="#575066"/>
<path d="M132.155 124.11C131.906 124.201 131.694 123.796 131.878 123.604C132.062 123.413 132.42 123.51 132.548 123.742C132.418 123.873 132.288 124.003 132.158 124.133L132.155 124.11Z" fill="#575066"/>
<path d="M131.843 105.095C131.66 104.869 131.867 104.464 132.157 104.479C132.338 104.587 132.438 104.815 132.394 105.021C132.225 105.104 132.028 105.128 131.845 105.088L131.843 105.095Z" fill="#575066"/>
<path d="M162.047 115.323C162.27 115.383 162.177 115.768 161.952 115.817C161.728 115.867 161.513 115.714 161.336 115.566C161.494 115.351 161.795 115.255 162.047 115.338L162.047 115.323Z" fill="#575066"/>
<path d="M165.797 115.527C165.675 115.437 165.553 115.348 165.43 115.258C165.623 114.935 166.17 114.925 166.375 115.241C166.265 115.42 166.037 115.519 165.831 115.475L165.797 115.527Z" fill="#575066"/>
<path d="M169.568 104.992C169.43 104.8 169.612 104.484 169.849 104.493C170.086 104.502 170.249 104.804 170.141 105.015C169.962 105.139 169.706 105.141 169.526 105.018L169.568 104.992Z" fill="#575066"/>
<path d="M155.682 117.761C155.456 117.944 155.051 117.738 155.066 117.448C155.141 117.317 155.288 117.231 155.439 117.23C155.651 117.306 155.783 117.555 155.728 117.772L155.682 117.761Z" fill="#575066"/>
<path d="M136.601 125.186C136.724 125.28 136.848 125.374 136.971 125.467C136.771 125.659 136.518 125.796 136.248 125.859C136.064 125.637 136.276 125.23 136.564 125.255L136.601 125.186Z" fill="#575066"/>
<path d="M134.595 108.636C134.43 108.305 133.797 108.62 133.962 108.951C134.127 109.282 134.76 108.967 134.595 108.636Z" fill="#575066"/>
<path d="M131.766 125.629C131.86 125.504 132.004 125.418 132.158 125.394C132.283 125.488 132.369 125.631 132.394 125.785C132.263 125.916 132.133 126.046 132.002 126.177C131.825 126.063 131.728 125.836 131.768 125.629L131.766 125.629Z" fill="#575066"/>
<path d="M146.882 104.848C147.102 105.118 147.616 104.698 147.397 104.429C147.177 104.16 146.663 104.579 146.882 104.848Z" fill="#575066"/>
<path d="M165.59 113.202C165.572 112.841 166.195 112.697 166.337 113.03C166.291 113.361 165.768 113.487 165.577 113.212L165.59 113.202Z" fill="#575066"/>
<path d="M169.924 117.683C169.795 117.927 169.327 117.709 169.431 117.454C169.457 117.255 169.707 117.124 169.885 117.215C170.063 117.305 170.104 117.584 169.959 117.722L169.924 117.683Z" fill="#575066"/>
<path d="M149.463 111.051C149.214 111.142 149.002 110.736 149.186 110.545C149.37 110.354 149.728 110.45 149.856 110.683C149.726 110.813 149.596 110.943 149.466 111.073L149.463 111.051Z" fill="#575066"/>
<path d="M134.367 125.423C134.536 125.327 134.749 125.538 134.722 125.73C134.695 125.922 134.525 126.061 134.356 126.156C134.072 126.018 134.084 125.526 134.374 125.402L134.367 125.423Z" fill="#575066"/>
<path d="M140.426 105.176C140.346 104.844 140.774 104.461 141.021 104.697C141.006 104.884 140.983 105.088 140.852 105.222C140.72 105.356 140.441 105.346 140.388 105.166L140.426 105.176Z" fill="#575066"/>
<path d="M156 129.557C156.019 129.918 155.396 130.063 155.254 129.73C155.3 129.398 155.822 129.273 156.014 129.548L156 129.557Z" fill="#575066"/>
<path d="M138.687 125.465C138.328 125.514 138.422 126.199 138.781 126.15C139.14 126.101 139.047 125.416 138.687 125.465Z" fill="#575066"/>
<path d="M155.283 125.397C155.595 125.596 155.599 126.128 155.291 126.332C154.981 126.129 154.979 125.597 155.289 125.392L155.283 125.397Z" fill="#575066"/>
<path d="M140.887 110.993C140.639 111.161 140.258 111.082 140.097 110.828C140.261 110.696 140.449 110.559 140.659 110.576C140.869 110.592 141.05 110.862 140.91 111.019L140.887 110.993Z" fill="#575066"/>
<path d="M147.423 130.113C147.295 130.358 146.826 130.139 146.931 129.884C146.957 129.686 147.206 129.555 147.384 129.645C147.563 129.736 147.604 130.014 147.459 130.152L147.423 130.113Z" fill="#575066"/>
<path d="M128.221 113.411C127.972 113.502 127.761 113.096 127.944 112.905C128.128 112.714 128.486 112.811 128.614 113.043C128.484 113.173 128.354 113.303 128.225 113.434L128.221 113.411Z" fill="#575066"/>
<path d="M162.214 102.893C162.085 103.137 161.617 102.919 161.721 102.663C161.748 102.465 161.997 102.334 162.175 102.424C162.353 102.515 162.394 102.793 162.25 102.931L162.214 102.893Z" fill="#575066"/>
<path d="M153.3 106.598C153.395 106.846 153.298 107.155 153.078 107.303C152.933 107.125 152.779 106.912 152.828 106.687C152.877 106.463 153.264 106.374 153.318 106.597L153.3 106.598Z" fill="#575066"/>
<path d="M147.422 119.412C147.604 119.638 147.398 120.043 147.108 120.028C146.977 119.953 146.892 119.806 146.891 119.655C146.966 119.444 147.215 119.311 147.433 119.367L147.422 119.412Z" fill="#575066"/>
<path d="M149.024 104.939C149.002 105.282 149.657 105.323 149.678 104.98C149.7 104.637 149.045 104.596 149.024 104.939Z" fill="#575066"/>
<path d="M159.85 110.602C159.975 110.694 160.061 110.838 160.082 110.993C159.971 111.171 159.744 111.269 159.537 111.229C159.351 111.006 159.562 110.598 159.851 110.622L159.85 110.602Z" fill="#575066"/>
<path d="M151.433 131.921C151.338 132.046 151.194 132.132 151.04 132.156C150.915 132.062 150.829 131.919 150.805 131.765C150.925 131.622 151.096 131.494 151.279 131.522C151.463 131.55 151.584 131.82 151.434 131.93L151.433 131.921Z" fill="#575066"/>
<path d="M166.221 110.833C166.062 111.079 165.692 111.157 165.446 110.996C165.334 110.828 165.511 110.587 165.713 110.572C165.914 110.557 166.095 110.691 166.232 110.838L166.221 110.833Z" fill="#575066"/>
<path d="M136.213 109.075C136.061 108.891 136.237 108.559 136.476 108.569C136.716 108.579 136.87 108.9 136.74 109.101C136.611 109.303 136.274 109.308 136.125 109.12L136.213 109.075Z" fill="#575066"/>
<path d="M143.242 127.832C143.288 127.957 143.261 128.106 143.174 128.206C142.933 128.319 142.592 128.091 142.652 127.831C142.712 127.572 143.191 127.58 143.205 127.847L143.242 127.832Z" fill="#575066"/>
<path d="M163.79 121.75C163.615 121.734 163.602 121.447 163.747 121.347C163.892 121.246 164.087 121.279 164.26 121.317C164.342 121.426 164.371 121.573 164.337 121.706C164.166 121.786 163.97 121.808 163.786 121.768L163.79 121.75Z" fill="#575066"/>
<path d="M147.106 108.556C147.264 108.556 147.421 108.556 147.579 108.555C147.653 108.672 147.681 108.817 147.656 108.952C147.478 109.023 147.274 109.093 147.104 109.006C146.934 108.919 146.923 108.599 147.112 108.578L147.106 108.556Z" fill="#575066"/>
<path d="M156.025 108.732C155.902 108.412 155.29 108.646 155.412 108.967C155.535 109.287 156.148 109.053 156.025 108.732Z" fill="#575066"/>
<path d="M165.604 109.267C165.563 109.089 165.601 108.877 165.752 108.775C165.902 108.672 166.162 108.765 166.162 108.947C166.134 109.105 166.097 109.279 165.968 109.376C165.84 109.472 165.599 109.405 165.605 109.244L165.604 109.267Z" fill="#575066"/>
<path d="M128.256 109.417C128.009 109.5 127.73 109.206 127.827 108.963C127.923 108.721 128.329 108.699 128.451 108.93C128.375 109.067 128.299 109.204 128.223 109.341L128.256 109.417Z" fill="#575066"/>
<path d="M138.059 130.037C138.033 129.747 138.443 129.534 138.665 129.722C138.761 129.882 138.695 130.115 138.53 130.201C138.365 130.287 138.136 130.208 138.06 130.038L138.059 130.037Z" fill="#575066"/>
<path d="M157.918 119.842C158.169 119.612 157.729 119.132 157.477 119.362C157.226 119.593 157.666 120.073 157.918 119.842Z" fill="#575066"/>
<path d="M145.374 122.228C145.158 122.297 144.938 122.017 145.03 121.809C145.122 121.602 145.431 121.551 145.609 121.693C145.662 121.899 145.558 122.135 145.371 122.235L145.374 122.228Z" fill="#575066"/>
<path d="M159.433 103.311C159.196 103.08 159.549 102.601 159.84 102.759C160.067 102.983 159.729 103.444 159.447 103.295L159.433 103.311Z" fill="#575066"/>
<path d="M145.532 110.909C145.268 110.938 144.931 110.92 144.83 110.674C144.989 110.468 145.282 110.377 145.529 110.457C145.644 110.583 145.648 110.794 145.539 110.925L145.532 110.909Z" fill="#575066"/>
<path d="M157.401 106.564C157.669 106.453 157.99 106.789 157.867 107.051C157.741 107.184 157.503 107.186 157.376 107.054C157.248 106.923 157.256 106.685 157.393 106.563L157.401 106.564Z" fill="#575066"/>
<path d="M155.21 104.544C155.304 104.419 155.448 104.333 155.603 104.309C155.728 104.403 155.814 104.547 155.837 104.701C155.743 104.826 155.6 104.912 155.446 104.935C155.32 104.842 155.235 104.697 155.213 104.543L155.21 104.544Z" fill="#575066"/>
<path d="M145.509 115.429C145.34 115.716 144.84 115.701 144.69 115.403C144.833 115.104 145.336 115.09 145.495 115.38L145.509 115.429Z" fill="#575066"/>
<path d="M134.357 123.492C134.526 123.47 134.653 123.684 134.598 123.845C134.543 124.007 134.371 124.101 134.203 124.131C134.079 124.038 133.993 123.894 133.97 123.74C134.063 123.615 134.207 123.529 134.362 123.507L134.357 123.492Z" fill="#575066"/>
<path d="M151.71 127.901C151.717 128.024 151.724 128.147 151.731 128.27C151.579 128.487 151.162 128.37 151.145 128.105C151.129 127.84 151.528 127.672 151.706 127.869L151.71 127.901Z" fill="#575066"/>
<path d="M159.851 121.302C159.975 121.396 160.062 121.54 160.085 121.694C159.992 121.819 159.848 121.905 159.694 121.928C159.569 121.835 159.483 121.691 159.46 121.537C159.553 121.412 159.698 121.326 159.852 121.304L159.851 121.302Z" fill="#575066"/>
<path d="M140.435 130.191C140.377 130.016 140.426 129.799 140.581 129.702C140.737 129.605 140.987 129.691 141.013 129.872C140.947 130.008 140.88 130.144 140.813 130.28C140.68 130.265 140.547 130.249 140.414 130.234L140.435 130.191Z" fill="#575066"/>
<path d="M151.762 106.904C151.78 107.115 151.555 107.309 151.349 107.259C151.144 107.209 151.032 106.935 151.144 106.755C151.317 106.59 151.656 106.684 151.72 106.915L151.762 106.904Z" fill="#575066"/>
<path d="M134.033 119.561C134.19 119.333 134.635 119.53 134.572 119.8C134.506 119.935 134.358 120.028 134.207 120.027C134.033 119.961 133.948 119.728 134.037 119.565L134.033 119.561Z" fill="#575066"/>
<path d="M165.844 106.35C166.037 106.649 165.658 107.103 165.329 106.967C165.284 106.672 165.533 106.365 165.831 106.349L165.844 106.35Z" fill="#575066"/>
<path d="M131.759 113.042C131.749 112.748 132.155 112.54 132.388 112.72C132.509 113.046 131.951 113.337 131.753 113.05L131.759 113.042Z" fill="#575066"/>
<path d="M169.604 112.802C169.711 112.662 169.91 112.599 170.078 112.654C170.156 112.762 170.183 112.905 170.152 113.035C170.023 113.11 169.893 113.186 169.763 113.262C169.592 113.192 169.509 112.961 169.597 112.798L169.604 112.802Z" fill="#575066"/>
<path d="M153.488 104.53C153.716 104.687 153.519 105.132 153.249 105.069C153.113 105.003 153.021 104.855 153.021 104.704C153.088 104.531 153.321 104.445 153.484 104.534L153.488 104.53Z" fill="#575066"/>
<path d="M134.449 106.733C134.677 106.89 134.48 107.335 134.21 107.272C134.074 107.205 133.982 107.058 133.982 106.907C134.049 106.733 134.282 106.648 134.445 106.737L134.449 106.733Z" fill="#575066"/>
<path d="M153.791 112.725C153.621 112.969 153.25 113.045 152.999 112.886C152.994 112.514 153.637 112.388 153.773 112.733L153.791 112.725Z" fill="#575066"/>
<path d="M140.262 121.852C140.356 121.727 140.5 121.641 140.655 121.618C140.78 121.711 140.866 121.855 140.889 122.009C140.796 122.134 140.652 122.22 140.498 122.243C140.372 122.15 140.287 122.005 140.265 121.851L140.262 121.852Z" fill="#575066"/>
<path d="M143.408 111.151C143.314 111.276 143.17 111.362 143.015 111.386C142.891 111.293 142.805 111.149 142.781 110.995C142.875 110.87 143.018 110.784 143.173 110.761C143.298 110.854 143.384 110.998 143.405 111.153L143.408 111.151Z" fill="#575066"/>
<path d="M165.612 117.614C165.735 117.326 166.223 117.315 166.36 117.596C166.22 117.898 165.714 117.915 165.554 117.624L165.612 117.614Z" fill="#575066"/>
<path d="M153.473 131.913C153.343 131.992 153.212 132.072 153.082 132.151C152.958 132.061 152.874 131.918 152.855 131.766C152.967 131.588 153.194 131.49 153.401 131.53C153.476 131.643 153.503 131.788 153.473 131.921L153.473 131.913Z" fill="#575066"/>
<path d="M153.164 127.675C153.091 127.499 153.378 127.413 153.566 127.44C153.647 127.609 153.671 127.805 153.631 127.989C153.518 128.064 153.374 128.092 153.242 128.065C153.166 127.951 153.14 127.807 153.169 127.674L153.164 127.675Z" fill="#575066"/>
<path d="M140.262 109.107C140.356 108.982 140.5 108.896 140.655 108.872C140.78 108.966 140.866 109.11 140.889 109.264C140.796 109.389 140.652 109.475 140.498 109.498C140.372 109.405 140.287 109.26 140.265 109.106L140.262 109.107Z" fill="#575066"/>
<path d="M161.737 112.805C161.911 112.728 162 113.015 161.972 113.203C161.803 113.285 161.608 113.31 161.424 113.273C161.349 113.159 161.321 113.015 161.348 112.882C161.461 112.806 161.606 112.78 161.739 112.809L161.737 112.805Z" fill="#575066"/>
<path d="M134.589 110.997C134.629 111.128 134.604 111.277 134.524 111.388C134.388 111.42 134.238 111.392 134.123 111.312C134.124 111.155 134.126 110.997 134.127 110.839C134.26 110.668 134.594 110.779 134.599 110.995L134.589 110.997Z" fill="#575066"/>
<path d="M140.983 117.849C140.826 118.077 140.381 117.879 140.445 117.61C140.511 117.474 140.658 117.382 140.809 117.382C140.983 117.449 141.068 117.681 140.979 117.845L140.983 117.849Z" fill="#575066"/>
<path d="M136.793 110.544C136.946 110.578 137.003 110.812 136.882 110.912C136.621 110.938 136.287 110.925 136.187 110.681C136.296 110.465 136.604 110.378 136.811 110.505L136.793 110.544Z" fill="#575066"/>
<path d="M145.375 129.798C145.5 129.892 145.586 130.036 145.61 130.191C145.516 130.316 145.372 130.402 145.218 130.425C145.093 130.332 145.007 130.188 144.984 130.034C145.077 129.908 145.222 129.823 145.376 129.801L145.375 129.798Z" fill="#575066"/>
<path d="M150.959 117.285C151.159 117.14 151.484 117.227 151.583 117.453C151.424 117.659 151.131 117.749 150.884 117.67C150.778 117.563 150.827 117.351 150.969 117.301L150.959 117.285Z" fill="#575066"/>
<path d="M138.781 115.803C138.624 116.031 138.178 115.834 138.242 115.564C138.308 115.428 138.455 115.336 138.606 115.336C138.78 115.403 138.866 115.636 138.776 115.799L138.781 115.803Z" fill="#575066"/>
<path d="M151.362 121.453C151.191 121.19 150.69 121.517 150.861 121.78C151.032 122.043 151.533 121.716 151.362 121.453Z" fill="#575066"/>
<path d="M134.549 117.526C134.514 117.855 133.941 117.915 133.84 117.601C133.953 117.347 134.358 117.301 134.526 117.522L134.549 117.526Z" fill="#575066"/>
<path d="M149.162 130.246C148.822 130.117 148.944 129.484 149.308 129.492C149.475 129.735 149.399 130.111 149.149 130.269L149.162 130.246Z" fill="#575066"/>
<path d="M132.283 110.964C132.163 110.876 132.043 110.788 131.923 110.701C132.048 110.398 132.561 110.387 132.699 110.684C132.61 110.809 132.467 110.894 132.315 110.912L132.283 110.964Z" fill="#575066"/>
<path d="M155.365 123.421C155.596 123.579 155.552 123.997 155.293 124.102C154.981 123.999 155.037 123.432 155.364 123.392L155.365 123.421Z" fill="#575066"/>
<path d="M165.665 105.099C165.836 105.362 166.338 105.035 166.167 104.773C165.996 104.51 165.494 104.837 165.665 105.099Z" fill="#575066"/>
<path d="M150.978 129.571C151.104 129.283 151.594 129.274 151.73 129.558C151.598 129.846 151.103 129.843 150.974 129.554L150.978 129.571Z" fill="#575066"/>
<path d="M142.888 104.668C142.976 104.548 143.064 104.428 143.152 104.308C143.454 104.433 143.466 104.946 143.169 105.084C143.044 104.995 142.959 104.852 142.941 104.7L142.888 104.668Z" fill="#575066"/>
<path d="M161.749 110.896C161.548 110.863 161.573 110.517 161.765 110.448C161.956 110.38 162.166 110.514 162.284 110.679C162.173 110.858 161.945 110.955 161.74 110.912L161.749 110.896Z" fill="#575066"/>
<path d="M159.475 117.454C159.575 117.232 159.89 117.141 160.093 117.277C160.154 117.449 160.043 117.661 159.866 117.709C159.69 117.756 159.487 117.628 159.454 117.449L159.475 117.454Z" fill="#575066"/>
<path d="M140.803 115.027C141.004 115.06 140.979 115.406 140.787 115.475C140.595 115.543 140.386 115.409 140.268 115.244C140.379 115.065 140.606 114.968 140.812 115.011L140.803 115.027Z" fill="#575066"/>
<path d="M157.483 117.844C157.654 118.107 158.156 117.78 157.985 117.518C157.814 117.255 157.312 117.582 157.483 117.844Z" fill="#575066"/>
<path d="M143.571 125.95C143.834 125.779 143.507 125.278 143.244 125.449C142.982 125.62 143.308 126.122 143.571 125.95Z" fill="#575066"/>
<path d="M163.752 113.324C163.632 113.236 163.512 113.149 163.392 113.061C163.517 112.759 164.03 112.747 164.168 113.044C164.079 113.169 163.936 113.254 163.784 113.272L163.752 113.324Z" fill="#575066"/>
<path d="M162.116 117.436C161.99 117.724 161.5 117.733 161.364 117.45C161.496 117.162 161.991 117.164 162.12 117.454L162.116 117.436Z" fill="#575066"/>
<path d="M168.253 113.03C168.127 113.319 167.637 113.328 167.501 113.044C167.633 112.756 168.128 112.759 168.257 113.048L168.253 113.03Z" fill="#575066"/>
<path d="M137.996 123.867C138.082 123.688 138.168 123.508 138.254 123.328C138.426 123.445 138.581 123.641 138.532 123.843C138.483 124.045 138.127 124.103 138.085 123.899L137.996 123.867Z" fill="#575066"/>
<path d="M170.207 110.979C170.027 110.893 169.847 110.807 169.667 110.721C169.784 110.549 169.98 110.394 170.182 110.443C170.384 110.492 170.442 110.848 170.238 110.889L170.207 110.979Z" fill="#575066"/>
<path d="M159.54 125.399C159.678 125.362 159.832 125.389 159.95 125.471C159.888 125.694 159.737 125.892 159.538 126.01C159.293 125.919 159.297 125.495 159.543 125.409L159.54 125.399Z" fill="#575066"/>
<path d="M127.901 115.429C127.803 115.071 128.492 114.891 128.581 115.251C128.482 115.466 128.172 115.549 127.978 115.413L127.901 115.429Z" fill="#575066"/>
<path d="M127.92 111.053C127.719 111.021 127.744 110.674 127.935 110.606C128.127 110.537 128.336 110.671 128.454 110.837C128.343 111.015 128.116 111.112 127.911 111.07L127.92 111.053Z" fill="#575066"/>
<path d="M157.898 123.424C157.889 123.582 157.79 123.732 157.649 123.803C157.359 123.67 157.362 123.172 157.653 123.043C157.778 123.132 157.862 123.275 157.881 123.427L157.898 123.424Z" fill="#575066"/>
<path d="M132.162 122.27C131.924 122.273 131.887 121.928 131.935 121.695C132.055 121.576 132.271 121.575 132.392 121.693C132.445 121.899 132.341 122.135 132.154 122.235L132.162 122.27Z" fill="#575066"/>
<path d="M160.066 123.745C159.989 123.437 159.402 123.584 159.479 123.892C159.556 124.2 160.143 124.053 160.066 123.745Z" fill="#575066"/>
<path d="M159.761 107.199C159.592 107.295 159.408 107.019 159.507 106.852C159.607 106.685 159.834 106.648 160.028 106.665C160.107 106.87 159.975 107.129 159.762 107.185L159.761 107.199Z" fill="#575066"/>
<path d="M153.39 110.621C153.591 110.654 153.566 111 153.375 111.069C153.183 111.138 152.974 111.004 152.856 110.838C152.967 110.66 153.194 110.562 153.4 110.605L153.39 110.621Z" fill="#575066"/>
<path d="M130.436 112.855C130.535 113.212 129.846 113.393 129.756 113.033C129.856 112.817 130.165 112.734 130.359 112.871L130.436 112.855Z" fill="#575066"/>
<path d="M140.964 119.413C141.123 119.59 141.043 119.918 140.821 120.001C140.47 119.921 140.641 119.248 140.988 119.346L140.964 119.413Z" fill="#575066"/>
<path d="M147.293 112.642C147.315 112.776 147.337 112.91 147.358 113.044C147.159 113.193 146.83 113.108 146.727 112.881C146.834 112.702 147.061 112.605 147.263 112.653L147.293 112.642Z" fill="#575066"/>
<path d="M136.333 128.146C136.009 128.223 135.964 127.63 136.245 127.453C136.501 127.571 136.552 127.976 136.335 128.154L136.333 128.146Z" fill="#575066"/>
<path d="M143.478 131.863C143.679 131.896 143.653 132.242 143.462 132.311C143.27 132.38 143.061 132.246 142.943 132.08C143.054 131.901 143.281 131.804 143.487 131.847L143.478 131.863Z" fill="#575066"/>
<path d="M159.764 112.728C159.803 112.858 159.779 113.006 159.701 113.118C159.494 113.165 159.256 113.073 159.158 112.885C159.268 112.668 159.576 112.581 159.784 112.708L159.764 112.728Z" fill="#575066"/>
<path d="M159.144 104.703C159.232 104.576 159.379 104.491 159.533 104.478C159.773 104.577 159.775 104.989 159.535 105.091C159.405 104.961 159.274 104.831 159.143 104.701L159.144 104.703Z" fill="#575066"/>
<path d="M134.282 113.035C134.106 113.194 133.777 113.114 133.694 112.892C133.774 112.541 134.447 112.712 134.35 113.058L134.282 113.035Z" fill="#575066"/>
<path d="M151.678 119.621C151.776 119.978 151.088 120.159 150.998 119.798C151.098 119.583 151.407 119.5 151.601 119.637L151.678 119.621Z" fill="#575066"/>
<path d="M155.043 106.572C155.214 106.49 155.443 106.576 155.52 106.748C155.391 106.877 155.262 107.005 155.133 107.133C154.922 107.054 154.868 106.722 155.044 106.581L155.043 106.572Z" fill="#575066"/>
<path d="M157.244 105.034C157.088 104.925 157.086 104.656 157.24 104.544C157.395 104.433 157.649 104.519 157.704 104.702C157.613 104.872 157.443 104.999 157.254 105.038L157.244 105.034Z" fill="#575066"/>
<path d="M157.752 125.786C157.735 126.004 157.401 126.109 157.263 125.939C157.192 125.732 157.324 125.499 157.511 125.385C157.591 125.513 157.671 125.642 157.751 125.77L157.752 125.786Z" fill="#575066"/>
<path d="M172.122 109.02C171.991 109.058 171.844 109.034 171.732 108.956C171.685 108.75 171.777 108.511 171.965 108.413C172.182 108.524 172.269 108.831 172.142 109.039L172.122 109.02Z" fill="#575066"/>
<path d="M148.993 109.03C148.845 108.835 148.93 108.51 149.155 108.413C149.332 108.521 149.429 108.747 149.385 108.951C149.272 109.026 149.128 109.052 148.995 109.023L148.993 109.03Z" fill="#575066"/>
<path d="M159.41 108.759C159.499 108.638 159.587 108.516 159.676 108.395C159.869 108.494 159.978 108.734 159.924 108.945C159.796 109.119 159.458 109.007 159.459 108.791L159.41 108.759Z" fill="#575066"/>
<path d="M161.895 128.069C161.747 127.874 161.832 127.549 162.057 127.452C162.235 127.56 162.331 127.786 162.288 127.99C162.174 128.065 162.03 128.091 161.898 128.062L161.895 128.069Z" fill="#575066"/>
<path d="M138.294 113.125C138.193 112.987 138.25 112.763 138.404 112.689C138.558 112.615 138.768 112.712 138.813 112.877C138.749 113.091 138.494 113.227 138.28 113.16L138.294 113.125Z" fill="#575066"/>
<path d="M136.436 129.263C136.615 129.348 136.794 129.434 136.973 129.519C136.872 129.72 136.63 129.839 136.41 129.795C136.298 129.664 136.292 129.454 136.397 129.317L136.436 129.263Z" fill="#575066"/>
<path d="M153.588 129.793C153.608 129.925 153.628 130.057 153.648 130.189C153.536 130.269 153.387 130.293 153.255 130.254C153.025 130.074 153.319 129.623 153.577 129.761L153.588 129.793Z" fill="#575066"/>
<path d="M159.944 127.988C159.933 128.146 159.835 128.296 159.694 128.369C159.508 128.27 159.408 128.035 159.465 127.834C159.594 127.661 159.931 127.774 159.929 127.99L159.944 127.988Z" fill="#575066"/>
<path d="M155.603 113.119C155.5 113.216 155.396 113.313 155.292 113.411C155.076 113.366 154.993 113.037 155.162 112.895C155.331 112.754 155.641 112.893 155.647 113.114L155.603 113.119Z" fill="#575066"/>
<path d="M170.145 108.796C170.236 109.035 170.025 109.335 169.768 109.329C169.548 109.096 169.878 108.64 170.168 108.775L170.145 108.796Z" fill="#575066"/>
<path d="M170.081 115.637C169.905 115.711 169.818 115.423 169.846 115.234C170.044 115.092 170.364 115.181 170.46 115.406C170.372 115.53 170.229 115.614 170.077 115.633L170.081 115.637Z" fill="#575066"/>
<path d="M132.39 108.948C132.429 109.182 132.127 109.39 131.923 109.27C131.915 109.099 131.917 108.903 132.045 108.79C132.173 108.676 132.446 108.79 132.383 108.949L132.39 108.948Z" fill="#575066"/>
<path d="M157.336 130.111C157.209 130.023 157.124 129.877 157.11 129.723C157.209 129.482 157.622 129.48 157.723 129.72C157.593 129.851 157.464 129.982 157.334 130.112L157.336 130.111Z" fill="#575066"/>
<path d="M143.016 123.975C142.891 123.881 142.805 123.737 142.781 123.583C142.875 123.458 143.019 123.372 143.173 123.347C143.325 123.54 143.235 123.869 143.007 123.958L143.016 123.975Z" fill="#575066"/>
<path d="M157.325 115.802C157.202 115.603 157.402 115.299 157.634 115.333C157.866 115.513 157.576 115.967 157.315 115.832L157.325 115.802Z" fill="#575066"/>
<path d="M132.605 115.209C132.754 115.473 132.287 115.784 132.101 115.544C131.94 115.322 132.37 115.041 132.552 115.247L132.605 115.209Z" fill="#575066"/>
<path d="M163.787 102.744C163.912 102.696 164.064 102.725 164.162 102.816C164.268 103.012 164.049 103.287 163.835 103.227C163.621 103.168 163.574 102.82 163.766 102.706L163.787 102.744Z" fill="#575066"/>
<path d="M162.063 123.338C162.186 123.538 161.986 123.841 161.754 123.807C161.522 123.628 161.812 123.173 162.073 123.308L162.063 123.338Z" fill="#575066"/>
<path d="M155.364 115.863C155.158 115.959 155.029 115.626 155.055 115.4C155.166 115.268 155.405 115.281 155.501 115.423C155.598 115.566 155.52 115.792 155.357 115.846L155.364 115.863Z" fill="#575066"/>
<path d="M140.976 112.956C141.073 113.1 141.009 113.323 140.851 113.394C140.693 113.464 140.483 113.363 140.441 113.195C140.541 113.014 140.771 112.916 140.971 112.969L140.976 112.956Z" fill="#575066"/>
<path d="M143.256 113.228C143.124 113.249 142.991 113.27 142.859 113.291C142.727 113.096 142.935 112.784 143.166 112.83C143.321 112.865 143.377 113.102 143.254 113.203L143.256 113.228Z" fill="#575066"/>
<path d="M138.458 107.145C138.175 107.216 138.213 106.7 138.447 106.526C138.694 106.609 138.693 107.039 138.446 107.12L138.458 107.145Z" fill="#575066"/>
<path d="M136.416 123.495C136.539 123.695 136.339 123.999 136.107 123.964C135.874 123.785 136.165 123.33 136.425 123.465L136.416 123.495Z" fill="#575066"/>
<path d="M133.915 115.682C134.001 115.574 134.086 115.465 134.172 115.357C134.369 115.365 134.502 115.628 134.392 115.791C134.282 115.955 133.988 115.93 133.907 115.75L133.915 115.682Z" fill="#575066"/>
<path d="M157.476 110.767C157.389 110.6 157.477 110.367 157.652 110.299C157.778 110.383 157.862 110.527 157.874 110.678C157.821 110.828 157.596 110.879 157.483 110.767L157.476 110.767Z" fill="#575066"/>
<path d="M136.077 115.645C135.99 115.478 136.078 115.245 136.253 115.177C136.379 115.261 136.463 115.405 136.474 115.556C136.422 115.706 136.197 115.757 136.084 115.644L136.077 115.645Z" fill="#575066"/>
<path d="M172.156 106.665C172.177 106.803 172.197 106.941 172.218 107.079C172.081 107.106 171.944 107.133 171.807 107.16C171.677 106.955 171.88 106.638 172.121 106.67L172.156 106.665Z" fill="#575066"/>
<path d="M138.624 117.36C138.737 117.571 138.53 117.87 138.293 117.839C138.22 117.723 138.192 117.579 138.218 117.445C138.331 117.37 138.476 117.343 138.609 117.372L138.624 117.36Z" fill="#575066"/>
<path d="M138.304 111.209C138.057 111.135 138.049 110.707 138.294 110.625C138.54 110.706 138.534 111.135 138.286 111.21L138.304 111.209Z" fill="#575066"/>
<path d="M138.694 127.985C138.708 128.137 138.603 128.292 138.457 128.335C138.264 128.312 138.154 128.044 138.275 127.892C138.395 127.74 138.68 127.784 138.748 127.966L138.694 127.985Z" fill="#575066"/>
<path d="M140.483 126.029C140.396 125.863 140.484 125.63 140.659 125.562C140.785 125.646 140.869 125.789 140.88 125.94C140.828 126.091 140.602 126.142 140.49 126.029L140.483 126.029Z" fill="#575066"/>
<path d="M138.363 104.546C138.379 104.31 138.658 104.074 138.839 104.226C138.863 104.38 138.864 104.559 138.75 104.666C138.636 104.773 138.389 104.693 138.421 104.54L138.363 104.546Z" fill="#575066"/>
<path d="M159.771 119.948C159.621 120.023 159.438 119.842 159.471 119.679C159.504 119.515 159.682 119.413 159.848 119.411C159.986 119.57 159.948 119.847 159.773 119.963L159.771 119.948Z" fill="#575066"/>
<path d="M142.882 121.502C142.969 121.396 143.056 121.291 143.142 121.185C143.329 121.177 143.472 121.418 143.375 121.578C143.279 121.738 142.998 121.723 142.919 121.554L142.882 121.502Z" fill="#575066"/>
<path d="M155.601 120.035C155.467 120.069 155.32 120.047 155.202 119.975C155.203 119.763 155.387 119.54 155.594 119.584C155.801 119.628 155.8 120.019 155.589 120.007L155.601 120.035Z" fill="#575066"/>
<path d="M153.549 115.032C153.727 115.081 153.818 115.322 153.717 115.477C153.568 115.512 153.403 115.477 153.282 115.384C153.365 115.253 153.448 115.122 153.531 114.991L153.549 115.032Z" fill="#575066"/>
<path d="M138.365 119.306C138.622 119.296 138.496 119.718 138.293 119.875C138.159 119.718 138.2 119.445 138.375 119.335L138.365 119.306Z" fill="#575066"/>
<path d="M163.703 119.334C163.908 119.433 163.854 119.807 163.629 119.844C163.362 119.792 163.441 119.286 163.712 119.318L163.703 119.334Z" fill="#575066"/>
<path d="M148.892 113.093C148.764 113.023 148.844 112.801 148.986 112.767C149.129 112.733 149.27 112.814 149.394 112.893C149.387 113.108 149.045 113.208 148.924 113.03L148.892 113.093Z" fill="#575066"/>
<path d="M143.33 119.881C143.231 120.086 142.857 120.033 142.82 119.808C142.873 119.541 143.378 119.62 143.346 119.89L143.33 119.881Z" fill="#575066"/>
<path d="M132.094 127.523C132.152 127.338 132.472 127.333 132.535 127.516C132.472 127.699 132.152 127.695 132.095 127.509L132.094 127.523Z" fill="#575066"/>
<path d="M140.591 131.771C140.649 131.586 140.968 131.581 141.032 131.764C140.969 131.948 140.649 131.943 140.591 131.758L140.591 131.771Z" fill="#575066"/>
<path d="M172.02 104.691C171.977 104.867 171.739 104.96 171.587 104.862C171.512 104.72 171.57 104.515 171.72 104.457C171.87 104.4 172.063 104.546 172.027 104.702L172.02 104.691Z" fill="#575066"/>
<path d="M167.841 126.076C167.735 125.989 167.63 125.902 167.524 125.815C167.516 125.629 167.757 125.486 167.917 125.583C168.076 125.679 168.062 125.96 167.893 126.039L167.841 126.076Z" fill="#575066"/>
<path d="M163.707 128.151C163.552 128.082 163.61 127.795 163.779 127.792C164.004 127.799 163.885 128.266 163.713 128.12L163.707 128.151Z" fill="#575066"/>
<path d="M141.227 276.115C131.323 267.067 122.939 256.359 116.533 244.573C113.831 239.602 111.416 234.016 112.427 228.449C114.319 218.035 110.409 207.571 107.329 197.446C104.248 187.32 102.066 175.885 107.021 166.533C99.2049 173.74 96.0702 184.662 94.3946 195.161C90.5099 219.502 92.6962 244.788 100.701 268.101C91.302 250.895 90.9325 230.309 91.8238 210.724C92.5174 195.484 94.2217 179.254 103.795 167.376C89.0568 179.396 84.5722 199.686 81.32 218.424C78.2663 236.019 75.5483 254.486 81.2102 271.423C75.8681 261.575 76.7406 249.658 77.8435 238.509C80.3801 212.865 84.2859 185.249 102.249 166.771C107 161.884 112.799 157.74 119.454 156.269C124.611 155.128 129.58 153.139 134.098 150.404C135.187 144.026 129.186 139.003 124.993 134.075C120.297 128.556 117.368 121.556 116.733 114.338C116.357 110.065 115.46 104.243 111.174 104.061C107.652 103.912 105 99.661 106.414 96.4312C107.828 93.2014 112.75 92.2669 115.249 94.7537C111.684 81.3874 119.216 65.9658 131.949 60.5596C129.873 57.5903 134.405 54.0318 138.003 54.4571C141.601 54.8824 145.084 57.0557 148.617 56.2528C147.406 54.1208 149.346 51.2882 151.736 50.7421C154.126 50.196 156.579 51.2337 158.723 52.4231C172.486 60.0584 181.581 75.4564 181.624 91.1949C181.98 88.3221 186.291 87.3384 188.399 89.3217C190.508 91.305 190.407 94.8548 188.91 97.3322C187.413 99.8096 184.861 101.436 182.335 102.85C182.399 113.287 178.43 123.698 171.434 131.443C166.343 137.079 159.13 143.057 160.801 150.466C163.509 149.866 166.249 152.991 165.301 155.597C176.912 154.63 187.748 161.638 195.974 169.89C208.033 181.986 216.7 197.428 220.744 214.023C221.451 216.921 225.575 217.712 228.126 216.165C230.677 214.618 231.989 211.694 233.151 208.946C240.807 190.854 248.464 172.761 256.12 154.668C253.557 138.921 255.837 139.799 257.037 132.435C260.318 123.876 259.691 116.143 261.018 107.997C261.38 105.779 262.931 102.852 264.98 103.776C266.016 104.244 266.382 105.507 266.603 106.622C267.844 112.888 268.241 119.322 267.779 125.693C270.429 121.159 273.08 116.626 275.73 112.092C277.181 109.611 280.384 106.832 282.396 108.885C283.501 110.012 283.211 111.862 282.755 113.374C281.304 118.181 278.94 122.712 275.826 126.651C280.025 128.083 284.888 130.258 285.623 134.633C285.928 136.448 285.414 138.295 284.805 140.032C282.687 146.068 279.341 151.671 275.03 156.399C276.019 155.802 276.666 157.578 276.469 158.716C271.741 186.071 260.22 212.224 243.228 234.176C238.214 240.654 231.412 247.336 223.255 246.572C218.15 246.094 213.836 242.743 209.841 239.528C205.54 236.066 201.239 232.604 196.938 229.142C206.95 231.379 212.526 243.869 222.71 245.102C230.991 246.104 237.942 239.169 242.947 232.496C259.277 210.722 270.431 185.092 275.234 158.301C268.704 159.398 261.906 158.863 255.628 156.759C249.398 176.074 241.552 194.867 232.199 212.879C230.583 215.992 227.707 219.611 224.387 218.479C222.901 217.972 221.897 216.608 221.059 215.279C212.69 202.006 210.745 184.306 198.539 174.445C203.458 204.955 195.702 235.981 186.923 265.612C193.644 242.523 197.738 218.67 199.101 194.661C199.414 189.149 199.57 183.515 198.01 178.219C196.45 172.923 192.889 167.94 187.72 166.001C184.353 187.898 164.633 204.186 159.643 225.772C155.608 243.225 149.407 260.177 141.227 276.115ZM161.498 216.173C169 201.91 178.836 188.853 184.943 173.939C186.331 170.549 187.477 166.518 185.589 163.378C184.908 162.244 183.892 161.357 182.893 160.49C181.314 159.118 179.582 157.68 177.497 157.51C174.731 157.285 172.332 159.354 170.552 161.484C166.236 166.649 163.449 172.891 160.799 179.078C154.459 193.876 148.566 208.937 144.86 224.604C141.154 240.271 139.676 256.624 142.225 272.52C145.452 257.942 156.305 245.59 157.792 230.733C158.037 228.286 158.021 225.803 158.553 223.402C159.118 220.854 160.283 218.483 161.498 216.173ZM176.35 81.5623C175.334 79.6036 174.066 77.7302 172.333 76.3651C168.472 73.3244 163.035 73.3163 158.204 74.2199C155.115 74.7975 152.086 75.6882 149.177 76.8739C148.417 77.1835 147.61 77.52 146.804 77.3733C145.997 77.2266 145.271 76.3566 145.601 75.606C145.665 75.4617 145.764 75.3277 145.78 75.1708C145.828 74.7314 145.269 74.5115 144.832 74.4484C138.183 73.4898 131.103 74.611 125.514 78.337C119.925 82.063 116.055 88.5602 116.262 95.2744C116.309 96.7811 117.442 98.0138 118.579 99.0033C120.318 100.517 122.234 101.826 124.276 102.897C125.193 103.377 126.451 103.758 127.151 102.996C128.541 101.486 130.85 101.368 132.902 101.412C140.035 101.565 147.207 102.388 154.278 101.437C158.586 100.858 162.782 99.6291 167.073 98.9373C168.387 98.7254 169.744 98.5656 171.04 98.8725C172.335 99.1794 173.573 100.041 173.985 101.307C175.656 99.4191 177.159 97.3821 178.469 95.2284C178.863 94.5822 179.244 93.9102 179.39 93.168C179.519 92.509 179.455 91.8286 179.368 91.1629C178.928 87.8201 177.902 84.5553 176.35 81.5623ZM165.651 128.464C168.169 127.36 169.583 124.683 170.536 122.104C172.806 115.958 173.535 109.25 172.64 102.76C172.55 102.108 172.429 101.424 172.013 100.914C171.354 100.105 170.176 99.9795 169.133 100.022C166.682 100.122 164.296 100.797 161.91 101.367C156.885 102.567 151.737 103.312 146.571 103.329C141.466 103.347 136.369 102.654 131.267 102.852C130.252 102.892 129.178 102.987 128.354 103.582C127.047 104.524 126.818 106.35 126.765 107.961C126.567 114.083 127.289 120.234 128.901 126.143C128.998 126.498 129.107 126.868 129.365 127.131C129.644 127.413 130.048 127.523 130.429 127.635C136.592 129.44 141.924 134.609 148.33 134.163C153.083 133.832 157.079 130.423 161.731 129.396C163.046 129.106 164.418 129.005 165.651 128.464ZM112.961 229.595C112.579 235.15 115.722 240.265 118.745 244.941C121.804 249.674 124.864 254.408 127.924 259.141C123.411 244.123 121.282 228.492 119.835 212.877C118.323 196.573 117.572 179.847 122.031 164.092C122.738 161.591 123.586 159.103 124.954 156.894C120.85 156.787 116.484 157.101 113.137 159.478C110.96 161.022 109.415 163.314 108.271 165.726C104.735 173.176 104.727 181.871 106.29 189.969C107.853 198.066 110.886 205.793 113.262 213.69C113.952 215.985 114.594 218.341 114.51 220.736C114.404 223.737 113.168 226.6 112.961 229.595ZM132.895 130.051C130.779 129.238 128.214 128.575 127.373 126.471C126.978 125.484 127.074 124.378 126.96 123.321C126.846 122.263 126.403 121.103 125.413 120.712C123.029 119.77 120.742 118.582 118.6 117.173C119.663 123.422 122.492 129.361 126.676 134.122C128.771 136.507 131.201 138.607 133.057 141.182C134.914 143.757 136.177 146.997 135.493 150.097C135.275 151.085 136.694 151.515 137.706 151.491C144.424 151.332 151.141 151.145 157.857 150.928C158.995 150.891 159.667 149.562 159.64 148.424C159.614 147.285 159.155 146.185 159.17 145.046C159.192 143.373 160.218 141.895 161.262 140.588C164.355 136.714 167.968 133.285 171.183 129.512C174.398 125.739 177.263 121.511 178.486 116.707C176.358 120.296 171.869 122.146 170.204 125.972C169.259 128.144 166.975 129.422 164.712 130.12C162.449 130.818 160.05 131.102 157.891 132.073C156.783 132.571 155.762 133.24 154.678 133.786C150.868 135.705 146.277 136.009 142.248 134.611C138.967 133.472 136.136 131.296 132.895 130.051ZM267.422 139.542C269.756 139.403 272.576 140.311 274.122 138.557C274.476 138.156 274.709 137.603 274.581 137.083C274.406 136.376 273.662 135.987 272.984 135.719C268.655 134.009 263.81 133.633 259.27 134.654C257.688 135.01 256.764 136.47 256.418 138.053C256.071 139.637 256.155 141.351 256.418 142.951C257.084 147.013 257.751 151.076 258.417 155.138C258.447 155.321 258.479 155.511 258.582 155.665C258.737 155.897 259.018 156.004 259.281 156.094C262.562 157.212 266.052 157.71 269.514 157.555C270.89 157.494 272.379 157.276 273.345 156.293C278.074 151.485 281.531 145.436 283.275 138.921C282.326 139.771 281.107 140.432 279.837 140.333C278.567 140.235 277.333 139.155 277.416 137.884C274.982 139.76 272.114 141.745 269.105 141.122C266.803 140.646 264.263 141.665 262.93 143.6C262.117 143.387 262.43 142.129 263.021 141.532C264.18 140.362 265.779 139.64 267.422 139.542ZM127.645 175.704C126.051 175.952 124.465 176.249 122.892 176.604C121.785 176.854 120.468 177.362 120.325 178.488C120.04 180.731 119.885 182.991 119.861 185.252C131.893 182.414 144.669 182.795 156.51 186.346C157.768 183.399 159.026 180.451 160.284 177.503C149.69 174.634 138.491 174.017 127.645 175.704ZM172.097 158.022C170.193 157.015 167.976 156.61 165.839 156.88C165.417 156.933 164.943 157.05 164.74 157.424C163.929 158.915 162.155 159.559 160.514 159.994C152.258 162.18 143.539 162.131 135.077 160.978C133.503 160.763 131.908 160.503 130.479 159.812C129.05 159.12 127.786 157.931 127.362 156.401C126.235 156.384 125.558 157.615 125.158 158.668C123.947 161.853 122.901 165.1 122.025 168.393C135.746 165.285 150.247 165.687 163.774 169.55C165.065 167.974 166.023 166.126 166.568 164.163C166.823 163.247 167.526 162.535 168.203 161.866C169.501 160.585 170.799 159.304 172.097 158.022ZM149.687 204.448C151.013 201.516 152.139 198.493 153.054 195.408C142.49 193.658 131.672 193.453 121.049 194.802C120.599 194.859 120.099 194.947 119.827 195.31C119.587 195.63 119.6 196.066 119.622 196.465C119.736 198.443 119.849 200.421 119.962 202.4C119.993 202.931 120.246 203.65 120.768 203.542C130.301 201.576 140.295 201.89 149.687 204.448ZM281.458 113.653C281.76 112.902 282.051 112.113 281.985 111.307C281.919 110.5 281.394 109.673 280.598 109.524C280.103 109.431 279.591 109.61 279.162 109.875C278.109 110.525 277.449 111.64 276.831 112.711C274.032 117.561 271.232 122.412 268.433 127.262C268.07 127.891 267.021 127.696 266.623 127.089C266.225 126.482 266.278 125.696 266.334 124.972C266.805 118.906 266.451 112.776 265.287 106.803C265.215 106.433 265.134 106.049 264.911 105.744C264.264 104.86 262.756 105.168 262.105 106.048C261.454 106.929 261.416 108.105 261.408 109.2C261.343 117.542 261.421 126.18 258.052 133.811C261.474 132.482 265.327 132.29 268.865 133.273C269.371 133.413 269.895 133.578 270.41 133.481C270.926 133.383 271.416 132.913 271.326 132.396C270.988 130.459 272.379 128.698 273.601 127.158C276.85 123.065 279.506 118.501 281.458 113.653ZM164.087 153.594C163.854 152.638 162.997 151.76 162.017 151.848C152.016 152.743 141.957 152.998 131.923 152.61C131.329 152.587 130.704 152.568 130.177 152.843C129.805 153.037 129.514 153.366 129.317 153.737C128.516 155.24 129.329 157.2 130.694 158.218C132.059 159.237 133.817 159.534 135.507 159.747C142.883 160.678 150.4 160.58 157.723 159.294C159.304 159.016 160.926 158.662 162.235 157.732C163.543 156.803 164.467 155.154 164.087 153.594ZM146.257 214.837C146.315 214.637 146.371 214.411 146.266 214.231C146.153 214.039 145.907 213.982 145.688 213.945C137.738 212.597 129.6 213.259 121.563 213.925C121.336 213.944 121.077 213.981 120.95 214.169C120.85 214.317 120.864 214.51 120.882 214.687C121.115 216.969 121.348 219.25 121.581 221.532C121.626 221.97 121.811 222.538 122.251 222.516C129.239 222.159 136.262 222.468 143.191 223.439C143.632 223.501 143.896 222.975 144.02 222.548C144.766 219.978 145.512 217.408 146.257 214.837ZM141.7 235.366C141.735 235.038 141.754 234.664 141.527 234.425C141.353 234.242 141.084 234.194 140.834 234.16C135.393 233.402 129.866 233.94 124.4 234.478C124.126 234.505 123.81 234.559 123.678 234.8C123.588 234.965 123.617 235.168 123.648 235.353C124.015 237.539 124.381 239.725 124.748 241.911C124.801 242.226 124.967 242.63 125.283 242.583C130.497 241.806 136.045 241.577 140.814 243.824C141.109 241.005 141.405 238.186 141.7 235.366ZM119.83 116.328C121.8 117.68 123.962 118.752 126.231 119.501C125.243 114.944 125.05 110.216 125.662 105.594C125.739 105.009 125.081 104.632 124.538 104.403C121.361 103.064 118.477 101.033 116.146 98.492C116.387 103.314 116.908 108.122 117.706 112.884C117.826 113.598 117.96 114.332 118.346 114.944C118.71 115.52 119.269 115.942 119.83 116.328ZM172.334 121.223C174.45 119.504 176.303 117.476 177.943 115.298C178.828 114.123 179.661 112.886 180.152 111.499C180.644 110.104 180.772 108.61 180.831 107.132C180.984 103.264 180.689 99.3791 179.953 95.579C178.254 97.887 176.555 100.195 174.856 102.503C174.596 102.857 174.329 103.224 174.229 103.653C174.148 103.996 174.181 104.354 174.209 104.705C174.663 110.263 174.022 115.909 172.334 121.223ZM139.513 262.369C139.885 262.445 140.055 261.925 140.064 261.546C140.118 259.278 140.172 257.01 140.226 254.741C140.231 254.537 140.234 254.324 140.145 254.14C139.982 253.8 139.573 253.67 139.208 253.575C137.143 253.038 135.049 252.497 132.916 252.523C131.144 252.545 129.389 252.958 127.618 252.914C127.417 252.909 127.156 252.943 127.113 253.139C127.099 253.207 127.118 253.277 127.137 253.344C127.919 256.057 128.948 258.699 130.207 261.226C130.372 261.558 130.57 261.913 130.914 262.047C131.158 262.142 131.43 262.107 131.689 262.075C134.29 261.749 136.943 261.849 139.513 262.369ZM182.008 92.0639C181.603 92.6902 181.244 93.3748 181.178 94.1177C181.137 94.5734 181.208 95.0309 181.279 95.4829C181.552 97.2249 181.826 98.9668 182.099 100.709C182.115 100.81 182.133 100.917 182.201 100.994C182.359 101.175 182.653 101.079 182.868 100.97C183.732 100.531 184.607 100.085 185.338 99.4464C185.923 98.9342 186.4 98.311 186.85 97.6759C187.789 96.3486 188.652 94.8681 188.713 93.2432C188.774 91.6183 187.777 89.8519 186.177 89.5585C184.484 89.2477 182.943 90.6181 182.008 92.0639ZM108.415 95.5132C107.766 96.082 107.531 96.9852 107.423 97.8414C107.325 98.6254 107.308 99.442 107.579 100.184C107.955 101.207 108.846 101.975 109.833 102.438C110.819 102.902 111.906 103.101 112.979 103.296C113.508 103.392 114.037 103.488 114.567 103.584C114.698 103.607 114.853 103.624 114.946 103.528C115.023 103.449 115.023 103.325 115.018 103.214C114.93 101.253 114.843 99.2926 114.755 97.3318C114.718 96.4988 114.123 95.765 113.389 95.3695C112.655 94.974 111.8 94.8675 110.967 94.8463C110.066 94.8234 109.093 94.9198 108.415 95.5132ZM278.595 129.066C278.206 128.641 277.631 128.446 277.078 128.28C276.493 128.105 275.861 127.945 275.28 128.136C274.621 128.353 274.185 128.969 273.837 129.57C273.31 130.478 272.874 131.438 272.535 132.432C272.416 132.784 272.307 133.154 272.357 133.522C272.407 133.89 272.658 134.256 273.023 134.325C274.515 134.605 275.817 135.728 276.313 137.162C277.005 135.711 277.698 134.259 278.391 132.808C278.677 132.208 278.967 131.596 279.066 130.938C279.164 130.28 279.045 129.557 278.595 129.066ZM283.786 132.106C283.077 131.439 281.897 131.486 281.077 132.011C280.256 132.536 279.746 133.433 279.416 134.349C279.04 135.393 278.857 136.505 278.879 137.614C278.884 137.879 278.903 138.152 279.026 138.387C279.32 138.954 280.097 139.081 280.717 138.925C282.07 138.583 282.972 137.325 283.641 136.1C283.986 135.469 284.306 134.807 284.396 134.093C284.486 133.38 284.31 132.599 283.786 132.106ZM141.045 273.678C140.712 271.753 140.379 269.828 140.046 267.904C140.007 267.68 139.955 267.433 139.773 267.298C139.653 267.209 139.498 267.185 139.35 267.166C137.635 266.943 135.892 266.932 134.173 267.133C136.202 269.569 138.512 271.77 141.045 273.678Z" fill="#00160A"/>
<path d="M42.5228 86.0207C40.8101 89.3039 39.9216 92.9466 39.9433 96.6317C38.521 93.8301 36.8178 90.9329 33.534 90.0837C30.7835 89.3482 27.5982 90.8593 27.2258 93.8305C26.7804 97.3999 29.9948 100.516 32.4059 102.716C35.2307 105.315 38.4954 107.402 41.8419 109.284C43.5553 110.243 45.2871 111.129 47.0259 112.035C46.6413 113.252 46.2738 114.639 47.008 115.735C47.5842 116.58 48.747 116.948 49.5932 116.201C50.4395 115.453 50.4177 114.164 49.8613 113.311C49.3741 112.587 48.6133 112.095 47.8074 111.663C47.8511 111.537 47.8821 111.438 47.9258 111.312C48.2413 110.274 48.5837 109.248 48.9528 108.234C49.6643 106.195 50.4492 104.173 51.1537 102.114C52.4077 98.4919 53.4598 94.7457 53.6271 90.9038C53.7484 87.98 53.6121 83.6112 50.7864 81.8699C47.3679 79.7289 43.9874 83.2235 42.5228 86.0207ZM49.4425 113.881C49.7066 114.423 49.7423 115.135 49.2882 115.608C48.5224 116.393 47.5625 115.599 47.3392 114.801C47.1158 114.003 47.3355 113.132 47.5961 112.311C48.3413 112.7 49.088 113.153 49.4425 113.881ZM52.9784 88.8758C53.0669 90.778 52.9296 92.6745 52.5792 94.5386C51.9067 98.3445 50.5667 101.976 49.2266 105.607C48.532 107.508 47.8246 109.436 47.2302 111.367C46.7672 111.14 46.3184 110.952 45.9021 110.73C44.2578 109.899 42.646 109.035 41.0398 108.125C37.7597 106.241 34.5867 104.099 31.8733 101.437C30.3063 99.8975 28.5685 98.134 27.9042 96.0016C27.2046 93.7723 28.0755 91.433 30.4201 90.6236C34.8528 89.0981 38.0778 93.5957 39.9307 96.966C39.9436 97.2471 39.9564 97.5282 39.9693 97.8093C39.9977 98.1946 40.5663 98.0976 40.552 97.7511C40.4372 94.0559 41.0802 90.4146 42.6913 87.0365C43.4904 85.3608 44.5252 83.5333 46.2095 82.5686C48.0771 81.4932 50.3122 81.7348 51.5661 83.5206C52.635 85.044 52.8985 87.0584 52.9784 88.8758Z" fill="#575066"/>
<path d="M253.798 48.8674C251.012 50.0187 248.552 51.8255 246.637 54.135C247.216 51.6435 247.67 48.9454 246.066 46.6975C244.736 44.7995 241.959 44.075 240.172 45.7331C238.026 47.726 238.4 51.3517 238.752 53.9853C239.154 57.0843 240.098 60.0943 241.2 63.0188C241.767 64.5135 242.383 65.9726 242.993 67.4474C242.117 68.0052 241.162 68.6777 241.046 69.7452C240.963 70.574 241.496 71.412 242.415 71.3886C243.334 71.3652 243.995 70.5499 244.094 69.727C244.169 69.0206 243.952 68.3154 243.676 67.6242C243.769 67.5686 243.84 67.5229 243.933 67.4673C244.673 66.985 245.423 66.5244 246.184 66.0854C247.695 65.1859 249.243 64.3354 250.76 63.42C253.437 61.8175 256.053 60.0318 258.168 57.7235C259.774 55.9636 261.975 53.1677 261.124 50.6031C260.112 47.479 256.176 47.8894 253.798 48.8674ZM243.534 69.8634C243.416 70.3392 243.065 70.8022 242.535 70.8595C241.647 70.9479 241.463 69.9506 241.742 69.3361C242.02 68.7216 242.613 68.2932 243.205 67.918C243.466 68.5501 243.694 69.2237 243.534 69.8634ZM258.825 56.1193C257.885 57.3519 256.807 58.4627 255.613 59.4419C253.202 61.4634 250.466 63.0268 247.73 64.5901C246.302 65.4124 244.851 66.2447 243.47 67.1378C243.3 66.7539 243.119 66.4016 242.976 66.0451C242.385 64.6669 241.832 63.2845 241.307 61.8764C240.247 58.9852 239.389 55.9887 239.09 52.909C238.918 51.1287 238.757 49.1195 239.459 47.4421C240.189 45.6857 241.956 44.6825 243.842 45.4047C247.405 46.7729 247.062 51.2654 246.454 54.3369C246.315 54.5189 246.176 54.7009 246.037 54.8829C245.853 55.1381 246.258 55.3751 246.431 55.1516C248.293 52.7871 250.599 50.8527 253.372 49.589C254.747 48.9622 256.349 48.364 257.904 48.6437C259.631 48.9504 260.899 50.2707 260.746 52.0405C260.616 53.5499 259.726 54.944 258.825 56.1193Z" fill="#575066"/>
</svg>
