<svg width="82" height="69" viewBox="0 0 82 69" fill="none" xmlns="http://www.w3.org/2000/svg">
<path fill-rule="evenodd" clip-rule="evenodd" d="M21.0361 5.6268C18.5502 6.48834 16.2087 4.24654 14.0666 2.71924C10.7519 0.355984 6.42784 -0.537589 2.44793 0.318217C1.78771 0.460185 1.09615 0.673275 0.661331 1.18998C0.263748 1.66244 0.150673 2.30694 0.0866547 2.92111C-0.305222 6.68071 0.634911 10.5657 2.70235 13.7302C3.70815 15.2697 4.96815 16.6404 5.86762 18.2443C6.7671 19.8483 7.28075 21.8078 6.63996 23.5315C2.83035 33.7793 4.41591 45.8664 10.7397 54.7849C17.0635 63.7034 27.9452 69.1989 38.8763 68.9945C44.4666 68.89 49.9436 67.3979 55.2107 65.5214C57.5087 64.7027 60.0351 63.8045 62.3163 64.6691C66.4787 66.2466 70.8611 67.2427 75.2965 67.6195C76.3971 67.713 77.5471 67.7611 78.5627 67.3265C80.0829 66.6761 81.0006 65.0277 81.1751 63.3834C81.3496 61.7391 80.8951 60.0932 80.3209 58.5426C78.5889 53.8651 73.2118 46.5583 69.957 44.8751C70.2202 39.195 70.1914 33.4484 68.9634 27.8965C67.7353 22.3446 65.2292 16.9573 61.1182 13.029C59.4201 11.4064 57.4769 10.0559 55.4415 8.88399C45.1467 2.95674 32.2602 1.73676 21.0361 5.6268ZM36.7136 5.16618C44.586 5.35045 52.2491 8.51274 58.403 13.4256C60.2099 14.8681 61.9081 16.4707 63.2642 18.3431C64.3333 19.8192 65.1787 21.4479 65.8851 23.128C70.0766 33.0972 69.1197 45.075 63.3987 54.2523C63.2739 54.4524 63.1309 54.6645 62.9083 54.7422C62.6337 54.8381 62.338 54.6984 62.0813 54.5616C44.1126 44.9858 28.1187 31.7237 15.3821 15.8383C15.0787 15.46 14.7596 15.0205 14.825 14.5401C14.8742 14.1796 15.1314 13.887 15.3825 13.6237C20.8172 7.92542 28.8413 4.98192 36.7136 5.16618ZM25.7076 64.6785C17.173 60.6717 10.6907 52.7539 7.91857 43.7423C7.29083 41.7017 6.83958 39.5922 6.79536 37.4577C6.75816 35.6627 7.00856 33.8755 7.25838 32.0975C7.62056 29.5199 7.98274 26.9422 8.34492 24.3646C8.44095 23.6812 9.09956 22.7791 9.58049 23.274C22.9341 37.0165 37.5156 49.5652 53.0945 60.7218C53.613 61.0931 54.1836 61.5521 54.2115 62.1892C54.2439 62.9265 53.5403 63.4613 52.901 63.83C44.7334 68.54 34.2422 68.6853 25.7076 64.6785ZM78.3517 63.6288C77.7308 64.6246 76.3849 64.8286 75.2118 64.8611C69.0573 65.0313 62.9683 63.2279 57.4618 60.4735C51.9554 57.7192 46.9717 54.035 42.1284 50.2337C35.6686 45.1637 29.4017 39.8501 23.2942 34.3608C15.7303 27.5624 8.29791 20.3515 3.33186 11.4763C2.37125 9.75954 1.48462 7.87707 1.6349 5.91557C1.78519 3.95407 3.34978 1.97376 5.31554 2.05043C9.48694 2.21314 13.5886 3.81707 16.7638 6.52723C17.3953 7.06621 16.9489 8.21355 16.1717 8.50529C15.3944 8.79704 14.5282 8.50717 13.7687 8.17191C13.0092 7.83665 12.2183 7.44458 11.3931 7.53632C10.1326 7.67648 9.23727 8.96699 9.16222 10.2331C9.08716 11.4992 9.64696 12.716 10.3067 13.7993C11.5276 15.804 13.122 17.5515 14.7332 19.2584C29.0551 34.4315 45.5762 47.5254 63.6194 58.0031C65.2443 58.9467 66.8882 59.8724 68.6369 60.5599C69.5542 60.9204 70.6059 61.2099 71.5011 60.7976C72.9689 60.1215 73.0866 58.0605 72.6462 56.5057C71.985 54.1709 70.5562 52.0604 68.6342 50.5792C68.9983 49.5536 69.3623 48.528 69.7264 47.5025C74.4707 50.5328 77.8001 55.6872 78.6117 61.2579C78.7288 62.0617 78.7815 62.9394 78.3517 63.6288ZM64.8621 56.5907C64.8285 56.4849 64.8901 56.3747 64.9492 56.2807C65.5621 55.3069 66.1749 54.3332 66.7878 53.3594C67.0651 52.9188 67.6014 52.4198 68.0173 52.7329C69.5155 53.8612 70.5879 55.5417 70.9803 57.3757C71.0577 57.7376 71.1027 58.1416 70.9056 58.4549C70.539 59.0377 69.663 58.9079 69.0148 58.6757C67.6331 58.1806 66.3021 57.5439 65.0494 56.7788C64.9722 56.7317 64.8895 56.677 64.8621 56.5907ZM11.5467 10.2365C11.6082 9.98357 11.9094 9.87368 12.1695 9.86234C12.9592 9.8279 13.7843 10.4771 13.7343 11.2659C13.6844 12.0548 12.5118 12.5515 12.0218 11.9312C11.8739 11.744 11.8114 11.5052 11.7524 11.274C11.6941 11.0449 11.6357 10.8158 11.5773 10.5867C11.548 10.472 11.5187 10.3516 11.5467 10.2365Z" fill="#00160A" fill-opacity="0.33"/>
</svg>
