<svg width="269" height="237" viewBox="0 0 269 237" fill="none" xmlns="http://www.w3.org/2000/svg">
<path fill-rule="evenodd" clip-rule="evenodd" d="M157.798 236.758C219.69 236.758 228.464 209.223 237.848 204.164C247.232 199.104 241.398 188.95 247.553 181.291C257.384 169.058 263.342 175.362 266.596 159.492C269.85 143.622 263.935 139.132 263.935 124.963C263.935 96.5745 277.534 83.1364 260.167 68.2833C242.801 53.4303 213.801 55.1828 185.118 55.1828C131.881 55.1828 99.9876 -17.7972 28.982 4.09764C4.51192 11.6431 7.21637 21.9257 12.5931 58.2642C14.928 74.0441 -2.70101 94.1068 0.357704 112.039C5.94407 144.79 20.698 140.348 48.5353 162.46C53.2053 166.17 60.0167 166.132 65.1079 169.937C73.6434 176.315 74.1923 186.234 90.1495 192.924C115.88 203.711 113.698 236.758 157.798 236.758Z" fill="#672DE3"/>
</svg>
