<svg width="25" height="27" viewBox="0 0 25 27" fill="none" xmlns="http://www.w3.org/2000/svg">
<path fill-rule="evenodd" clip-rule="evenodd" d="M14.0033 17.8401C15.408 17.8401 16.5513 18.9753 16.5513 20.3706V23.9593C16.5513 24.2591 16.7917 24.4994 17.0997 24.5064H19.3233C21.0757 24.5064 22.5002 23.0994 22.5002 21.3704V11.1924C22.492 10.5974 22.2085 10.0374 21.722 9.66528L14.0302 3.53094C12.9977 2.71311 11.5533 2.71311 10.5173 3.53328L2.878 9.66294C2.37283 10.0468 2.08933 10.6068 2.0835 11.2123V21.3704C2.0835 23.0994 3.508 24.5064 5.26033 24.5064H7.505C7.82116 24.5064 8.07783 24.2556 8.07783 23.9476C8.07783 23.8799 8.086 23.8123 8.1 23.7481V20.3706C8.1 18.9834 9.23633 17.8494 10.6305 17.8401H14.0033ZM19.3233 26.2565H17.0787C15.793 26.2261 14.8013 25.217 14.8013 23.9593V20.3706C14.8013 19.9401 14.4432 19.5901 14.0033 19.5901H10.6363C10.2058 19.5925 9.85 19.9436 9.85 20.3706V23.9476C9.85 24.0351 9.83833 24.1191 9.81383 24.1985C9.68783 25.3535 8.70083 26.2565 7.505 26.2565H5.26033C2.54316 26.2565 0.333496 24.0643 0.333496 21.3704V11.2041C0.345163 10.0445 0.879496 8.98278 1.80233 8.28395L9.4265 2.16478C11.1053 0.834784 13.4445 0.834784 15.1198 2.16245L22.7988 8.28745C23.7007 8.97462 24.235 10.034 24.2502 11.1796V21.3704C24.2502 24.0643 22.0405 26.2565 19.3233 26.2565Z" fill="#575066"/>
<path d="M17.0997 24.5064L17.094 24.7564H17.0997V24.5064ZM22.5002 11.1924H22.7502L22.7501 11.189L22.5002 11.1924ZM21.722 9.66528L21.5661 9.86077L21.5701 9.86384L21.722 9.66528ZM14.0302 3.53094L14.186 3.33549L14.1854 3.33497L14.0302 3.53094ZM10.5173 3.53328L10.3622 3.33726L10.3609 3.33829L10.5173 3.53328ZM2.878 9.66294L3.0293 9.86207L3.03445 9.85793L2.878 9.66294ZM2.0835 11.2123L1.8335 11.2099V11.2123H2.0835ZM8.1 23.7481L8.34425 23.8014L8.35 23.7751V23.7481H8.1ZM10.6305 17.8401V17.5901L10.6288 17.5901L10.6305 17.8401ZM17.0787 26.2565L17.0728 26.5065H17.0787V26.2565ZM10.6363 19.5901V19.3401L10.635 19.3401L10.6363 19.5901ZM9.81383 24.1985L9.57496 24.1247L9.5679 24.1475L9.5653 24.1713L9.81383 24.1985ZM0.333496 11.2041L0.0834961 11.2016V11.2041H0.333496ZM1.80233 8.28395L1.95331 8.48333L1.95881 8.47892L1.80233 8.28395ZM9.4265 2.16478L9.27125 1.96882L9.27001 1.96981L9.4265 2.16478ZM15.1198 2.16245L15.2757 1.96701L15.2751 1.96652L15.1198 2.16245ZM22.7988 8.28745L22.6429 8.48294L22.6473 8.4863L22.7988 8.28745ZM24.2502 11.1796H24.5002L24.5001 11.1763L24.2502 11.1796ZM14.0033 18.0901C15.2716 18.0901 16.3013 19.115 16.3013 20.3706H16.8013C16.8013 18.8356 15.5444 17.5901 14.0033 17.5901V18.0901ZM16.3013 20.3706V23.9593H16.8013V20.3706H16.3013ZM16.3013 23.9593C16.3013 24.4006 16.6558 24.7464 17.094 24.7564L17.1053 24.2565C16.9275 24.2525 16.8013 24.1176 16.8013 23.9593H16.3013ZM17.0997 24.7564H19.3233V24.2564H17.0997V24.7564ZM19.3233 24.7564C21.2107 24.7564 22.7502 23.2405 22.7502 21.3704H22.2502C22.2502 22.9584 20.9406 24.2564 19.3233 24.2564V24.7564ZM22.7502 21.3704V11.1924H22.2502V21.3704H22.7502ZM22.7501 11.189C22.7409 10.5156 22.4198 9.88436 21.8739 9.46671L21.5701 9.86384C21.9971 10.1905 22.2431 10.6793 22.2502 11.1959L22.7501 11.189ZM21.8779 9.46982L14.186 3.33549L13.8743 3.7264L21.5661 9.86073L21.8779 9.46982ZM14.1854 3.33497C13.0618 2.44496 11.4889 2.44526 10.3622 3.33727L10.6725 3.72929C11.6178 2.98096 12.9336 2.98126 13.8749 3.72691L14.1854 3.33497ZM10.3609 3.33829L2.72154 9.46795L3.03445 9.85793L10.6738 3.72827L10.3609 3.33829ZM2.72675 9.46389C2.16216 9.89287 1.84011 10.5245 1.83351 11.2099L2.33348 11.2147C2.33855 10.6891 2.5835 10.2007 3.02924 9.862L2.72675 9.46389ZM1.8335 11.2123V21.3704H2.3335V11.2123H1.8335ZM1.8335 21.3704C1.8335 23.2405 3.37294 24.7564 5.26033 24.7564V24.2564C3.64305 24.2564 2.3335 22.9584 2.3335 21.3704H1.8335ZM5.26033 24.7564H7.505V24.2564H5.26033V24.7564ZM7.505 24.7564C7.9535 24.7564 8.32783 24.3993 8.32783 23.9476H7.82783C7.82783 24.1119 7.68883 24.2564 7.505 24.2564V24.7564ZM8.32783 23.9476C8.32783 23.8997 8.33366 23.85 8.34425 23.8014L7.85574 23.6948C7.83834 23.7746 7.82783 23.8602 7.82783 23.9476H8.32783ZM8.35 23.7481V20.3706H7.85V23.7481H8.35ZM8.35 20.3706C8.35 19.1226 9.37369 18.0985 10.6322 18.0901L10.6288 17.5901C9.09897 17.6004 7.85 18.8443 7.85 20.3706H8.35ZM10.6305 18.0901H14.0033V17.5901H10.6305V18.0901ZM19.3233 26.0065H17.0787V26.5065H19.3233V26.0065ZM17.0846 26.0065C15.9318 25.9793 15.0513 25.0783 15.0513 23.9593H14.5513C14.5513 25.3556 15.6542 26.4729 17.0728 26.5064L17.0846 26.0065ZM15.0513 23.9593V20.3706H14.5513V23.9593H15.0513ZM15.0513 20.3706C15.0513 19.7968 14.5759 19.3401 14.0033 19.3401V19.8401C14.3104 19.8401 14.5513 20.0835 14.5513 20.3706H15.0513ZM14.0033 19.3401H10.6363V19.8401H14.0033V19.3401ZM10.635 19.3401C10.0704 19.3432 9.6 19.8026 9.6 20.3706H10.1C10.1 20.0846 10.3413 19.8417 10.6377 19.8401L10.635 19.3401ZM9.6 20.3706V23.9476H10.1V20.3706H9.6ZM9.6 23.9476C9.6 24.0128 9.59132 24.0717 9.57496 24.1247L10.0527 24.2722C10.0853 24.1665 10.1 24.0574 10.1 23.9476H9.6ZM9.5653 24.1713C9.4531 25.1999 8.57286 26.0065 7.505 26.0065V26.5065C8.82879 26.5065 9.92256 25.507 10.0624 24.2256L9.5653 24.1713ZM7.505 26.0065H5.26033V26.5065H7.505V26.0065ZM5.26033 26.0065C2.6793 26.0065 0.583496 23.9243 0.583496 21.3704H0.0834961C0.0834961 24.2043 2.40703 26.5065 5.26033 26.5065V26.0065ZM0.583496 21.3704V11.2041H0.0834961V21.3704H0.583496ZM0.583483 11.2066C0.594372 10.1243 1.0922 9.1353 1.95325 8.48325L1.6514 8.08465C0.666793 8.83026 0.0959531 9.96464 0.0835087 11.2016L0.583483 11.2066ZM1.95881 8.47892L9.58298 2.35975L9.27001 1.96981L1.64585 8.08898L1.95881 8.47892ZM9.58174 2.36074C11.1697 1.10271 13.3803 1.10289 14.9646 2.35838L15.2751 1.96652C13.5087 0.566673 11.0409 0.566859 9.27125 1.96883L9.58174 2.36074ZM14.9639 2.35789L22.6429 8.48289L22.9547 8.09201L15.2757 1.96701L14.9639 2.35789ZM22.6473 8.4863C23.4878 9.12671 23.986 10.1138 24.0002 11.1829L24.5001 11.1763C24.484 9.95409 23.9136 8.82253 22.9503 8.0886L22.6473 8.4863ZM24.0002 11.1796V21.3704H24.5002V11.1796H24.0002ZM24.0002 21.3704C24.0002 23.9243 21.9044 26.0065 19.3233 26.0065V26.5065C22.1766 26.5065 24.5002 24.2043 24.5002 21.3704H24.0002Z" fill="#575066"/>
</svg>
