<svg width="24" height="24" viewBox="0 0 24 24" fill="none" xmlns="http://www.w3.org/2000/svg">
<path fill-rule="evenodd" clip-rule="evenodd" d="M5.29183 2.0835C2.0835 2.0835 2.0835 2.32616 2.0835 5.29183V5.321C2.0835 6.6125 2.0835 7.54583 2.39966 7.94016C2.70883 8.32283 3.627 8.50016 5.29183 8.50016C6.95666 8.50016 7.87483 8.32166 8.184 7.939C8.50016 7.54583 8.50016 6.6125 8.50016 5.31983C8.50016 2.32616 8.50016 2.0835 5.29183 2.0835ZM5.29183 10.2502C3.32483 10.2502 1.849 10.0437 1.03816 9.03683C0.333496 8.163 0.333496 6.97066 0.333496 5.321L1.2085 5.29183H0.333496C0.333496 1.9435 0.544663 0.333496 5.29183 0.333496C10.039 0.333496 10.2502 1.9435 10.2502 5.29183C10.2502 6.9695 10.2502 8.163 9.5455 9.03683C8.73466 10.0437 7.25883 10.2502 5.29183 10.2502Z" fill="#575066"/>
<path fill-rule="evenodd" clip-rule="evenodd" d="M18.1253 2.0835C14.917 2.0835 14.917 2.32616 14.917 5.29183V5.321C14.917 6.6125 14.917 7.54583 15.2332 7.94016C15.5423 8.32283 16.4605 8.50016 18.1253 8.50016C19.7902 8.50016 20.7083 8.32166 21.0175 7.939C21.3337 7.54583 21.3337 6.6125 21.3337 5.31983C21.3337 2.32616 21.3337 2.0835 18.1253 2.0835ZM18.1253 10.2502C16.1583 10.2502 14.6825 10.0437 13.8717 9.03683C13.167 8.163 13.167 6.97066 13.167 5.321L14.042 5.29183H13.167C13.167 1.9435 13.3782 0.333496 18.1253 0.333496C22.8725 0.333496 23.0837 1.9435 23.0837 5.29183C23.0837 6.9695 23.0837 8.163 22.379 9.03683C21.5682 10.0437 20.0923 10.2502 18.1253 10.2502Z" fill="#575066"/>
<path fill-rule="evenodd" clip-rule="evenodd" d="M5.29183 14.917C2.0835 14.917 2.0835 15.1597 2.0835 18.1253V18.1545C2.0835 19.446 2.0835 20.3793 2.39966 20.7737C2.70883 21.1563 3.627 21.3337 5.29183 21.3337C6.95666 21.3337 7.87483 21.1552 8.184 20.7725C8.50016 20.3793 8.50016 19.446 8.50016 18.1533C8.50016 15.1597 8.50016 14.917 5.29183 14.917ZM5.29183 23.0837C3.32483 23.0837 1.849 22.8772 1.03816 21.8703C0.333496 20.9965 0.333496 19.8042 0.333496 18.1545L1.2085 18.1253H0.333496C0.333496 14.777 0.544663 13.167 5.29183 13.167C10.039 13.167 10.2502 14.777 10.2502 18.1253C10.2502 19.803 10.2502 20.9965 9.5455 21.8703C8.73466 22.8772 7.25883 23.0837 5.29183 23.0837Z" fill="#575066"/>
<path fill-rule="evenodd" clip-rule="evenodd" d="M18.1253 14.917C14.917 14.917 14.917 15.1597 14.917 18.1253V18.1545C14.917 19.446 14.917 20.3793 15.2332 20.7737C15.5423 21.1563 16.4605 21.3337 18.1253 21.3337C19.7902 21.3337 20.7083 21.1552 21.0175 20.7725C21.3337 20.3793 21.3337 19.446 21.3337 18.1533C21.3337 15.1597 21.3337 14.917 18.1253 14.917ZM18.1253 23.0837C16.1583 23.0837 14.6825 22.8772 13.8717 21.8703C13.167 20.9965 13.167 19.8042 13.167 18.1545L14.042 18.1253H13.167C13.167 14.777 13.3782 13.167 18.1253 13.167C22.8725 13.167 23.0837 14.777 23.0837 18.1253C23.0837 19.803 23.0837 20.9965 22.379 21.8703C21.5682 22.8772 20.0923 23.0837 18.1253 23.0837Z" fill="#575066"/>
</svg>
