<svg width="25" height="25" viewBox="0 0 25 25" fill="none" xmlns="http://www.w3.org/2000/svg">
<path fill-rule="evenodd" clip-rule="evenodd" d="M17.34 24.0966H7.04533C3.03083 24.0966 0.333496 21.2791 0.333496 17.0861V7.38648C0.333496 3.19348 3.03083 0.375977 7.04533 0.375977H11.4075C11.8905 0.375977 12.2825 0.767977 12.2825 1.25098C12.2825 1.73398 11.8905 2.12598 11.4075 2.12598H7.04533C4.03066 2.12598 2.0835 4.19098 2.0835 7.38648V17.0861C2.0835 20.2816 4.03066 22.3466 7.04533 22.3466H17.34C20.3547 22.3466 22.303 20.2816 22.303 17.0861V12.3868C22.303 11.9038 22.695 11.5118 23.178 11.5118C23.661 11.5118 24.053 11.9038 24.053 12.3868V17.0861C24.053 21.2791 21.3545 24.0966 17.34 24.0966Z" fill="#575066"/>
<path fill-rule="evenodd" clip-rule="evenodd" d="M8.34571 15.9995H11.8189C12.2622 15.9995 12.6775 15.828 12.9914 15.5142L21.7519 6.75366C22.1112 6.39433 22.3095 5.916 22.3095 5.40733C22.3095 4.8975 22.1112 4.418 21.7519 4.05866L20.332 2.63883C19.5889 1.898 18.3802 1.898 17.6359 2.63883L8.91738 11.3573C8.61521 11.6595 8.44371 12.0608 8.43321 12.4867L8.34571 15.9995ZM11.8188 17.7495H7.44851C7.21284 17.7495 6.98651 17.6538 6.82201 17.4847C6.65751 17.3167 6.56768 17.0892 6.57351 16.8523L6.68318 12.4435C6.70534 11.5662 7.05884 10.7413 7.67951 10.1195H7.68068L16.3992 1.401C17.8248 -0.0223372 20.143 -0.0223372 21.5687 1.401L22.9885 2.82083C23.6803 3.5115 24.0607 4.42966 24.0595 5.40733C24.0595 6.385 23.6792 7.302 22.9885 7.9915L14.228 16.752C13.5852 17.3948 12.7288 17.7495 11.8188 17.7495Z" fill="#575066"/>
<path fill-rule="evenodd" clip-rule="evenodd" d="M21.0196 9.56909C20.7956 9.56909 20.5716 9.48392 20.4012 9.31242L15.0742 3.98542C14.7324 3.64359 14.7324 3.08942 15.0742 2.74759C15.4161 2.40575 15.9691 2.40575 16.3109 2.74759L21.6379 8.07575C21.9797 8.41759 21.9797 8.97059 21.6379 9.31242C21.4676 9.48392 21.2436 9.56909 21.0196 9.56909Z" fill="#575066"/>
</svg>
