<svg width="143" height="19" viewBox="0 0 143 19" fill="none" xmlns="http://www.w3.org/2000/svg">
<path d="M2.40814 18.056C1.6988 18.056 1.12947 17.8507 0.700138 17.44C0.289471 17.0107 0.0841379 16.4413 0.0841379 15.732V3.356C0.0841379 2.64667 0.289471 2.08667 0.700138 1.676C1.12947 1.24667 1.6988 1.032 2.40814 1.032H11.6761C11.7881 1.21867 11.8908 1.452 11.9841 1.732C12.0775 2.012 12.1241 2.32933 12.1241 2.684C12.1241 3.3 11.9841 3.75733 11.7041 4.056C11.4428 4.35467 11.0695 4.504 10.5841 4.504H4.36814V7.64H10.8641C10.9761 7.82667 11.0788 8.06 11.1721 8.34C11.2655 8.62 11.3121 8.93733 11.3121 9.292C11.3121 9.908 11.1815 10.3653 10.9201 10.664C10.6588 10.944 10.2855 11.084 9.80014 11.084H4.36814V14.584H11.7881C11.9001 14.7707 12.0028 15.0133 12.0961 15.312C12.1895 15.6107 12.2361 15.9373 12.2361 16.292C12.2361 16.908 12.0961 17.356 11.8161 17.636C11.5548 17.916 11.1908 18.056 10.7241 18.056H2.40814ZM25.4134 14.276H19.9254C19.7201 14.948 19.5241 15.6107 19.3374 16.264C19.1694 16.9173 19.0201 17.496 18.8894 18C18.6468 18.0747 18.3948 18.14 18.1334 18.196C17.8721 18.252 17.5548 18.28 17.1814 18.28C16.3601 18.28 15.7348 18.14 15.3054 17.86C14.8948 17.5613 14.6894 17.1413 14.6894 16.6C14.6894 16.3387 14.7268 16.0867 14.8014 15.844C14.8761 15.6013 14.9601 15.3213 15.0534 15.004C15.1841 14.5 15.3708 13.8747 15.6134 13.128C15.8561 12.3813 16.1174 11.5787 16.3974 10.72C16.6961 9.84267 17.0041 8.94667 17.3214 8.032C17.6388 7.11733 17.9468 6.24933 18.2454 5.428C18.5441 4.588 18.8148 3.82267 19.0574 3.132C19.3001 2.44133 19.5054 1.89067 19.6734 1.48C19.9534 1.312 20.3828 1.15333 20.9614 1.004C21.5588 0.854666 22.1468 0.78 22.7254 0.78C23.5654 0.78 24.3028 0.901333 24.9374 1.144C25.5908 1.368 26.0108 1.75067 26.1974 2.292C26.5521 3.28133 26.9348 4.42933 27.3454 5.736C27.7561 7.04267 28.1668 8.38667 28.5774 9.768C29.0068 11.1493 29.4174 12.512 29.8094 13.856C30.2014 15.2 30.5468 16.404 30.8454 17.468C30.6401 17.7107 30.3321 17.9067 29.9214 18.056C29.5294 18.2053 29.0534 18.28 28.4934 18.28C27.6908 18.28 27.1214 18.14 26.7854 17.86C26.4681 17.58 26.2348 17.1413 26.0854 16.544L25.4134 14.276ZM22.6974 4.7C22.4361 5.54 22.1094 6.50133 21.7174 7.584C21.3441 8.648 20.9894 9.74 20.6534 10.86H24.6574C24.3401 9.684 24.0134 8.564 23.6774 7.5C23.3601 6.41733 23.0894 5.484 22.8654 4.7H22.6974ZM38.7714 14.892C39.7607 14.892 40.4607 14.724 40.8714 14.388C41.3007 14.0333 41.5154 13.6133 41.5154 13.128C41.5154 12.68 41.3474 12.3253 41.0114 12.064C40.6941 11.784 40.2087 11.5413 39.5554 11.336L38.1274 10.888C37.3434 10.6453 36.6341 10.384 35.9994 10.104C35.3647 9.80533 34.8234 9.46 34.3754 9.068C33.9274 8.65733 33.5727 8.18133 33.3114 7.64C33.0687 7.08 32.9474 6.408 32.9474 5.624C32.9474 4.056 33.5354 2.81467 34.7114 1.9C35.9061 0.985333 37.5581 0.528 39.6674 0.528C40.4701 0.528 41.2074 0.583999 41.8794 0.695999C42.5701 0.807999 43.1581 0.985332 43.6434 1.228C44.1287 1.452 44.5114 1.732 44.7914 2.068C45.0714 2.404 45.2114 2.796 45.2114 3.244C45.2114 3.67333 45.0994 4.056 44.8754 4.392C44.6701 4.70933 44.4274 4.98 44.1474 5.204C43.7181 4.90533 43.1487 4.65333 42.4394 4.448C41.7301 4.24267 40.9554 4.14 40.1154 4.14C39.2194 4.14 38.5567 4.28 38.1274 4.56C37.6981 4.84 37.4834 5.19467 37.4834 5.624C37.4834 5.99733 37.6234 6.28667 37.9034 6.492C38.1834 6.67867 38.6221 6.87467 39.2194 7.08L40.7314 7.584C41.6087 7.88267 42.3741 8.20933 43.0274 8.564C43.6994 8.9 44.2594 9.292 44.7074 9.74C45.1554 10.1693 45.4914 10.6733 45.7154 11.252C45.9394 11.812 46.0514 12.456 46.0514 13.184C46.0514 13.968 45.8927 14.6867 45.5754 15.34C45.2767 15.9747 44.8194 16.5253 44.2034 16.992C43.6061 17.4587 42.8594 17.8227 41.9634 18.084C41.0861 18.3453 40.0687 18.476 38.9114 18.476C38.0527 18.476 37.2594 18.4013 36.5314 18.252C35.8034 18.1213 35.1687 17.9253 34.6274 17.664C34.1047 17.4027 33.6847 17.0853 33.3674 16.712C33.0687 16.32 32.9194 15.8813 32.9194 15.396C32.9194 14.892 33.0594 14.472 33.3394 14.136C33.6381 13.8 33.9647 13.5293 34.3194 13.324C34.8234 13.7347 35.4487 14.0987 36.1954 14.416C36.9607 14.7333 37.8194 14.892 38.7714 14.892ZM62.2737 2.768C62.2737 2.992 62.1897 3.30933 62.0217 3.72C61.8723 4.13067 61.6017 4.7 61.2097 5.428C60.8177 6.156 60.2857 7.08 59.6137 8.2C58.9603 9.32 58.1297 10.692 57.1217 12.316V17.972C56.9163 18.028 56.627 18.0747 56.2537 18.112C55.899 18.168 55.5257 18.196 55.1337 18.196C54.2563 18.196 53.6497 18.0467 53.3137 17.748C52.9777 17.4493 52.8097 16.9267 52.8097 16.18V12.288C52.3243 11.5787 51.8017 10.7853 51.2417 9.908C50.6817 9.012 50.131 8.116 49.5897 7.22C49.0483 6.30533 48.5443 5.40933 48.0777 4.532C47.611 3.65467 47.2377 2.87067 46.9577 2.18C47.163 1.86267 47.4523 1.57333 47.8257 1.312C48.2177 1.05067 48.6937 0.92 49.2537 0.92C49.907 0.92 50.439 1.06 50.8497 1.34C51.2603 1.60133 51.6523 2.10533 52.0257 2.852C52.063 2.908 52.1563 3.08533 52.3057 3.384C52.455 3.664 52.623 4 52.8097 4.392C53.015 4.76533 53.2297 5.176 53.4537 5.624C53.6777 6.072 53.883 6.492 54.0697 6.884C54.275 7.25733 54.4523 7.584 54.6017 7.864C54.751 8.144 54.8443 8.312 54.8817 8.368H55.0217C55.3203 7.752 55.591 7.164 55.8337 6.604C56.095 6.044 56.347 5.49333 56.5897 4.952C56.8323 4.392 57.075 3.832 57.3177 3.272C57.579 2.69333 57.8497 2.068 58.1297 1.396C58.4283 1.24667 58.755 1.13467 59.1097 1.06C59.483 0.966666 59.8283 0.92 60.1457 0.92C60.743 0.92 61.247 1.07867 61.6577 1.396C62.0683 1.71333 62.2737 2.17067 62.2737 2.768ZM66.6791 18C66.3244 18 66.0257 17.888 65.7831 17.664C65.5591 17.44 65.4471 17.1413 65.4471 16.768V1.032C65.5404 0.994666 65.6804 0.957332 65.8671 0.92C66.0724 0.863999 66.2871 0.835999 66.5111 0.835999C67.3324 0.835999 67.7431 1.18133 67.7431 1.872V16.04H75.7791C75.9844 16.2453 76.0871 16.5533 76.0871 16.964C76.0871 17.2813 76.0031 17.5333 75.8351 17.72C75.6671 17.9067 75.4431 18 75.1631 18H66.6791ZM80.9864 18C80.6131 18 80.3144 17.888 80.0904 17.664C79.8664 17.44 79.7544 17.1413 79.7544 16.768V2.208C79.7544 1.83467 79.8664 1.536 80.0904 1.312C80.3144 1.088 80.6131 0.975999 80.9864 0.975999H90.2824C90.3384 1.06933 90.3944 1.2 90.4504 1.368C90.5064 1.51733 90.5344 1.68533 90.5344 1.872C90.5344 2.18933 90.4598 2.44133 90.3104 2.628C90.1611 2.81467 89.9464 2.908 89.6664 2.908H82.0224V8.312H89.4144C89.4704 8.40533 89.5264 8.536 89.5824 8.704C89.6384 8.85333 89.6664 9.02133 89.6664 9.208C89.6664 9.52533 89.5918 9.77733 89.4424 9.964C89.2931 10.132 89.0784 10.216 88.7984 10.216H82.0224V16.096H90.4224C90.4784 16.1893 90.5344 16.3107 90.5904 16.46C90.6464 16.6093 90.6744 16.7867 90.6744 16.992C90.6744 17.3093 90.5998 17.5613 90.4504 17.748C90.3011 17.916 90.0864 18 89.8064 18H80.9864ZM104.757 13.464H97.2529C97.1222 13.8373 96.9822 14.248 96.8329 14.696C96.6836 15.1253 96.5342 15.5547 96.3849 15.984C96.2542 16.3947 96.1236 16.7867 95.9929 17.16C95.8622 17.5147 95.7596 17.8133 95.6849 18.056C95.4236 18.168 95.1156 18.224 94.7609 18.224C94.4622 18.224 94.1916 18.1493 93.9489 18C93.7249 17.832 93.6129 17.5707 93.6129 17.216C93.6129 17.048 93.6409 16.88 93.6969 16.712C93.7529 16.5253 93.8182 16.3293 93.8929 16.124C94.1729 15.34 94.5276 14.332 94.9569 13.1C95.4049 11.868 95.8809 10.5613 96.3849 9.18C96.9076 7.78 97.4302 6.38 97.9529 4.98C98.4942 3.56133 98.9889 2.292 99.4369 1.172C99.5862 1.09733 99.8102 1.02267 100.109 0.947999C100.408 0.873332 100.716 0.835999 101.033 0.835999C101.406 0.835999 101.761 0.891999 102.097 1.004C102.452 1.116 102.676 1.30267 102.769 1.564C103.217 2.64667 103.693 3.888 104.197 5.288C104.72 6.66933 105.242 8.088 105.765 9.544C106.288 11 106.782 12.4373 107.249 13.856C107.734 15.256 108.164 16.5253 108.537 17.664C108.388 17.832 108.21 17.9627 108.005 18.056C107.8 18.168 107.566 18.224 107.305 18.224C106.95 18.224 106.68 18.1493 106.493 18C106.306 17.832 106.148 17.5613 106.017 17.188L104.757 13.464ZM101.005 2.74C100.8 3.3 100.566 3.944 100.305 4.672C100.044 5.38133 99.7729 6.128 99.4929 6.912C99.2129 7.696 98.9329 8.48933 98.6529 9.292C98.3729 10.0947 98.1116 10.86 97.8689 11.588H104.169C103.889 10.748 103.6 9.908 103.301 9.068C103.002 8.20933 102.713 7.388 102.433 6.604C102.172 5.82 101.92 5.10133 101.677 4.448C101.453 3.776 101.266 3.20667 101.117 2.74H101.005ZM114.411 17.944C114.299 17.9813 114.15 18.0187 113.963 18.056C113.777 18.112 113.571 18.14 113.347 18.14C112.526 18.14 112.115 17.7947 112.115 17.104V2.208C112.115 1.90933 112.19 1.68533 112.339 1.536C112.489 1.368 112.722 1.23733 113.039 1.144C113.581 0.975999 114.243 0.854667 115.027 0.78C115.83 0.705333 116.605 0.668 117.351 0.668C119.703 0.668 121.449 1.144 122.587 2.096C123.745 3.02933 124.323 4.364 124.323 6.1C124.323 7.388 123.987 8.47067 123.315 9.348C122.662 10.2253 121.663 10.8507 120.319 11.224C120.786 11.8213 121.253 12.4187 121.719 13.016C122.186 13.6133 122.625 14.1827 123.035 14.724C123.465 15.2467 123.838 15.7227 124.155 16.152C124.491 16.5813 124.753 16.9173 124.939 17.16C124.865 17.4773 124.697 17.7293 124.435 17.916C124.193 18.1027 123.941 18.196 123.679 18.196C123.362 18.196 123.101 18.1213 122.895 17.972C122.69 17.8227 122.475 17.5893 122.251 17.272L118.163 11.56H114.411V17.944ZM117.603 9.656C118.985 9.656 120.067 9.35733 120.851 8.76C121.635 8.16267 122.027 7.276 122.027 6.1C122.027 4.924 121.617 4.04667 120.795 3.468C119.974 2.87067 118.798 2.572 117.267 2.572C116.763 2.572 116.25 2.6 115.727 2.656C115.223 2.69333 114.775 2.74933 114.383 2.824V9.656H117.603ZM130.115 18.14C129.294 18.14 128.883 17.804 128.883 17.132V1.312C129.219 0.975999 129.723 0.807999 130.395 0.807999C130.843 0.807999 131.226 0.901333 131.543 1.088C131.861 1.256 132.15 1.57333 132.411 2.04L137.759 11C137.983 11.392 138.217 11.812 138.459 12.26C138.702 12.6893 138.935 13.128 139.159 13.576C139.383 14.0053 139.589 14.416 139.775 14.808C139.981 15.1813 140.149 15.4987 140.279 15.76L140.391 15.732C140.242 14.22 140.149 12.6987 140.111 11.168C140.093 9.63733 140.083 8.144 140.083 6.688V1.032C140.195 0.994666 140.345 0.957332 140.531 0.92C140.718 0.863999 140.923 0.835999 141.147 0.835999C141.969 0.835999 142.379 1.172 142.379 1.844V17.692C142.211 17.8413 141.997 17.9533 141.735 18.028C141.474 18.1213 141.185 18.168 140.867 18.168C140.419 18.168 140.037 18.084 139.719 17.916C139.402 17.7293 139.113 17.4027 138.851 16.936L133.531 7.976C133.307 7.60267 133.065 7.192 132.803 6.744C132.561 6.296 132.318 5.85733 132.075 5.428C131.851 4.99867 131.637 4.588 131.431 4.196C131.245 3.804 131.086 3.47733 130.955 3.216L130.843 3.244C130.937 4.14 131.011 5.16667 131.067 6.324C131.123 7.46267 131.151 8.54533 131.151 9.572V17.944C131.058 17.9813 130.909 18.0187 130.703 18.056C130.517 18.112 130.321 18.14 130.115 18.14Z" fill="#575066"/>
</svg>
