<svg width="92" height="23" viewBox="0 0 92 23" fill="none" xmlns="http://www.w3.org/2000/svg">
<path d="M3.24977 22.09C2.38977 22.09 1.70977 21.84 1.20977 21.34C0.709766 20.84 0.459766 20.16 0.459766 19.3V6.61C0.459766 5.75 0.709766 5.07 1.20977 4.57C1.70977 4.07 2.38977 3.82 3.24977 3.82H13.1498C13.2898 4.04 13.4098 4.32 13.5098 4.66C13.6298 5 13.6898 5.38 13.6898 5.8C13.6898 6.54 13.5298 7.08 13.2098 7.42C12.8898 7.76 12.4498 7.93 11.8898 7.93H5.55977V10.72H12.3098C12.4498 10.94 12.5698 11.22 12.6698 11.56C12.7898 11.9 12.8498 12.28 12.8498 12.7C12.8498 13.44 12.6898 13.98 12.3698 14.32C12.0498 14.64 11.6098 14.8 11.0498 14.8H5.55977V17.95H13.2698C13.4098 18.17 13.5298 18.46 13.6298 18.82C13.7498 19.18 13.8098 19.57 13.8098 19.99C13.8098 20.73 13.6498 21.27 13.3298 21.61C13.0098 21.93 12.5698 22.09 12.0098 22.09H3.24977ZM23.1459 6.97C24.0059 6.97 24.7459 7.08 25.3659 7.3V2.44C25.5859 2.38 25.8959 2.32 26.2959 2.26C26.7159 2.2 27.1659 2.17 27.6459 2.17C28.6459 2.17 29.3659 2.34 29.8059 2.68C30.2459 3 30.4659 3.63 30.4659 4.57V18.79C30.4659 19.73 30.0259 20.48 29.1459 21.04C28.5659 21.42 27.8159 21.75 26.8959 22.03C25.9959 22.33 24.9459 22.48 23.7459 22.48C21.1259 22.48 19.0859 21.84 17.6259 20.56C16.1659 19.26 15.4359 17.33 15.4359 14.77C15.4359 13.45 15.6359 12.3 16.0359 11.32C16.4359 10.34 16.9759 9.53 17.6559 8.89C18.3559 8.25 19.1759 7.77 20.1159 7.45C21.0559 7.13 22.0659 6.97 23.1459 6.97ZM25.3959 11.29C25.1759 11.19 24.9359 11.11 24.6759 11.05C24.4159 10.99 24.1459 10.96 23.8659 10.96C22.8259 10.96 22.0159 11.28 21.4359 11.92C20.8759 12.54 20.5959 13.49 20.5959 14.77C20.5959 16.03 20.8659 16.96 21.4059 17.56C21.9459 18.16 22.7159 18.46 23.7159 18.46C24.0759 18.46 24.4059 18.42 24.7059 18.34C25.0059 18.26 25.2359 18.17 25.3959 18.07V11.29ZM33.644 7.48C33.864 7.42 34.174 7.36 34.574 7.3C34.994 7.24 35.444 7.21 35.924 7.21C36.924 7.21 37.644 7.38 38.084 7.72C38.524 8.04 38.744 8.67 38.744 9.61V16.21C38.744 17.03 38.944 17.62 39.344 17.98C39.744 18.32 40.324 18.49 41.084 18.49C41.544 18.49 41.914 18.45 42.194 18.37C42.494 18.29 42.724 18.21 42.884 18.13V7.48C43.104 7.42 43.414 7.36 43.814 7.3C44.234 7.24 44.684 7.21 45.164 7.21C46.164 7.21 46.884 7.38 47.324 7.72C47.764 8.04 47.984 8.67 47.984 9.61V18.88C47.984 19.88 47.564 20.63 46.724 21.13C46.024 21.57 45.184 21.9 44.204 22.12C43.244 22.36 42.194 22.48 41.054 22.48C39.974 22.48 38.974 22.36 38.054 22.12C37.154 21.88 36.374 21.51 35.714 21.01C35.054 20.51 34.544 19.87 34.184 19.09C33.824 18.29 33.644 17.33 33.644 16.21V7.48ZM61.6232 21.4C61.3432 21.64 60.9032 21.85 60.3032 22.03C59.7232 22.21 59.0832 22.3 58.3832 22.3C57.5432 22.3 56.8232 22.18 56.2232 21.94C55.6232 21.68 55.2132 21.33 54.9932 20.89C54.7732 20.43 54.5032 19.84 54.1832 19.12C53.8632 18.38 53.5232 17.56 53.1632 16.66C52.8232 15.76 52.4632 14.81 52.0832 13.81C51.7232 12.79 51.3732 11.76 51.0332 10.72C50.6932 9.68 50.3732 8.66 50.0732 7.66C49.7732 6.66 49.5132 5.72 49.2932 4.84C49.5732 4.56 49.9732 4.31 50.4932 4.09C51.0332 3.85 51.6032 3.73 52.2032 3.73C52.9432 3.73 53.5432 3.89 54.0032 4.21C54.4832 4.51 54.8332 5.08 55.0532 5.92C55.5932 7.88 56.1332 9.76 56.6732 11.56C57.2332 13.34 57.8132 15.2 58.4132 17.14H58.5932C59.1332 15.26 59.6832 13.21 60.2432 10.99C60.8232 8.77 61.3732 6.56 61.8932 4.36C62.2532 4.18 62.6332 4.03 63.0332 3.91C63.4532 3.79 63.9232 3.73 64.4432 3.73C65.1832 3.73 65.8132 3.9 66.3332 4.24C66.8532 4.56 67.1132 5.1 67.1132 5.86C67.1132 6.3 67.0032 6.94 66.7832 7.78C66.5832 8.62 66.3132 9.57 65.9732 10.63C65.6532 11.67 65.2832 12.76 64.8632 13.9C64.4632 15.04 64.0532 16.12 63.6332 17.14C63.2332 18.14 62.8532 19.03 62.4932 19.81C62.1332 20.57 61.8432 21.1 61.6232 21.4ZM69.1253 7.63C69.3453 7.57 69.6553 7.51 70.0553 7.45C70.4753 7.39 70.9253 7.36 71.4053 7.36C72.4053 7.36 73.1253 7.53 73.5653 7.87C74.0053 8.19 74.2253 8.82 74.2253 9.76V21.97C74.0053 22.03 73.6853 22.09 73.2653 22.15C72.8653 22.21 72.4253 22.24 71.9453 22.24C70.9453 22.24 70.2253 22.08 69.7853 21.76C69.3453 21.42 69.1253 20.78 69.1253 19.84V7.63ZM68.8853 3.37C68.8853 2.61 69.1353 1.97 69.6353 1.45C70.1553 0.929999 70.8353 0.669999 71.6753 0.669999C72.5153 0.669999 73.1853 0.929999 73.6853 1.45C74.2053 1.97 74.4653 2.61 74.4653 3.37C74.4653 4.13 74.2053 4.77 73.6853 5.29C73.1853 5.81 72.5153 6.07 71.6753 6.07C70.8353 6.07 70.1553 5.81 69.6353 5.29C69.1353 4.77 68.8853 4.13 68.8853 3.37ZM84.5521 6.97C85.4121 6.97 86.1521 7.08 86.7721 7.3V2.44C86.9921 2.38 87.3021 2.32 87.7021 2.26C88.1221 2.2 88.5721 2.17 89.0521 2.17C90.0521 2.17 90.7721 2.34 91.2121 2.68C91.6521 3 91.8721 3.63 91.8721 4.57V18.79C91.8721 19.73 91.4321 20.48 90.5521 21.04C89.9721 21.42 89.2221 21.75 88.3021 22.03C87.4021 22.33 86.3521 22.48 85.1521 22.48C82.5321 22.48 80.4921 21.84 79.0321 20.56C77.5721 19.26 76.8421 17.33 76.8421 14.77C76.8421 13.45 77.0421 12.3 77.4421 11.32C77.8421 10.34 78.3821 9.53 79.0621 8.89C79.7621 8.25 80.5821 7.77 81.5221 7.45C82.4621 7.13 83.4721 6.97 84.5521 6.97ZM86.8021 11.29C86.5821 11.19 86.3421 11.11 86.0821 11.05C85.8221 10.99 85.5521 10.96 85.2721 10.96C84.2321 10.96 83.4221 11.28 82.8421 11.92C82.2821 12.54 82.0021 13.49 82.0021 14.77C82.0021 16.03 82.2721 16.96 82.8121 17.56C83.3521 18.16 84.1221 18.46 85.1221 18.46C85.4821 18.46 85.8121 18.42 86.1121 18.34C86.4121 18.26 86.6421 18.17 86.8021 18.07V11.29Z" fill="#575066"/>
</svg>
