<svg width="62" height="62" viewBox="0 0 62 62" fill="none" xmlns="http://www.w3.org/2000/svg">
<g filter="url(#filter0_d)">
<circle cx="31" cy="31" r="23" fill="#454248" fill-opacity="0.32"/>
<path d="M36.2905 36.3655L36.2905 36.3656L36.2939 36.3652C36.6997 36.3101 37.0124 35.9624 37.0124 35.5415C37.0124 35.0824 36.6402 34.7103 36.1812 34.7103L21.996 34.7103L21.996 34.7101L21.9926 34.7104L21.8866 34.7175L21.8866 34.7174L21.8832 34.7178C21.4775 34.7729 21.1647 35.1206 21.1647 35.5415C21.1647 36.0006 21.5369 36.3728 21.996 36.3728L36.1812 36.3728L36.1812 36.3729L36.1845 36.3726L36.2905 36.3655Z" fill="#F2F2F2" stroke="#F2F2F2" stroke-width="0.1"/>
<path d="M25.7668 40.4559L25.7667 40.456L25.7696 40.4582C26.0957 40.6989 26.5574 40.6711 26.8518 40.3753C27.1757 40.0499 27.1745 39.5236 26.8491 39.1997C26.8491 39.1997 26.8491 39.1997 26.8491 39.1997L23.1743 35.5407L26.8491 31.8826L26.8492 31.8827L26.8516 31.8799L26.9275 31.7925L26.9276 31.7926L26.9298 31.7896C27.172 31.4647 27.1463 31.0029 26.8518 30.707C26.528 30.3817 26.0016 30.3804 25.6763 30.7043L21.4089 34.952L21.4088 34.9519L21.4064 34.9547L21.3303 35.0424L21.3302 35.0423L21.328 35.0453C21.0852 35.3713 21.1121 35.8349 21.4089 36.1303L25.6763 40.378L25.6762 40.3781L25.679 40.3805L25.7668 40.4559Z" fill="#F2F2F2" stroke="#F2F2F2" stroke-width="0.1"/>
<path d="M39.1172 26.0232L39.1172 26.0233L39.1205 26.0229C39.5263 25.9678 39.8391 25.6201 39.8391 25.1992C39.8391 24.7401 39.4669 24.368 39.0078 24.368L24.8226 24.368L24.8226 24.3679L24.8193 24.3681L24.7133 24.3752L24.7133 24.3751L24.7099 24.3756C24.3041 24.4306 23.9914 24.7783 23.9914 25.1992C23.9914 25.6583 24.3635 26.0305 24.8226 26.0305L39.0078 26.0305L39.0078 26.0306L39.0112 26.0304L39.1172 26.0232Z" fill="#F2F2F2" stroke="#F2F2F2" stroke-width="0.1"/>
<path d="M39.6733 25.6981L39.6734 25.6981L39.6756 25.6952C39.9184 25.3692 39.8915 24.9056 39.5947 24.6102L35.3274 20.3625L35.3275 20.3624L35.3247 20.36L35.2369 20.2846L35.237 20.2845L35.234 20.2823C34.908 20.0416 34.4463 20.0694 34.1518 20.3652L34.1517 20.3651L34.1493 20.3679L34.0739 20.4557L34.0738 20.4556L34.0716 20.4586C33.8308 20.7846 33.8587 21.2463 34.1545 21.5408L34.1545 21.5408L37.8305 25.1991L34.1545 28.8579L34.1544 28.8578L34.152 28.8606L34.0762 28.948L34.0761 28.9479L34.0739 28.9509C33.8316 29.2758 33.8573 29.7376 34.1518 30.0335C34.4757 30.3588 35.002 30.36 35.3274 30.0362L39.5947 25.7885L39.5948 25.7886L39.5972 25.7858L39.6733 25.6981Z" fill="#F2F2F2" stroke="#F2F2F2" stroke-width="0.1"/>
</g>
<defs>
<filter id="filter0_d" x="0" y="0" width="62" height="62" filterUnits="userSpaceOnUse" color-interpolation-filters="sRGB">
<feFlood flood-opacity="0" result="BackgroundImageFix"/>
<feColorMatrix in="SourceAlpha" type="matrix" values="0 0 0 0 0 0 0 0 0 0 0 0 0 0 0 0 0 0 127 0" result="hardAlpha"/>
<feOffset/>
<feGaussianBlur stdDeviation="4"/>
<feComposite in2="hardAlpha" operator="out"/>
<feColorMatrix type="matrix" values="0 0 0 0 0.454167 0 0 0 0 0.454167 0 0 0 0 0.454167 0 0 0 0.32 0"/>
<feBlend mode="normal" in2="BackgroundImageFix" result="effect1_dropShadow"/>
<feBlend mode="normal" in="SourceGraphic" in2="effect1_dropShadow" result="shape"/>
</filter>
</defs>
</svg>
